SplineFontDB: 3.2
FontName: LMNOPBerntiqua-Bold
FullName: LMNOP Berntiqua Bold
FamilyName: LMNOP Berntiqua
Weight: Bold
Copyright: Copyright (c) 2023, LMNOP Type Foundry
UComments: "2023-4-1: Created with FontForge (http://fontforge.org)"
Version: 001.000
ItalicAngle: 0
UnderlinePosition: -125
UnderlineWidth: 62.5
Ascent: 800
Descent: 200
InvalidEm: 0
LayerCount: 2
Layer: 0 0 "Back" 1
Layer: 1 0 "Fore" 0
XUID: [1021 344 888104427 12482]
FSType: 0
OS2Version: 0
OS2_WeightWidthSlopeOnly: 0
OS2_UseTypoMetrics: 1
CreationTime: 1680387818
ModificationTime: 1701740830
PfmFamily: 17
TTFWeight: 700
TTFWidth: 5
LineGap: 112
VLineGap: 0
OS2TypoAscent: 0
OS2TypoAOffset: 1
OS2TypoDescent: 0
OS2TypoDOffset: 1
OS2TypoLinegap: 112
OS2WinAscent: 0
OS2WinAOffset: 1
OS2WinDescent: 0
OS2WinDOffset: 1
HheadAscent: 0
HheadAOffset: 1
HheadDescent: 0
HheadDOffset: 1
OS2Vendor: 'PfEd'
Lookup: 1 0 0 "'ss02' Style Set 2 in Latin lookup 3" { "'ss02' Style Set 2 in Latin lookup 3-1" ("ss02") } ['ss02' ('DFLT' <'dflt' > 'latn' <'dflt' > ) ]
Lookup: 3 0 0 "'salt' Stylistic Alternatives in Latin lookup 1" { "'salt' Stylistic Alternatives in Latin lookup 1-1"  } ['salt' ('DFLT' <'dflt' > 'latn' <'dflt' > ) ]
Lookup: 1 0 0 "'ss01' Style Set 1 in Latin lookup 2" { "'ss01' Style Set 1 in Latin lookup 2-1" ("ss01") } ['ss01' ('DFLT' <'dflt' > 'latn' <'dflt' > ) ]
Lookup: 4 0 0 "'dlig' Discretionary Ligatures in Latin lookup 0" { "'dlig' Discretionary Ligatures in Latin lookup 0-1"  } ['dlig' ('DFLT' <'dflt' > 'latn' <'dflt' > ) ]
Lookup: 260 0 0 "'mark' Mark Positioning in Latin lookup 1" { "'mark' Mark Positioning in Latin lookup 1-1"  } ['mark' ('DFLT' <'dflt' > 'cyrl' <'dflt' > 'grek' <'dflt' > 'latn' <'dflt' > ) ]
Lookup: 258 0 0 "'kern' Horizontal Kerning in Latin lookup 0" { "'kern' Horizontal Kerning in Latin lookup 0-1" [150,15,2] } ['kern' ('DFLT' <'dflt' > 'cyrl' <'dflt' > 'grek' <'dflt' > 'latn' <'dflt' > ) ]
MarkAttachClasses: 1
DEI: 91125

StartChar: exclam
Encoding: 33 33 0
Width: 255
VWidth: 1250
Flags: W
HStem: -12 190<69.162 186.07> 728 20G<105.5 152.5>
VStem: 32 190<23.9296 140.838> 42 180<501.011 719.951> 90 78<239.541 452.136>
LayerCount: 2
Fore
SplineSet
42 652 m 0xd0
 42 723 82 748 129 748 c 0
 176 748 222 726 222 651 c 0xd0
 222 521 168 437 168 285 c 16
 168 263 161 236 129 236 c 0
 97 236 90 262 90 286 c 0xc8
 90 435 42 531 42 652 c 0xd0
32 82 m 0xe0
 32 134 76 178 128 178 c 0
 180 178 222 134 222 82 c 0
 222 30 180 -12 128 -12 c 0
 76 -12 32 30 32 82 c 0xe0
EndSplineSet
Validated: 1
EndChar

StartChar: dollar
Encoding: 36 36 1
Width: 516
VWidth: 1250
Flags: W
HStem: -145 21G<235.5 260.5> -5 61<223 273> 548 72<219 269> 729 20G<231.5 256.5>
VStem: 39 127<379 524.186> 208 80<-142.367 -48.7169 8 46 558 595 646.811 745.06> 219 57<-110.344 -5.05145 620.127 714.296> 332 140<97 248>
LayerCount: 2
Fore
SplineSet
248 -145 m 4xfd
 223 -145 208 -134 208 -111 c 4xfd
 208 -97 219 -84 219 -47 c 4xfb
 219 -8 208 8 208 23 c 4
 208 46 223 56 248 56 c 4
 273 56 288 46 288 23 c 4xfd
 288 8 276 -8 276 -47 c 4xfb
 276 -84 288 -97 288 -111 c 4
 288 -134 273 -145 248 -145 c 4xfd
244 548 m 4
 219 548 204 558 204 581 c 4
 204 595 215 608 215 645 c 4
 215 684 204 700 204 715 c 4
 204 738 219 749 244 749 c 4
 269 749 284 738 284 715 c 4
 284 700 272 684 272 645 c 4
 272 608 284 595 284 581 c 4
 284 558 269 548 244 548 c 4
39 443 m 0
 39 534 117 620 239 620 c 0
 361 620 401 562 401 531 c 0
 401 500 384 471 344 471 c 0
 279 471 259 543 214 543 c 0
 184 543 166 520 166 495 c 0
 166 451 237 424 310 387 c 0
 390 347 472 296 472 200 c 0
 472 80 356 -5 226 -5 c 4
 96 -5 28 42 28 104 c 0
 28 142 48 169 100 169 c 0
 192 169 192 60 272 60 c 0
 307 60 332 80 332 114 c 0
 332 169 272 194 206 226 c 0
 126 265 39 315 39 443 c 0
EndSplineSet
Validated: 5
EndChar

StartChar: comma
Encoding: 44 44 2
Width: 255
VWidth: 1250
Flags: W
VStem: 80 142<-88 108>
LayerCount: 2
Fore
SplineSet
32 82 m 4
 32 134 76 178 128 178 c 4
 180 178 222 134 222 82 c 4
 222 -72 67 -201 16 -201 c 4
 2 -201 -5 -193 -5 -182 c 4
 -5 -146 80 -104 80 -35 c 4
 80 4 32 14 32 82 c 4
EndSplineSet
Validated: 1
EndChar

StartChar: hyphen
Encoding: 45 45 3
Width: 411
VWidth: 1250
Flags: W
HStem: 194 131<110.593 299.977>
LayerCount: 2
Fore
SplineSet
260 194 m 6
 128 194 l 6
 120 194 102 172 70 172 c 4
 38 172 36 205 49 222 c 6
 106 298 l 6
 121 318 131 325 151 325 c 6
 291 325 l 6
 302 325 309 347 341 347 c 4
 373 347 375 314 362 297 c 6
 305 222 l 6
 290 202 280 194 260 194 c 6
EndSplineSet
Validated: 33
EndChar

StartChar: period
Encoding: 46 46 4
Width: 255
VWidth: 1250
Flags: W
HStem: -12 190<69.162 186.07>
VStem: 32 190<23.9296 140.838>
LayerCount: 2
Fore
SplineSet
32 82 m 0
 32 134 76 178 128 178 c 0
 180 178 222 134 222 82 c 0
 222 30 180 -12 128 -12 c 0
 76 -12 32 30 32 82 c 0
EndSplineSet
Validated: 1
EndChar

StartChar: zero
Encoding: 48 48 5
Width: 670
VWidth: 1250
Flags: W
HStem: -12 64<272.881 391.119> 556 64<272.881 391.119>
VStem: 21 178<187.012 425.965> 465 178<187.012 425.965>
LayerCount: 2
Fore
SplineSet
332 556 m 0
 249 556 199 467 199 308 c 4
 199 145 249 52 332 52 c 0
 415 52 465 145 465 308 c 4
 465 467 415 556 332 556 c 0
332 620 m 0
 509 620 643 491 643 308 c 4
 643 121 509 -12 332 -12 c 0
 155 -12 21 121 21 308 c 4
 21 491 155 620 332 620 c 0
EndSplineSet
Validated: 1
EndChar

StartChar: one
Encoding: 49 49 6
Width: 322
VWidth: 1250
Flags: W
HStem: 0 67<10.733 81 240 309.441>
VStem: 81 159<68.016 483.996>
LayerCount: 2
Fore
SplineSet
240 82 m 2
 240 73 244 68 250 68 c 0
 258 68 261 72 275 72 c 0
 300 72 312 57 312 37 c 0
 312 17 302 0 260 0 c 0
 218 0 204 5 159 5 c 0
 114 5 103 0 61 0 c 0
 19 0 8 17 8 37 c 0
 8 57 21 72 46 72 c 0
 60 72 63 67 71 67 c 0
 77 67 81 71 81 82 c 2
 81 466 l 2
 81 479 78 484 70 484 c 0
 58 484 52 475 29 475 c 0
 13 475 -2 482 -2 503 c 0
 -2 545 40 542 90 566 c 0
 155 597 181 620 209 620 c 0
 234 620 240 603 240 583 c 2
 240 82 l 2
EndSplineSet
Validated: 1
EndChar

StartChar: two
Encoding: 50 50 7
Width: 592
VWidth: 1250
Flags: W
HStem: -12 136<380 473.864> -12 118<45.3626 111> 524 96<192.402 373>
VStem: 75 83<432.262 515.306> 325 187<377.144 494.948> 494 82<127.09 200.847>
LayerCount: 2
Fore
SplineSet
75 471 m 0x78
 75 536 167 620 312 620 c 0
 434 620 512 554 512 462 c 0x78
 512 287 232 171 232 140 c 0
 232 134 236 130 244 130 c 0
 259 130 330 161 372 161 c 0
 416 161 454 124 473 124 c 0
 489 124 494 140 494 159 c 0
 494 190 509 205 538 205 c 0
 565 205 576 186 576 164 c 0
 576 88 480 -12 412 -12 c 0xb4
 348 -12 199 48 185 48 c 0
 171 48 126 -12 64 -12 c 4
 43 -12 12 1 12 32 c 0
 12 103 96 86 111 106 c 2
 278 299 l 2
 316 343 325 390 325 434 c 0
 325 492 286 524 222 524 c 0
 179 524 156 511 156 490 c 0
 156 479 158 473 158 463 c 0
 158 446 144 428 116 428 c 0
 94 428 75 442 75 471 c 0x78
EndSplineSet
Validated: 1
EndChar

StartChar: three
Encoding: 51 51 8
Width: 531
VWidth: 1250
Flags: W
HStem: -12 72<107.125 255.316> 319 81<108.71 198.484> 329 66<150.255 241.893> 555 65<145.819 306.5>
VStem: 41 91<480.783 540.243> 274 156<451.846 537.49> 274 76<399 484> 325 175<142.547 273.292>
LayerCount: 2
Fore
SplineSet
258 620 m 0xbc
 355 620 430 588 430 510 c 0xbc
 430 439 350 411 350 399 c 0xba
 350 381 500 378 500 234 c 0
 500 83 340 -12 190 -12 c 0
 79 -12 10 22 10 66 c 0
 10 93 31 105 54 105 c 0
 95 105 106 60 188 60 c 0
 266 60 325 133 325 212 c 0
 325 278 258 329 212 329 c 4xb9
 196 329 168 319 144 319 c 0
 125 319 104 331 104 359 c 0
 104 384 123 400 149 400 c 0xd9
 176 400 188 395 199 395 c 0
 215 395 274 422 274 484 c 0
 274 530 244 555 199 555 c 0
 163 555 144 539 132 515 c 0
 122 496 120 474 84 474 c 0
 49 474 41 500 41 515 c 0
 41 570 143 620 258 620 c 0xbc
EndSplineSet
Validated: 1
EndChar

StartChar: four
Encoding: 52 52 9
Width: 581
VWidth: 1250
Flags: W
HStem: 0 67<215.733 286 442 512.13> 204 86<462.614 553.421> 208 72<155.004 284.767 446.259 513.109>
VStem: 16 139<226.5 293> 286 156<68.016 206.643 280.254 397.992>
LayerCount: 2
Fore
SplineSet
442 82 m 2xd8
 442 73 447 68 453 68 c 0
 461 68 464 72 478 72 c 0
 503 72 515 57 515 37 c 0
 515 17 504 0 462 0 c 0
 420 0 405 5 360 5 c 0
 315 5 308 0 266 0 c 0
 224 0 213 17 213 37 c 0
 213 57 226 72 251 72 c 0
 265 72 268 67 276 67 c 0
 282 67 286 71 286 82 c 2
 286 170 l 2
 286 205 275 208 242 208 c 2
 71 208 l 2
 33 208 16 217 16 236 c 0
 16 261 55 284 90 320 c 2
 330 571 l 2
 358 600 380 625 409 625 c 0
 439 625 446 603 446 574 c 2
 446 293 l 2
 446 283 450 280 457 280 c 0xb8
 469 280 492 290 520 290 c 0
 544 290 558 272 558 248 c 0
 558 224 546 204 514 204 c 0
 495 204 475 211 462 211 c 0
 450 211 442 205 442 186 c 2
 442 82 l 2xd8
266 398 m 0
 255 398 241 387 230 375 c 2
 178 322 l 18
 164 308 155 297 155 289 c 0
 155 283 160 280 169 280 c 2
 255 280 l 2
 277 280 288 283 288 298 c 2
 288 366 l 2
 288 387 280 398 266 398 c 0
EndSplineSet
Validated: 1
EndChar

StartChar: five
Encoding: 53 53 10
Width: 526
VWidth: 1250
Flags: W
HStem: -12 85<98.4293 262.033> 310 132<208.999 278.001> 505 98<216.5 386.484> 623 20G<399.5 422>
VStem: 316 163<159.571 271.691>
LayerCount: 2
Fore
SplineSet
191 73 m 0
 263 73 316 124 316 198 c 0
 316 286 262 310 191 310 c 0
 152 310 134 300 106 300 c 4
 84 300 71 312 71 330 c 4
 71 350 82 368 100 408 c 2
 179 579 l 2
 188 597 197 603 215 603 c 10
 366 603 l 2
 381 603 387 643 412 643 c 0
 432 643 439 631 439 603 c 2
 439 533 l 2
 439 514 430 505 414 505 c 2
 234 505 l 2
 229 505 224 503 221 495 c 2
 209 464 l 2
 205 453 207 442 218 442 c 0
 228 442 250 448 274 448 c 0
 388 448 479 382 479 260 c 0
 479 94 321 -12 179 -12 c 0
 68 -12 13 24 13 68 c 0
 13 95 33 107 56 107 c 0
 97 107 109 73 191 73 c 0
EndSplineSet
Validated: 1
EndChar

StartChar: six
Encoding: 54 54 11
Width: 607
VWidth: 1250
Flags: W
HStem: -12 65<270.374 380.559> 367 41<224.19 279.294> 507 113<274.321 428.973>
VStem: 35 159<150.424 337.083> 414 155<133.292 259.716>
LayerCount: 2
Fore
SplineSet
194 266 m 0
 194 157 248 53 326 53 c 4
 381 53 414 96 414 158 c 0
 414 258 350 367 278 367 c 0
 227 367 194 328 194 266 c 0
35 239 m 0
 35 455 191 620 395 620 c 0
 445 620 479 592 479 552 c 0
 479 518 448 496 401 496 c 0
 369 496 343 507 311 507 c 0
 246 507 198 465 198 428 c 0
 198 415 204 408 215 408 c 0
 238 408 266 437 352 437 c 0
 476 437 569 347 569 227 c 0
 569 94 447 -12 285 -12 c 4
 137 -12 35 94 35 239 c 0
EndSplineSet
Validated: 1
EndChar

StartChar: seven
Encoding: 55 55 12
Width: 492
VWidth: 1250
Flags: W
HStem: 0 67<33.8699 105.387 288.003 357.13> 483 160<97.259 153.919> 483 120<154.001 310.996>
VStem: 31 257<27 126> 311 160<467 595.5>
LayerCount: 2
Fore
SplineSet
288 82 m 0xb8
 288 73 292 68 298 68 c 0
 306 68 309 72 323 72 c 0
 348 72 360 57 360 37 c 0
 360 17 349 0 307 0 c 0
 265 0 227 5 182 5 c 0
 137 5 126 0 84 0 c 0
 42 0 31 17 31 37 c 0
 31 57 43 72 68 72 c 0
 82 72 86 67 94 67 c 0
 100 67 101 71 104 82 c 0
 133 202 200 327 286 435 c 0
 302 455 311 462 311 472 c 0
 311 478 306 483 290 483 c 2xb8
 116 483 l 6
 95 483 102 439 64 439 c 4
 40 439 31 448 31 467 c 4
 31 479 51 514 69 562 c 4
 89 616 98 643 134 643 c 4xd8
 149 643 156 634 156 625 c 4
 156 620 154 614 154 609 c 4
 154 605 156 603 164 603 c 6
 321 603 l 2
 373 603 404 620 432 620 c 0
 460 620 471 606 471 585 c 0
 471 535 386 465 327 308 c 0
 293 218 288 170 288 82 c 0xb8
EndSplineSet
Validated: 1
EndChar

StartChar: eight
Encoding: 56 56 13
Width: 538
VWidth: 1250
Flags: W
HStem: -12 68<162.162 311.05> 556 64<239.683 352.246>
VStem: 15 84<117.051 247.975> 92 131<450.103 537.939> 355 166<108.637 220.844> 368 70<440.373 540.054>
LayerCount: 2
Fore
SplineSet
184 301 m 0xe8
 160 301 99 245 99 184 c 0
 99 114 160 56 238 56 c 4
 303 56 355 98 355 160 c 0
 355 261 208 301 184 301 c 0xe8
223 492 m 0xd4
 223 445 290 421 313 421 c 0
 336 421 368 455 368 495 c 0
 368 529 340 556 298 556 c 0
 251 556 223 528 223 492 c 0xd4
92 485 m 0
 92 559 157 620 285 620 c 0
 397 620 438 545 438 499 c 0xd4
 438 434 392 406 392 391 c 0
 392 371 521 338 521 202 c 0
 521 83 428 -12 259 -12 c 4
 91 -12 15 80 15 185 c 0xe8
 15 301 139 354 139 372 c 0
 139 392 92 414 92 485 c 0
EndSplineSet
Validated: 1
EndChar

StartChar: nine
Encoding: 57 57 14
Width: 607
VWidth: 1250
Flags: W
HStem: -12 108<173.133 327.463> 201 54<319.187 383.252> 555 65<218.345 338.695>
VStem: 35 155<358.273 479.568> 410 159<284.706 463.406>
LayerCount: 2
Fore
SplineSet
410 352 m 0
 410 460 357 555 278 555 c 0
 222 555 190 520 190 460 c 0
 190 361 253 255 326 255 c 0
 378 255 410 291 410 352 c 0
569 375 m 0
 569 160 412 -12 208 -12 c 0
 160 -12 128 8 128 48 c 4
 128 85 156 107 202 107 c 4
 234 107 260 96 292 96 c 4
 357 96 406 144 406 181 c 0
 406 194 400 201 389 201 c 0
 366 201 337 172 251 172 c 0
 125 172 35 270 35 388 c 0
 35 521 157 620 319 620 c 0
 467 620 569 520 569 375 c 0
EndSplineSet
Validated: 1
EndChar

StartChar: colon
Encoding: 58 58 15
Width: 255
VWidth: 1250
Flags: W
HStem: -12 190<69.162 186.07> 299 190<67.3584 187.828>
VStem: 32 190<23.9296 140.838 335.546 452.454>
LayerCount: 2
Fore
SplineSet
32 394 m 0
 32 446 76 489 128 489 c 0
 180 489 222 446 222 394 c 0
 222 342 180 299 128 299 c 0
 76 299 32 342 32 394 c 0
32 82 m 0
 32 134 76 178 128 178 c 0
 180 178 222 134 222 82 c 0
 222 30 180 -12 128 -12 c 0
 76 -12 32 30 32 82 c 0
EndSplineSet
Validated: 1
EndChar

StartChar: semicolon
Encoding: 59 59 16
Width: 255
VWidth: 1250
Flags: W
HStem: 299 190<67.3584 187.828>
VStem: 32 190<18.8036 140.838 335.546 452.454> 80 142<-88 108>
LayerCount: 2
Fore
SplineSet
32 82 m 4xc0
 32 134 76 178 128 178 c 4
 180 178 222 134 222 82 c 4xc0
 222 -72 67 -201 16 -201 c 4
 2 -201 -5 -193 -5 -182 c 4
 -5 -146 80 -104 80 -35 c 4xa0
 80 4 32 14 32 82 c 4xc0
32 394 m 0
 32 446 76 489 128 489 c 0
 180 489 222 446 222 394 c 0
 222 342 180 299 128 299 c 0
 76 299 32 342 32 394 c 0
EndSplineSet
Validated: 1
EndChar

StartChar: question
Encoding: 63 63 17
Width: 465
VWidth: 1250
Flags: W
HStem: -12 190<141.546 258.454> 674 76<159.945 251.227>
VStem: 105 190<22.1719 142.642> 140 101<277.404 389.505> 271 168<530.763 656.828>
LayerCount: 2
Fore
SplineSet
205 750 m 0xd8
 343 750 439 694 439 584 c 0
 439 440 241 424 241 354 c 0
 241 318 265 321 265 280 c 0
 265 259 244 235 212 235 c 0
 162 235 140 278 140 318 c 0
 140 460 271 492 271 602 c 0
 271 641 247 674 205 674 c 0
 134 674 131 566 66 566 c 0
 31 566 9 590 9 626 c 0
 9 681 83 750 205 750 c 0xd8
105 82 m 0xe0
 105 134 148 178 200 178 c 0
 252 178 295 134 295 82 c 0
 295 30 252 -12 200 -12 c 0
 148 -12 105 30 105 82 c 0xe0
EndSplineSet
Validated: 1
EndChar

StartChar: A
Encoding: 65 65 18
Width: 788
VWidth: 1250
Flags: W
HStem: 0 72<-12.1301 78.1669 172.004 266.267 450.877 524.996 708.488 791.13> 215 83<269.063 422.754> 474 255<315.472 400> 634 81<195.032 276.621>
AnchorPoint: "Anchor-3" 666 0 basechar 0
AnchorPoint: "Anchor-2" 358 0 basechar 0
AnchorPoint: "Anchor-0" 346 729 basechar 0
LayerCount: 2
Fore
SplineSet
172 79 m 0xe0
 172 73 177 68 189 68 c 0
 200 68 217 72 231 72 c 0
 256 72 269 57 269 37 c 0
 269 17 258 0 216 0 c 0
 174 0 143 5 128 5 c 0
 114 5 80 0 38 0 c 0
 -4 0 -15 17 -15 37 c 0
 -15 57 -3 72 22 72 c 0
 36 72 41 67 55 67 c 0
 67 67 70 74 84 108 c 2
 261 545 l 2
 273 574 278 598 278 608 c 0
 278 626 260 634 235 634 c 0
 210 634 191 647 191 675 c 0
 191 714 215 715 269 715 c 0xd0
 301 715 340 729 371 729 c 0
 429 729 453 690 473 642 c 2
 701 110 l 2
 716 76 721 68 732 68 c 0
 740 68 743 72 757 72 c 0
 782 72 794 57 794 37 c 0
 794 17 783 0 741 0 c 0
 699 0 672 5 621 5 c 0
 570 5 544 0 502 0 c 0
 460 0 448 17 448 37 c 0
 448 57 460 72 485 72 c 0
 499 72 503 67 511 67 c 0
 519 67 525 72 525 81 c 0
 525 85 525 87 523 91 c 2
 492 162 l 2
 476 199 466 215 426 215 c 2
 264 215 l 2
 223 215 215 212 200 167 c 2
 178 102 l 2
 173 88 172 85 172 79 c 0xe0
342 474 m 0xe0
 314 474 268 367 268 329 c 0
 268 310 280 298 304 298 c 2
 391 298 l 2
 412 298 424 309 424 330 c 0
 424 360 370 474 342 474 c 0xe0
EndSplineSet
Substitution2: "'ss02' Style Set 2 in Latin lookup 3-1" A.ss02
Substitution2: "'ss01' Style Set 1 in Latin lookup 2-1" A.ss01
EndChar

StartChar: B
Encoding: 66 66 19
Width: 723
VWidth: 1250
Flags: W
HStem: 0 68<48.8336 97> 0 61<285.75 433.78> 399 60<284.247 393.834> 661 68<46.8343 96.9607> 670 59<271.72 398.322>
VStem: 97 171<78.2599 382.728 468.004 660.798> 432 176<523.284 635.293> 508 197<131.429 311.95>
AnchorPoint: "Anchor-2" 342 0 basechar 0
AnchorPoint: "Anchor-0" 339 729 basechar 0
LayerCount: 2
Fore
SplineSet
71 729 m 2xb5
 402 729 l 2
 538 729 608 668 608 588 c 0x2e
 608 492 510 487 510 455 c 0
 510 423 705 405 705 224 c 0
 705 90 588 0 418 0 c 2x6d
 72 0 l 2
 34 0 12 12 12 41 c 0
 12 67 33 77 48 77 c 0
 66 77 70 68 82 68 c 0
 92 68 97 75 97 90 c 2
 97 637 l 2
 97 652 91 661 81 661 c 0
 69 661 64 652 46 652 c 0
 31 652 11 662 11 688 c 0
 11 717 33 729 71 729 c 2xb5
264 605 m 2
 264 530 l 2
 264 482 284 459 325 459 c 0
 387 459 432 498 432 566 c 0
 432 634 391 670 328 670 c 0
 278 670 264 656 264 605 c 2
268 311 m 2
 268 156 l 2
 268 86 288 61 350 61 c 0
 451 61 508 118 508 229 c 0x65
 508 324 436 399 345 399 c 0
 288 399 268 375 268 311 c 2
EndSplineSet
Validated: 1
EndChar

StartChar: C
Encoding: 67 67 20
Width: 695
VWidth: 1250
Flags: W
HStem: -12 70<351.968 495.53> 486 21G<600 624> 664 74<347.56 500.754>
VStem: 19 211<232.579 497.538>
AnchorPoint: "Anchor-0" 411 729 basechar 0
AnchorPoint: "Anchor-2" 405 0 basechar 0
LayerCount: 2
Fore
SplineSet
411 738 m 4
 473 738 506 710 520 710 c 4
 536 710 541 729 565 729 c 4
 589 729 601 698 614 658 c 4
 628 616 648 563 648 524 c 4
 648 505 636 486 612 486 c 4
 588 486 582 503 569 546 c 4
 543 634 490 664 429 664 c 4
 341 664 230 600 230 362 c 4
 230 124 354 58 422 58 c 4
 537 58 535 163 602 163 c 4
 626 163 642 144 642 118 c 4
 642 62 545 -12 405 -12 c 4
 253 -12 19 88 19 362 c 4
 19 649 247 738 411 738 c 4
EndSplineSet
Validated: 1
EndChar

StartChar: D
Encoding: 68 68 21
Width: 807
VWidth: 1250
Flags: W
HStem: 0 68<48.8336 97> 0 61<299.723 442.787> 661 68<46.8343 96.9607 293.947 446.893>
VStem: 97 181<82.3997 645.364> 570 205<239.297 502.275>
AnchorPoint: "Anchor-0" 364 729 basechar 0
AnchorPoint: "Anchor-2" 368 0 basechar 0
LayerCount: 2
Fore
SplineSet
72 0 m 2xb8
 34 0 12 12 12 41 c 0
 12 67 33 77 48 77 c 0
 66 77 70 68 82 68 c 0xb8
 92 68 97 75 97 90 c 2
 97 637 l 2
 97 652 91 661 81 661 c 0
 69 661 64 652 46 652 c 0
 31 652 11 662 11 688 c 0
 11 717 33 729 71 729 c 2
 409 729 l 2
 614 729 775 597 775 366 c 0
 775 135 590 0 398 0 c 2x78
 72 0 l 2xb8
278 142 m 2
 278 71 330 61 374 61 c 0x78
 462 61 570 154 570 377 c 0
 570 600 446 664 358 664 c 0
 314 664 278 645 278 590 c 2
 278 142 l 2
EndSplineSet
Validated: 1
EndChar

StartChar: E
Encoding: 69 69 22
Width: 625
VWidth: 1250
Flags: W
HStem: 0 64<46.6483 81 270.542 418.809> 384 66<265.674 377.438> 661 68<34.8314 80.5417 263.789 402.876> 729 20G<447 486>
VStem: 81 179<74.2305 378.938 451.122 659.776>
AnchorPoint: "Anchor-3" 342 0 basechar 0
AnchorPoint: "Anchor-2" 305 0 basechar 0
AnchorPoint: "Anchor-0" 296 729 basechar 0
LayerCount: 2
Fore
SplineSet
81 82 m 2xd8
 81 624 l 2
 81 648 79 661 65 661 c 0
 53 661 52 652 34 652 c 0
 19 652 4 662 4 688 c 0
 4 717 24 729 55 729 c 2
 348 729 l 2xe8
 418 729 430 749 464 749 c 0
 508 749 504 696 532 648 c 0
 548 620 555 603 555 584 c 0
 555 565 540 548 515 548 c 0
 471 548 454 580 421 621 c 0
 390 660 365 664 316 664 c 0
 267 664 262 650 262 618 c 2
 262 478 l 2
 262 459 276 450 290 450 c 2
 331 450 l 2
 382 450 371 491 422 491 c 0
 456 491 463 440 491 392 c 0
 507 364 514 348 514 329 c 0
 514 310 499 292 474 292 c 0
 439 292 425 313 392 354 c 0
 371 380 349 384 314 384 c 0
 279 384 260 376 260 328 c 2
 260 128 l 2
 260 90 275 64 319 64 c 0
 398 64 427 87 455 114 c 0
 507 165 512 208 570 208 c 0
 592 208 608 188 608 162 c 0
 608 136 588 122 568 78 c 0
 548 34 551 -28 495 -28 c 0
 444 -28 448 0 384 0 c 2
 61 0 l 2
 19 0 8 17 8 37 c 0
 8 57 21 72 46 72 c 0
 60 72 63 67 71 67 c 0
 77 67 81 71 81 82 c 2xd8
EndSplineSet
Validated: 1
EndChar

StartChar: F
Encoding: 70 70 23
Width: 583
VWidth: 1250
Flags: W
HStem: 0 67<10.733 81 260 329.441> 359 66<264.583 375.438> 661 68<34.8314 80.5417 263.789 402.876> 729 20G<447 486>
VStem: 81 179<68.016 354.591 425.659 659.776>
AnchorPoint: "Anchor-0" 296 729 basechar 0
AnchorPoint: "Anchor-2" 305 0 basechar 0
LayerCount: 2
Fore
SplineSet
81 624 m 2xd8
 81 648 79 661 65 661 c 0
 53 661 52 652 34 652 c 0
 19 652 4 662 4 688 c 0
 4 717 24 729 55 729 c 2
 348 729 l 2xe8
 418 729 430 749 464 749 c 0
 508 749 504 696 532 648 c 0
 548 620 555 603 555 584 c 0
 555 565 540 548 515 548 c 0
 471 548 454 580 421 621 c 0
 390 660 365 664 316 664 c 0
 267 664 262 650 262 618 c 2
 262 452 l 2
 262 434 275 425 288 425 c 2
 329 425 l 2
 380 425 369 466 420 466 c 0
 454 466 461 416 489 368 c 0
 505 340 511 323 511 304 c 0
 511 285 496 268 471 268 c 0
 436 268 423 288 390 329 c 0
 369 355 352 359 316 359 c 0
 272 359 260 350 260 302 c 2
 260 82 l 2
 260 74 264 68 270 68 c 0
 278 68 281 72 295 72 c 0
 320 72 332 57 332 37 c 0
 332 17 322 0 280 0 c 0
 238 0 221 5 170 5 c 0
 119 5 103 0 61 0 c 0
 19 0 8 17 8 37 c 0
 8 57 21 72 46 72 c 0
 60 72 63 67 71 67 c 0
 77 67 81 71 81 82 c 2
 81 624 l 2xd8
EndSplineSet
Validated: 1
EndChar

StartChar: G
Encoding: 71 71 24
Width: 795
VWidth: 1250
Flags: W
HStem: -12 70<333.327 467.821 613.399 718.964> 335 72<420.87 513.662 668.375 749.13> 488 21G<600 624> 664 74<347.56 500.754>
VStem: 19 211<221.114 497.538> 515 153<104.493 338.938> 569 79<496.334 597.472>
AnchorPoint: "Anchor-2" 405 0 basechar 0
AnchorPoint: "Anchor-0" 411 729 basechar 0
LayerCount: 2
Fore
SplineSet
569 548 m 0xfa
 543 636 490 664 429 664 c 0
 341 664 230 600 230 362 c 0
 230 124 331 58 399 58 c 0
 463 58 515 104 515 175 c 2
 515 325 l 2
 515 337 505 339 499 339 c 0
 491 339 469 335 455 335 c 0
 430 335 418 350 418 370 c 0
 418 390 429 407 471 407 c 0
 513 407 539 396 590 396 c 0
 641 396 657 407 699 407 c 0
 741 407 752 390 752 370 c 0
 752 350 740 335 715 335 c 0
 701 335 685 340 677 340 c 0
 671 340 668 337 668 325 c 2
 668 102 l 2xfc
 668 71 670 52 694 52 c 0
 723 52 714 104 748 104 c 0
 767 104 783 90 783 62 c 0
 783 31 749 -12 670 -12 c 0
 558 -12 549 45 529 45 c 0
 505 45 493 -12 355 -12 c 0
 203 -12 19 100 19 362 c 0
 19 649 247 738 411 738 c 0
 473 738 506 710 520 710 c 0
 536 710 541 729 565 729 c 0
 589 729 601 698 614 658 c 0
 628 616 648 564 648 525 c 0
 648 506 636 488 612 488 c 0
 588 488 582 505 569 548 c 0xfa
EndSplineSet
Validated: 1
Substitution2: "'ss01' Style Set 1 in Latin lookup 2-1" G.ss01
EndChar

StartChar: H
Encoding: 72 72 25
Width: 822
VWidth: 1250
Flags: W
HStem: 0 72<10.733 81 259 329.441 482.559 552 731 801.267> 356 72<260.392 550.78> 661 68<10.733 81 260 329.13 482.559 552 731 801.267>
VStem: 81 178<68.062 354.642 428.596 660.998> 552 179<68.0382 354.719 429.891 660.998>
AnchorPoint: "Anchor-2" 405 0 basechar 0
AnchorPoint: "Anchor-0" 411 729 basechar 0
LayerCount: 2
Fore
SplineSet
81 82 m 6
 81 646 l 6
 81 658 77 661 71 661 c 4
 63 661 60 657 46 657 c 4
 21 657 8 672 8 692 c 4
 8 712 19 729 61 729 c 4
 103 729 119 724 170 724 c 4
 221 724 237 729 279 729 c 4
 321 729 332 712 332 692 c 4
 332 672 320 657 295 657 c 4
 281 657 277 661 269 661 c 4
 263 661 260 658 260 646 c 6
 260 452 l 6
 260 432 264 428 298 428 c 6
 514 428 l 6
 538 428 552 438 552 459 c 6
 552 646 l 6
 552 658 548 661 542 661 c 4
 534 661 531 657 517 657 c 4
 492 657 480 672 480 692 c 4
 480 712 490 729 532 729 c 4
 574 729 591 724 642 724 c 4
 693 724 709 729 751 729 c 4
 793 729 804 712 804 692 c 4
 804 672 791 657 766 657 c 4
 752 657 749 661 741 661 c 4
 735 661 731 658 731 646 c 6
 731 82 l 6
 731 70 735 68 741 68 c 4
 749 68 752 72 766 72 c 4
 791 72 804 57 804 37 c 4
 804 17 793 0 751 0 c 4
 709 0 693 5 642 5 c 4
 591 5 574 0 532 0 c 4
 490 0 480 17 480 37 c 4
 480 57 492 72 517 72 c 4
 531 72 534 67 542 67 c 4
 548 67 552 71 552 83 c 5
 552 319 l 6
 552 351 541 356 513 356 c 6
 294 356 l 6
 266 356 259 343 259 319 c 6
 259 83 l 6
 259 70 264 68 270 68 c 4
 278 68 281 72 295 72 c 4
 320 72 332 57 332 37 c 4
 332 17 322 0 280 0 c 4
 238 0 221 5 170 5 c 4
 119 5 103 0 61 0 c 4
 19 0 8 17 8 37 c 4
 8 57 21 72 46 72 c 4
 60 72 63 67 71 67 c 4
 77 67 81 70 81 82 c 6
EndSplineSet
Validated: 1
EndChar

StartChar: I
Encoding: 73 73 26
Width: 342
VWidth: 1250
Flags: W
HStem: 0 67<10.733 81 260 329.441> 661 68<10.733 81 260 329.13>
VStem: 81 179<68.016 660.998>
AnchorPoint: "Anchor-3" 218 0 basechar 0
AnchorPoint: "Anchor-2" 170 0 basechar 0
AnchorPoint: "Anchor-0" 170 729 basechar 0
LayerCount: 2
Back
SplineSet
45.7333984375 71.837890625 m 0
 70.2392578125 71.837890625 79.1328125 51.232421875 98.625 51.232421875 c 0
 118.119140625 51.232421875 144.693359375 52.3623046875 170.373046875 52.3623046875 c 0
 196.0546875 52.3623046875 222.630859375 51.232421875 242.124023438 51.232421875 c 0
 261.616210938 51.232421875 270.544921875 71.837890625 295.049804688 71.837890625 c 0
 319.555664062 71.837890625 332.344726562 57.369140625 332.344726562 37.3203125 c 0
 332.344726562 17.2705078125 321.541992188 0 279.533203125 0 c 0
 237.524414062 0 221.15234375 4.51171875 170.372070312 4.51171875 c 4
 119.59375 4.51171875 103.259765625 0 61.25 0 c 0
 19.2431640625 0 8.4033203125 17.2705078125 8.4033203125 37.3203125 c 0
 8.4033203125 57.369140625 21.228515625 71.837890625 45.7333984375 71.837890625 c 0
EndSplineSet
Fore
SplineSet
260 646 m 2
 260 82 l 2
 260 74 264 68 270 68 c 0
 278 68 281 72 295 72 c 0
 320 72 332 57 332 37 c 0
 332 17 322 0 280 0 c 0
 238 0 221 5 170 5 c 0
 119 5 103 0 61 0 c 0
 19 0 8 17 8 37 c 0
 8 57 21 72 46 72 c 0
 60 72 63 67 71 67 c 0
 77 67 81 71 81 82 c 2
 81 646 l 2
 81 658 77 661 71 661 c 0
 63 661 60 657 46 657 c 0
 21 657 8 672 8 692 c 0
 8 712 19 729 61 729 c 0
 103 729 119 724 170 724 c 0
 221 724 237 729 279 729 c 0
 321 729 332 712 332 692 c 0
 332 672 320 657 295 657 c 0
 281 657 277 661 269 661 c 0
 263 661 260 658 260 646 c 2
EndSplineSet
Validated: 1
EndChar

StartChar: J
Encoding: 74 74 27
Width: 342
VWidth: 1250
Flags: W
HStem: -182 77<-14.8752 60.5875> 661 68<11.8699 81 260 330.267>
VStem: 81 179<7.09454 660.998>
AnchorPoint: "Anchor-0" 170 729 basechar 0
AnchorPoint: "Anchor-2" 170 0 basechar 0
LayerCount: 2
Fore
SplineSet
260 646 m 6
 260 102 l 6
 260 -48 105 -182 -5 -182 c 4
 -57 -182 -106 -162 -106 -117 c 4
 -106 -87 -83 -71 -52 -71 c 4
 -13 -71 -2 -105 30 -105 c 4
 59 -105 81 -61 81 25 c 6
 81 646 l 6
 81 658 77 661 71 661 c 4
 63 661 60 657 46 657 c 4
 21 657 9 672 9 692 c 4
 9 712 20 729 62 729 c 4
 104 729 120 724 171 724 c 4
 222 724 238 729 280 729 c 4
 322 729 333 712 333 692 c 4
 333 672 320 657 295 657 c 4
 281 657 278 661 270 661 c 4
 264 661 260 658 260 646 c 6
EndSplineSet
Validated: 1
EndChar

StartChar: K
Encoding: 75 75 28
Width: 767
VWidth: 1250
Flags: W
HStem: 0 72<10.733 81 260 329.441 415.733 484.998 667.344 747.13> 411 45<265.498 324.237> 609 129<543.562 656.5> 661 68<10.733 81 260 329.13>
VStem: 81 179<68.016 406.476 456.163 660.998>
AnchorPoint: "Anchor-0" 370 729 basechar 0
AnchorPoint: "Anchor-2" 370 0 basechar 0
LayerCount: 2
Fore
SplineSet
482 82 m 6xe8
 373 339 l 6
 349 396 331 411 302 411 c 4
 273 411 260 391 260 361 c 6
 260 82 l 6
 260 74 264 68 270 68 c 4
 278 68 281 72 295 72 c 4
 320 72 332 57 332 37 c 4
 332 17 322 0 280 0 c 4
 238 0 221 5 170 5 c 4
 119 5 103 0 61 0 c 4
 19 0 8 17 8 37 c 4
 8 57 21 72 46 72 c 4
 60 72 63 67 71 67 c 4
 77 67 81 71 81 82 c 6
 81 646 l 6
 81 658 77 661 71 661 c 4
 63 661 60 657 46 657 c 4
 21 657 8 672 8 692 c 4
 8 712 19 729 61 729 c 4
 103 729 119 724 170 724 c 4
 221 724 237 729 279 729 c 4
 321 729 332 712 332 692 c 4
 332 672 320 657 295 657 c 4
 281 657 277 661 269 661 c 4xd8
 263 661 260 658 260 646 c 6
 260 480 l 6
 260 462 273 456 285 456 c 4
 300 456 313 464 322 475 c 6
 481 662 l 6
 534 725 582 738 632 738 c 4
 681 738 720 705 720 650 c 4
 720 612 691 579 642 579 c 4
 593 579 581 609 550 609 c 4
 515 609 488 578 488 542 c 4
 488 532 492 509 500 491 c 6
 670 82 l 6
 675 71 680 68 686 68 c 4
 695 68 699 72 713 72 c 4
 738 72 750 57 750 37 c 4
 750 17 739 0 697 0 c 4
 655 0 634 5 583 5 c 4
 532 5 508 0 466 0 c 4
 424 0 413 17 413 37 c 4
 413 57 426 72 451 72 c 4
 465 72 468 67 476 67 c 4
 482 67 485 70 485 74 c 4
 485 76 483 79 482 82 c 6xe8
EndSplineSet
Validated: 1
Substitution2: "'ss01' Style Set 1 in Latin lookup 2-1" K.ss01
EndChar

StartChar: L
Encoding: 76 76 29
Width: 625
VWidth: 1250
Flags: W
HStem: 661 68<10.733 81 260 329.13>
VStem: 81 179<74.2305 660.998>
AnchorPoint: "Anchor-0" 170 729 basechar 0
AnchorPoint: "Anchor-2" 295 0 basechar 0
LayerCount: 2
Fore
SplineSet
160 0 m 0
 126 0 103 0 61 0 c 0
 19 0 8 17 8 37 c 0
 8 57 21 72 46 72 c 0
 60 72 63 67 71 67 c 0
 77 67 81 71 81 82 c 2
 81 646 l 2
 81 658 77 661 71 661 c 0
 63 661 60 657 46 657 c 0
 21 657 8 672 8 692 c 0
 8 712 19 729 61 729 c 0
 103 729 119 724 170 724 c 0
 221 724 237 729 279 729 c 0
 321 729 332 712 332 692 c 0
 332 672 320 657 295 657 c 0
 281 657 277 661 269 661 c 0
 263 661 260 658 260 646 c 2
 260 128 l 2
 260 90 275 64 319 64 c 0
 398 64 427 87 455 114 c 0
 507 165 512 208 570 208 c 0
 592 208 608 188 608 162 c 0
 608 136 588 122 568 78 c 0
 548 34 551 -25 495 -25 c 0
 444 -25 448 0 384 0 c 2
 160 0 l 0
EndSplineSet
Validated: 1
EndChar

StartChar: M
Encoding: 77 77 30
Width: 870
VWidth: 1250
Flags: W
HStem: 0 72<10.733 81 164 233.13 533.87 604 782 852.13> 661 68<10.733 81 782 852.13>
VStem: 81 83<68.016 504.993> 604 178<68.016 509.993>
AnchorPoint: "Anchor-0" 432 729 basechar 0
AnchorPoint: "Anchor-2" 395 0 basechar 0
LayerCount: 2
Fore
SplineSet
140 728 m 4
 162 728 174 729 196 729 c 4
 220 729 227 715 251 683 c 6
 385 507 l 6
 408 480 416 473 430 473 c 4
 444 473 456 481 476 509 c 6
 615 697 l 6
 630 716 637 728 662 728 c 4
 687 728 695 728 726 728 c 4
 755 728 760 729 802 729 c 4
 844 729 855 712 855 692 c 4
 855 672 843 657 818 657 c 4
 804 657 800 661 792 661 c 4
 786 661 782 658 782 646 c 6
 782 83 l 6
 782 74 786 68 792 68 c 4
 800 68 804 72 818 72 c 4
 843 72 855 57 855 37 c 4
 855 17 844 0 802 0 c 4
 760 0 744 5 693 5 c 4
 642 5 626 0 584 0 c 4
 542 0 531 17 531 37 c 4
 531 57 543 72 568 72 c 4
 582 72 586 67 594 67 c 4
 600 67 604 71 604 82 c 6
 604 480 l 6
 604 500 596 510 584 510 c 4
 572 510 561 497 555 489 c 6
 414 298 l 6
 407 288 394 281 382 281 c 4
 370 281 361 287 350 301 c 6
 236 451 l 6
 215 479 203 505 185 505 c 4
 173 505 164 495 164 479 c 6
 164 82 l 6
 164 74 168 68 174 68 c 4
 182 68 185 72 199 72 c 4
 224 72 236 57 236 37 c 4
 236 17 225 0 183 0 c 4
 141 0 139 2 124 2 c 4
 110 2 103 0 61 0 c 4
 19 0 8 17 8 37 c 4
 8 57 21 72 46 72 c 4
 60 72 63 67 71 67 c 4
 77 67 81 71 81 82 c 6
 81 646 l 6
 81 658 77 661 71 661 c 4
 63 661 60 657 46 657 c 4
 21 657 8 672 8 692 c 4
 8 712 19 729 61 729 c 4
 103 729 114 728 140 728 c 4
EndSplineSet
Validated: 1
Substitution2: "'ss01' Style Set 1 in Latin lookup 2-1" M.ss01
EndChar

StartChar: N
Encoding: 78 78 31
Width: 777
VWidth: 1250
Flags: W
HStem: 0 72<14.8699 94 176 254.441> 661 68<42.835 93.5417 512.87 601 684 767.441>
VStem: 94 82<68.0781 419.995> 601 83<341.013 660.996>
AnchorPoint: "Anchor-2" 382 0 basechar 0
AnchorPoint: "Anchor-0" 372 729 basechar 0
LayerCount: 2
Fore
SplineSet
684 648 m 2
 684 55 l 2
 684 7 662 0 648 0 c 0
 630 0 617 6 601 22 c 2
 249 376 l 2
 229 396 216 420 198 420 c 0
 180 420 176 413 176 365 c 2
 176 81 l 2
 176 72 184 68 190 68 c 0
 198 68 206 72 220 72 c 0
 245 72 257 57 257 37 c 0
 257 17 247 0 205 0 c 0
 163 0 151 2 136 2 c 0
 122 2 107 0 65 0 c 0
 23 0 12 17 12 37 c 0
 12 57 24 72 49 72 c 0
 63 72 72 67 80 67 c 0
 86 67 94 73 94 82 c 2
 94 624 l 2
 94 648 92 661 78 661 c 0
 66 661 60 652 42 652 c 0
 27 652 8 662 8 688 c 0
 8 717 37 729 68 729 c 0
 94 729 125 729 154 729 c 0
 190 729 204 710 232 682 c 2
 522 390 l 2
 562 350 568 341 582 341 c 0
 596 341 601 359 601 395 c 2
 601 646 l 2
 601 655 597 661 579 661 c 0
 571 661 561 657 547 657 c 0
 522 657 510 672 510 692 c 0
 510 712 521 729 563 729 c 0
 605 729 626 727 641 727 c 0
 655 727 676 729 718 729 c 0
 760 729 770 712 770 692 c 0
 770 672 758 657 733 657 c 0
 719 657 714 661 700 661 c 0
 688 661 684 658 684 648 c 2
EndSplineSet
Validated: 1
Substitution2: "'ss01' Style Set 1 in Latin lookup 2-1" N.ss01
EndChar

StartChar: O
Encoding: 79 79 32
Width: 826
VWidth: 1250
Flags: W
HStem: -12 75<337.913 482.087> 662 76<334.137 485.863>
VStem: 29 203<230.667 498.772> 588 203<230.667 498.772>
AnchorPoint: "Anchor-3" 481 0 basechar 0
AnchorPoint: "Anchor-2" 410 0 basechar 0
AnchorPoint: "Anchor-0" 410 729 basechar 0
LayerCount: 2
Fore
SplineSet
410 63 m 0
 498 63 588 142 588 365 c 0
 588 588 498 662 410 662 c 0
 322 662 232 588 232 365 c 0
 232 142 322 63 410 63 c 0
410 -12 m 0
 218 -12 29 121 29 365 c 0
 29 609 205 738 410 738 c 0
 615 738 791 609 791 365 c 0
 791 121 602 -12 410 -12 c 0
EndSplineSet
Validated: 1
EndChar

StartChar: P
Encoding: 80 80 33
Width: 661
VWidth: 1250
Flags: W
HStem: 0 67<14.8699 86 265 334.441> 316 55<272.924 382.84> 661 68<35.8343 85.9825> 675 54<268.965 387.565>
VStem: 86 179<68.0958 315.869 378.617 660.836> 436 184<429.263 617.369>
AnchorPoint: "Anchor-0" 308 729 basechar 0
AnchorPoint: "Anchor-2" 308 0 basechar 0
LayerCount: 2
Fore
SplineSet
262 610 m 2xdc
 262 449 l 2
 262 397 273 371 323 371 c 0
 383 371 436 427 436 522 c 0
 436 630 387 675 326 675 c 0
 265 675 262 648 262 610 c 2xdc
60 729 m 2xec
 349 729 l 2xdc
 519 729 620 657 620 524 c 0
 620 365 495 312 379 312 c 0
 335 312 312 316 291 316 c 0
 272 316 265 309 265 290 c 2
 265 81 l 6
 265 73 269 68 275 68 c 4
 283 68 286 72 300 72 c 4
 325 72 337 57 337 37 c 4
 337 17 327 0 285 0 c 4
 243 0 225 5 174 5 c 4
 123 5 107 0 65 0 c 4
 23 0 12 17 12 37 c 4
 12 57 24 72 49 72 c 4
 63 72 67 67 75 67 c 4
 81 67 86 72 86 84 c 6
 86 638 l 2
 86 654 80 661 70 661 c 0
 58 661 53 652 35 652 c 0
 20 652 0 662 0 688 c 0
 0 717 22 729 60 729 c 2xec
EndSplineSet
Validated: 1
EndChar

StartChar: Q
Encoding: 81 81 34
Width: 826
VWidth: 1250
Flags: W
HStem: -144 90<640.461 726.617> -20 83<330 478> -12 58<263 602> 662 76<334.137 485.863>
VStem: 29 203<230.667 498.772> 588 203<230.667 498.772>
AnchorPoint: "Anchor-2" 420 -100 basechar 0
AnchorPoint: "Anchor-0" 420 729 basechar 0
LayerCount: 2
Fore
SplineSet
221 -63 m 0xdc
 221 -16 263 46 408 46 c 0xbc
 646 46 613 -54 687 -54 c 0
 761 -54 726 70 810 70 c 0
 837 70 864 51 864 16 c 0
 864 -49 790 -144 648 -144 c 0
 506 -144 478 -20 408 -20 c 0
 330 -20 375 -136 285 -136 c 0
 254 -136 221 -110 221 -63 c 0xdc
410 63 m 0xdc
 498 63 588 142 588 365 c 0
 588 588 498 662 410 662 c 0
 322 662 232 588 232 365 c 0
 232 142 322 63 410 63 c 0xdc
410 -12 m 0xbc
 218 -12 29 121 29 365 c 0
 29 609 205 738 410 738 c 0
 615 738 791 609 791 365 c 0
 791 121 602 -12 410 -12 c 0xbc
EndSplineSet
Validated: 5
Substitution2: "'ss01' Style Set 1 in Latin lookup 2-1" Q.ss01
EndChar

StartChar: R
Encoding: 82 82 35
Width: 741
VWidth: 1250
Flags: W
HStem: -5 86<549.932 655.923> 0 67<14.8699 84.6618 265.181 334.441> 359 50<272.135 379.438> 661 68<35.8343 85.9825> 676 53<268.965 392.148>
VStem: 86 179<68.1094 355.51 416.385 660.857> 418 188<90.7566 306.142> 441 197<463.425 632.543> 656 82<82.5516 133.76>
AnchorPoint: "Anchor-0" 320 729 basechar 0
AnchorPoint: "Anchor-2" 395 0 basechar 0
LayerCount: 2
Fore
SplineSet
86 84 m 2x6680
 86 638 l 2
 86 654 80 661 70 661 c 0
 58 661 53 652 35 652 c 0
 20 652 0 662 0 688 c 0
 0 717 22 729 60 729 c 2x7680
 376 729 l 2
 551 729 638 665 638 544 c 0x2d80
 638 413 519 391 519 375 c 0
 519 359 606 346 606 210 c 0
 606 102 617 81 636 81 c 0
 651 81 656 92 656 105 c 0
 656 128 671 142 692 142 c 0
 713 142 738 124 738 88 c 0
 738 50 705 -5 601 -5 c 0
 485 -5 418 46 418 236 c 0
 418 324 371 359 312 359 c 0
 276 359 265 346 265 318 c 2
 265 81 l 2xae80
 265 73 269 68 275 68 c 0
 283 68 286 72 300 72 c 0
 325 72 337 57 337 37 c 0
 337 17 327 0 285 0 c 0
 243 0 225 5 174 5 c 0
 123 5 107 0 65 0 c 0
 23 0 12 17 12 37 c 0
 12 57 24 72 49 72 c 0
 63 72 67 67 75 67 c 0
 81 67 86 73 86 84 c 2x6680
262 611 m 2
 262 486 l 2
 262 434 273 409 323 409 c 0
 383 409 441 453 441 548 c 0
 441 643 387 676 326 676 c 0x2d80
 265 676 262 649 262 611 c 2
EndSplineSet
Validated: 1
Substitution2: "'ss01' Style Set 1 in Latin lookup 2-1" R.ss01
EndChar

StartChar: S
Encoding: 83 83 36
Width: 520
VWidth: 1250
Flags: W
HStem: -12 72<158.09 314.273> 671 77<175.32 251.942>
VStem: 40 128<494 650.243> 330 146<121.318 278.5>
AnchorPoint: "Anchor-0" 245 729 basechar 0
AnchorPoint: "Anchor-2" 245 0 basechar 0
LayerCount: 2
Fore
SplineSet
40 552 m 0
 40 671 118 748 240 748 c 0
 362 748 402 680 402 640 c 0
 402 618 381 588 341 588 c 0
 276 588 260 671 215 671 c 0
 185 671 168 650 168 624 c 0
 168 572 236 518 308 469 c 0
 390 414 476 342 476 215 c 0
 476 79 355 -12 225 -12 c 0
 95 -12 28 40 28 102 c 0
 28 140 53 175 105 175 c 0
 197 175 190 60 270 60 c 0
 305 60 330 87 330 128 c 0
 330 197 268 243 199 298 c 0
 122 359 40 436 40 552 c 0
EndSplineSet
Validated: 1
EndChar

StartChar: T
Encoding: 84 84 37
Width: 656
VWidth: 1250
Flags: W
HStem: 0 67<168.87 239 418 487.13> 489 21G<45.5 106 550 610.5> 662 54<161.426 234.115 422.633 492.278>
VStem: 239 179<68.016 658.203>
AnchorPoint: "Anchor-0" 326 729 basechar 0
AnchorPoint: "Anchor-2" 326 0 basechar 0
LayerCount: 2
Fore
SplineSet
239 82 m 2
 239 614 l 2
 239 646 223 662 199 662 c 0
 123 662 148 489 64 489 c 0
 27 489 16 507 16 533 c 0
 16 566 35 611 43 645 c 0
 55 691 55 740 95 740 c 0
 132 740 225 716 324 716 c 0
 423 716 524 740 561 740 c 0
 601 740 601 691 613 645 c 0
 621 611 640 566 640 533 c 0
 640 507 629 489 592 489 c 0
 508 489 533 662 457 662 c 0
 433 662 418 646 418 614 c 2
 418 82 l 2
 418 74 422 68 428 68 c 0
 436 68 439 72 453 72 c 0
 478 72 490 57 490 37 c 0
 490 17 479 0 437 0 c 0
 395 0 379 5 328 5 c 0
 277 5 261 0 219 0 c 0
 177 0 166 17 166 37 c 0
 166 57 178 72 203 72 c 0
 217 72 221 67 229 67 c 0
 235 67 239 71 239 82 c 2
EndSplineSet
Validated: 1
EndChar

StartChar: U
Encoding: 85 85 38
Width: 750
VWidth: 1250
Flags: W
HStem: -12 87<347.965 513.625> 661 68<20.733 92 271 340.937 514.87 585 668 737.13>
VStem: 92 179<160.61 660.996> 585 83<158.656 660.997>
AnchorPoint: "Anchor-3" 430 0 basechar 0
AnchorPoint: "Anchor-2" 405 0 basechar 0
AnchorPoint: "Anchor-0" 424 729 basechar 0
LayerCount: 2
Fore
SplineSet
668 648 m 2
 668 272 l 2
 668 108 580 -12 400 -12 c 0
 220 -12 92 70 92 276 c 2
 92 644 l 2
 92 656 87 661 81 661 c 0
 73 661 70 657 56 657 c 0
 31 657 18 672 18 692 c 0
 18 712 29 729 71 729 c 0
 113 729 119 724 170 724 c 0
 221 724 247 729 289 729 c 0
 331 729 344 712 344 692 c 0
 344 672 331 657 306 657 c 0
 292 657 289 661 281 661 c 0
 275 661 271 657 271 642 c 2
 271 288 l 2
 271 112 348 75 436 75 c 0
 524 75 585 131 585 283 c 2
 585 647 l 2
 585 657 581 661 575 661 c 0
 567 661 563 657 549 657 c 0
 524 657 512 672 512 692 c 0
 512 712 523 729 565 729 c 0
 607 729 614 727 628 727 c 0
 643 727 645 729 687 729 c 0
 729 729 740 712 740 692 c 0
 740 672 728 657 703 657 c 0
 689 657 686 661 678 661 c 0
 672 661 668 657 668 648 c 2
EndSplineSet
Validated: 1
EndChar

StartChar: V
Encoding: 86 86 39
Width: 762
VWidth: 1250
Flags: W
HStem: 0 21G<379.5 422.5> 661 68<4.8699 85.7969 271.005 345.937 510.559 584.996 673.097 761.13>
AnchorPoint: "Anchor-0" 431 729 basechar 0
AnchorPoint: "Anchor-2" 401 0 basechar 0
LayerCount: 2
Fore
SplineSet
273 638 m 2
 393 354 l 2
 412 309 428 291 444 291 c 0
 462 291 477 303 493 352 c 2
 558 548 l 2
 576 602 585 630 585 650 c 0
 585 659 580 661 572 661 c 0
 564 661 559 657 545 657 c 0
 520 657 508 672 508 692 c 0
 508 712 518 729 560 729 c 0
 602 729 614 727 629 727 c 0
 643 727 669 729 711 729 c 0
 753 729 764 712 764 692 c 0
 764 672 752 657 727 657 c 0
 713 657 708 661 694 661 c 0
 682 661 677 658 675 648 c 0
 673 637 669 622 650 569 c 2
 491 116 l 2
 464 40 445 0 400 0 c 4
 359 0 340 37 306 118 c 2
 95 619 l 2
 81 653 75 661 64 661 c 0
 56 661 53 657 39 657 c 0
 14 657 2 672 2 692 c 0
 2 712 13 729 55 729 c 0
 97 729 112 724 163 724 c 0
 214 724 252 729 294 729 c 0
 336 729 349 712 349 692 c 0
 349 672 336 657 311 657 c 0
 297 657 294 661 286 661 c 0
 278 661 271 657 271 648 c 0
 271 644 271 642 273 638 c 2
EndSplineSet
Validated: 1
EndChar

StartChar: W
Encoding: 87 87 40
Width: 1123
VWidth: 1250
Flags: W
HStem: 0 21G<378.5 421.5 740.5 783.5> 661 68<4.8699 85.7969 270.996 345.937 367.559 447.953 634.004 708.123 872.87 947.996 1035.96 1124.27>
AnchorPoint: "Anchor-0" 528 729 basechar 0
AnchorPoint: "Anchor-2" 595 0 basechar 0
LayerCount: 2
Fore
SplineSet
636 638 m 2
 755 354 l 2
 774 309 790 291 806 291 c 0
 824 291 839 303 855 352 c 2
 920 548 l 2
 938 602 948 630 948 650 c 0
 948 659 943 661 935 661 c 0
 927 661 921 657 907 657 c 0
 882 657 870 672 870 692 c 0
 870 712 881 729 923 729 c 0
 965 729 976 727 991 727 c 0
 1005 727 1032 729 1074 729 c 0
 1116 729 1127 712 1127 692 c 0
 1127 672 1114 657 1089 657 c 0
 1075 657 1070 661 1056 661 c 0
 1044 661 1040 658 1038 648 c 0
 1036 637 1031 622 1012 569 c 2
 854 116 l 2
 827 40 806 0 761 0 c 4
 720 0 703 37 669 118 c 2
 606 268 l 2
 593 299 584 312 574 312 c 0
 564 312 556 301 545 270 c 2
 491 116 l 2
 464 40 444 0 399 0 c 0
 358 0 340 37 306 118 c 2
 95 619 l 2
 81 653 75 661 64 661 c 0
 56 661 53 657 39 657 c 0
 14 657 2 672 2 692 c 0
 2 712 13 729 55 729 c 0
 97 729 112 724 163 724 c 0
 214 724 252 729 294 729 c 0
 336 729 349 712 349 692 c 0
 349 672 336 657 311 657 c 0
 297 657 281 661 273 661 c 0
 265 661 271 657 271 648 c 0
 271 644 271 642 273 638 c 2
 393 354 l 2
 412 309 428 291 444 291 c 0
 462 291 473 304 493 352 c 2
 508 388 l 2
 519 422 525 443 525 456 c 0
 525 470 512 501 498 534 c 2
 458 619 l 2
 442 652 438 661 427 661 c 0
 419 661 416 657 402 657 c 0
 377 657 365 672 365 692 c 0
 365 712 375 729 417 729 c 0
 459 729 474 724 525 724 c 0
 576 724 615 729 657 729 c 0
 699 729 711 712 711 692 c 0
 711 672 699 657 674 657 c 0
 660 657 656 661 648 661 c 0
 640 661 634 657 634 648 c 0
 634 644 634 642 636 638 c 2
EndSplineSet
Validated: 1
EndChar

StartChar: X
Encoding: 88 88 41
Width: 698
VWidth: 1250
Flags: W
HStem: 0 72<5.73297 87.75 170.004 242.13 342.559 420.996 604.562 686.267> 661 68<5.73297 83.3438 270.004 342.13 404.87 482.996 567.75 648.13>
AnchorPoint: "Anchor-0" 376 729 basechar 0
AnchorPoint: "Anchor-2" 295 0 basechar 0
LayerCount: 2
Back
SplineSet
172.5 82.603515625 m 2
 170.724609375 79.6376953125 170.125 77.603515625 170.125 75.103515625 c 0
 170.125 70.103515625 176.087890625 67.37890625 181.998046875 67.37890625 c 0
 189.498046875 67.37890625 193.774414062 71.837890625 207.514648438 71.837890625 c 0
 232.020507812 71.837890625 244.844726562 57.369140625 244.844726562 37.3203125 c 0
 244.844726562 17.2705078125 234.004882812 0 191.998046875 0 c 0
 169.23828125 0 160.388671875 2.01171875 132.875976562 2.01171875 c 0
 98.77734375 2.01171875 84.4248046875 0 56.21484375 0 c 0
 14.20703125 0 3.4033203125 17.2705078125 3.4033203125 37.3203125 c 0
 3.4033203125 57.369140625 16.1923828125 71.837890625 40.6982421875 71.837890625 c 0
 54.2490234375 71.837890625 58.248046875 67.5478515625 65.748046875 67.5478515625 c 0
 71.681640625 67.5478515625 76.1865234375 74.13671875 81.25 82.603515625 c 2
 481.25 647.010742188 l 2
 482.51953125 649.1328125 483.145507812 650.103515625 483.145507812 652.603515625 c 0
 483.145507812 657.603515625 477.5 661.474609375 470 661.474609375 c 0
 457.5 661.474609375 453.223632812 657.015625 439.483398438 657.015625 c 0
 414.978515625 657.015625 402.153320312 671.484375 402.153320312 691.533203125 c 0
 402.153320312 711.583007812 412.993164062 728.853515625 455 728.853515625 c 0
 482.573242188 728.853515625 493.29296875 726.841796875 526.622070312 726.841796875 c 4
 556.533203125 726.841796875 573.5390625 728.853515625 598.283203125 728.853515625 c 0
 640.291992188 728.853515625 651.094726562 711.583007812 651.094726562 691.533203125 c 0
 651.094726562 671.484375 638.305664062 657.015625 613.799804688 657.015625 c 0
 600.249023438 657.015625 596.25 661.306640625 588.75 661.306640625 c 0
 582.81640625 661.306640625 577.928710938 655.783203125 572.5 646.709960938 c 2
 172.5 82.603515625 l 2
272.5 646.25 m 2
 610 82.1435546875 l 2
 615.428710938 73.0703125 620.31640625 67.5478515625 626.25 67.5478515625 c 0
 633.75 67.5478515625 637.749023438 71.837890625 651.299804688 71.837890625 c 0
 675.805664062 71.837890625 688.594726562 57.369140625 688.594726562 37.3203125 c 0
 688.594726562 17.2705078125 677.791992188 0 635.783203125 0 c 0
 593.774414062 0 552.40234375 4.51171875 501.622070312 4.51171875 c 0
 450.84375 4.51171875 434.509765625 0 392.5 0 c 0
 350.493164062 0 339.653320312 17.2705078125 339.653320312 37.3203125 c 0
 339.653320312 57.369140625 352.478515625 71.837890625 376.983398438 71.837890625 c 0
 390.723632812 71.837890625 395 67.37890625 407.5 67.37890625 c 0
 415 67.37890625 420.645507812 71.25 420.645507812 76.25 c 0
 420.645507812 78.75 420.01953125 79.720703125 418.75 81.84375 c 2
 81.25 646.25 l 2
 76.1865234375 654.716796875 71.681640625 661.306640625 65.748046875 661.306640625 c 0
 58.248046875 661.306640625 54.2490234375 657.015625 40.6982421875 657.015625 c 0
 16.1923828125 657.015625 3.4033203125 671.484375 3.4033203125 691.533203125 c 0
 3.4033203125 711.583007812 14.20703125 728.853515625 56.21484375 728.853515625 c 0
 98.2236328125 728.853515625 119.595703125 724.341796875 170.375976562 724.341796875 c 0
 221.154296875 724.341796875 249.989257812 728.853515625 291.998046875 728.853515625 c 0
 334.004882812 728.853515625 344.844726562 711.583007812 344.844726562 691.533203125 c 0
 344.844726562 671.484375 332.020507812 657.015625 307.514648438 657.015625 c 0
 293.774414062 657.015625 289.498046875 661.474609375 281.998046875 661.474609375 c 0
 276.087890625 661.474609375 270.125 658.75 270.125 653.75 c 0
 270.125 651.25 270.724609375 649.216796875 272.5 646.25 c 2
EndSplineSet
Fore
SplineSet
172 83 m 2
 170 80 170 77 170 75 c 0
 170 70 176 67 182 67 c 0
 190 67 194 72 208 72 c 0
 233 72 245 57 245 37 c 0
 245 17 234 0 192 0 c 0
 169 0 161 2 133 2 c 0
 99 2 84 0 56 0 c 0
 14 0 3 17 3 37 c 0
 3 57 16 72 41 72 c 0
 55 72 58 68 66 68 c 0
 72 68 76 75 81 83 c 2
 225 292 l 2
 237 309 252 328 252 345 c 0
 252 363 238 382 231 395 c 2
 81 646 l 2
 76 654 72 661 66 661 c 0
 58 661 55 657 41 657 c 0
 16 657 3 672 3 692 c 0
 3 712 14 729 56 729 c 0
 98 729 119 724 170 724 c 0
 221 724 250 729 292 729 c 0
 334 729 345 712 345 692 c 0
 345 672 333 657 308 657 c 0
 294 657 290 661 282 661 c 0
 276 661 270 659 270 654 c 0
 270 652 270 649 272 646 c 2
 340 533 l 2
 350 517 356 505 369 505 c 0
 382 505 394 519 405 535 c 2
 481 647 l 2
 482 649 483 651 483 653 c 0
 483 658 478 661 470 661 c 0
 458 661 453 657 439 657 c 0
 414 657 402 672 402 692 c 0
 402 712 413 729 455 729 c 0
 483 729 494 726 527 726 c 0
 557 726 573 729 598 729 c 0
 640 729 651 712 651 692 c 0
 651 672 639 657 614 657 c 0
 600 657 597 661 589 661 c 0
 583 661 577 656 572 647 c 2
 436 448 l 2
 432 442 421 430 421 413 c 0
 421 397 429 383 436 372 c 2
 610 82 l 2
 615 73 620 68 626 68 c 0
 634 68 637 72 651 72 c 0
 676 72 689 57 689 37 c 0
 689 17 678 0 636 0 c 0
 594 0 553 5 502 5 c 0
 451 5 434 0 392 0 c 0
 350 0 340 17 340 37 c 0
 340 57 352 72 377 72 c 0
 391 72 396 67 408 67 c 0
 416 67 421 71 421 76 c 0
 421 78 420 80 419 82 c 2
 337 218 l 2
 322 243 311 248 304 248 c 0
 295 248 277 236 266 219 c 2
 172 83 l 2
EndSplineSet
Validated: 1
EndChar

StartChar: Y
Encoding: 89 89 42
Width: 698
VWidth: 1250
Flags: W
HStem: 0 67<192.559 263 442 511.013> 661 68<-6.1301 73.7188 270.004 342.13 454.87 531.999 608.831 698.13>
VStem: 263 179<68.1094 398.086>
AnchorPoint: "Anchor-0" 399 729 basechar 0
AnchorPoint: "Anchor-2" 352 0 basechar 0
LayerCount: 2
Fore
SplineSet
442 82 m 2
 442 72 446 68 452 68 c 0
 460 68 464 72 478 72 c 0
 503 72 514 57 514 37 c 0
 514 17 503 0 461 0 c 0
 419 0 403 5 352 5 c 0
 301 5 284 0 242 0 c 0
 200 0 190 17 190 37 c 0
 190 57 202 72 227 72 c 0
 241 72 244 67 252 67 c 0
 258 67 263 73 263 84 c 2
 263 332 l 2
 263 369 252 383 220 429 c 2
 69 646 l 2
 63 654 59 661 53 661 c 0
 45 661 42 657 28 657 c 0
 3 657 -9 672 -9 692 c 0
 -9 712 2 729 44 729 c 0
 86 729 119 724 170 724 c 0
 221 724 250 729 292 729 c 0
 334 729 345 712 345 692 c 0
 345 672 333 657 308 657 c 0
 294 657 290 661 282 661 c 0
 276 661 270 659 270 654 c 0
 270 644 278 630 303 594 c 2
 361 512 l 2
 378 488 387 474 407 474 c 0
 427 474 439 495 449 511 c 2
 528 640 l 2
 532 647 532 650 532 652 c 0
 532 657 530 661 522 661 c 0
 510 661 503 657 489 657 c 0
 464 657 452 672 452 692 c 0
 452 712 463 729 505 729 c 0
 533 729 544 727 577 727 c 0
 607 727 623 729 648 729 c 0
 690 729 701 712 701 692 c 0
 701 672 689 657 664 657 c 0
 650 657 642 661 634 661 c 0
 622 661 615 649 600 625 c 2
 480 436 l 2
 459 402 442 371 442 332 c 2
 442 82 l 2
EndSplineSet
Validated: 1
EndChar

StartChar: Z
Encoding: 90 90 43
Width: 625
VWidth: 1250
Flags: W
HStem: 0 70<251.014 430.891> 660 69<223.189 371.99>
VStem: 17 234<19.5 96> 372 213<634.498 706>
AnchorPoint: "Anchor-0" 370 729 basechar 0
AnchorPoint: "Anchor-2" 308 0 basechar 0
LayerCount: 2
Fore
SplineSet
365 70 m 6
 414 70 427 87 455 114 c 4
 507 165 512 208 570 208 c 4
 592 208 608 188 608 162 c 4
 608 136 588 122 568 78 c 4
 548 34 551 -25 495 -25 c 4
 444 -25 448 0 384 0 c 6
 48 0 l 6
 28 0 17 11 17 28 c 4
 17 42 21 53 31 70 c 14
 361 615 l 6
 368 627 372 636 372 643 c 4
 372 656 359 660 334 660 c 6
 269 660 l 6
 238 660 224 645 199 602 c 4
 174 559 143 526 101 526 c 4
 67 526 61 544 61 560 c 4
 61 586 86 623 108 672 c 4
 130 721 139 748 174 748 c 4
 209 748 210 729 279 729 c 6
 535 729 l 6
 571 729 585 717 585 695 c 4
 585 673 571 645 532 580 c 14
 264 125 l 6
 255 110 251 100 251 92 c 4
 251 74 270 70 295 70 c 6
 365 70 l 6
EndSplineSet
Validated: 1
Substitution2: "'ss01' Style Set 1 in Latin lookup 2-1" Z.ss01
EndChar

StartChar: a
Encoding: 97 97 44
Width: 528
VWidth: 1250
Flags: W
HStem: -12 80<380 485.222> 31 31<264.386 281.032> 289 60<167.168 281.743> 289 43<200.088 286.375> 432 58<190.451 277.167>
VStem: 6 166<87.5478 259.284> 298 156<89.5034 403.217> 298 144<73.2677 278.507>
AnchorPoint: "Anchor-3" 451 0 basechar 0
AnchorPoint: "Anchor-2" 250 0 basechar 0
AnchorPoint: "Anchor-0" 250 479 basechar 0
LayerCount: 2
Fore
SplineSet
241 289 m 0x6e
 186 289 172 227 172 175 c 0
 172 123 189 62 239 62 c 0
 280 62 298 90 298 120 c 2
 298 218 l 2
 298 257 286 289 241 289 c 0x6e
118 368 m 0
 92 368 78 389 78 409 c 0
 78 467 168 490 238 490 c 0
 403 490 454 408 454 308 c 0x1e
 454 219 442 119 442 88 c 0
 442 77 449 68 460 68 c 0
 479 68 480 100 508 100 c 0
 528 100 536 87 536 69 c 0
 536 33 482 -12 424 -12 c 0x9d
 336 -12 328 31 300 31 c 0x4d
 272 31 244 -12 169 -12 c 0
 113 -12 6 26 6 175 c 0
 6 310 138 349 198 349 c 0xad
 243 349 259 332 278 332 c 0x1d
 288 332 294 342 294 361 c 0
 294 389 281 432 239 432 c 0
 184 432 177 368 118 368 c 0
EndSplineSet
Validated: 1
Substitution2: "'ss01' Style Set 1 in Latin lookup 2-1" a.ss01
Substitution2: "'ss02' Style Set 2 in Latin lookup 3-1" a.ss02
EndChar

StartChar: b
Encoding: 98 98 45
Width: 620
VWidth: 1250
Flags: W
HStem: -12 54<251.934 351.965> 0 70<39.8314 84> 416 42<262.25 318.124> 681 68<13.8699 84>
VStem: 84 157<70.9974 396.25 458.014 680.998> 416 168<145.635 366.555>
AnchorPoint: "Anchor-2" 319 0 basechar 0
AnchorPoint: "Anchor-0" 142 749 basechar 0
LayerCount: 2
Fore
SplineSet
241 122 m 2xbc
 241 60 259 42 300 42 c 0
 341 42 416 92 416 248 c 0
 416 404 350 416 312 416 c 0
 274 416 241 390 241 336 c 2
 241 122 l 2xbc
142 746 m 0
 158 746 172 749 194 749 c 0
 216 749 236 737 236 705 c 2
 236 496 l 2
 236 477 242 458 261 458 c 0
 286 458 314 490 390 490 c 0
 444 490 584 464 584 266 c 0
 584 52 424 -12 314 -12 c 0xbc
 242 -12 222 0 159 0 c 2
 62 0 l 2
 25 0 4 12 4 41 c 0
 4 67 24 77 39 77 c 0
 57 77 58 70 70 70 c 0x7c
 80 70 84 79 84 90 c 2
 84 666 l 2
 84 678 79 681 73 681 c 0
 65 681 62 677 48 677 c 0
 23 677 11 692 11 712 c 0
 11 732 22 749 64 749 c 0
 106 749 106 746 142 746 c 0
EndSplineSet
Validated: 1
EndChar

StartChar: c
Encoding: 99 99 46
Width: 496
VWidth: 1250
Flags: W
HStem: -12 70<244.538 355.282> 425 65<245.048 336.291>
VStem: 20 178<119.081 345.604>
AnchorPoint: "Anchor-0" 290 479 basechar 0
AnchorPoint: "Anchor-2" 288 0 basechar 0
LayerCount: 2
Fore
SplineSet
304 58 m 0
 382 58 364 147 442 147 c 0
 466 147 482 128 482 102 c 0
 482 45 389 -12 286 -12 c 0
 117 -12 20 71 20 232 c 0
 20 407 146 490 284 490 c 4
 391 490 469 445 469 384 c 4
 469 357 444 334 416 334 c 4
 352 334 356 425 292 425 c 4
 234 425 198 352 198 229 c 0
 198 114 233 58 304 58 c 0
EndSplineSet
Validated: 1
EndChar

StartChar: d
Encoding: 100 100 47
Width: 636
VWidth: 1250
Flags: W
HStem: 0 68<541 619.441> 31 29<310 382> 424 66<244.353 359.919> 681 68<310.733 384>
VStem: 21 179<131.915 358.262> 384 157<81.0857 398.938 471.006 680.998>
AnchorPoint: "Anchor-0" 442 749 basechar 0
AnchorPoint: "Anchor-2" 256 0 basechar 0
LayerCount: 2
Fore
SplineSet
200 266 m 4x7c
 200 160 228 60 310 60 c 4
 386 60 388 136 388 190 c 6
 388 304 l 6
 388 372 368 424 302 424 c 4
 222 424 200 340 200 266 c 4x7c
428 0 m 4xbc
 400 0 400 31 382 31 c 4x7c
 360 31 340 -12 251 -12 c 4
 96 -12 21 115 21 245 c 4
 21 410 127 490 265 490 c 4
 337 490 354 471 369 471 c 4
 378 471 384 479 384 495 c 6
 384 666 l 6
 384 678 379 681 373 681 c 4
 365 681 360 677 346 677 c 4
 321 677 308 692 308 712 c 4
 308 732 319 749 361 749 c 4
 403 749 409 746 445 746 c 4
 461 746 477 749 499 749 c 4
 521 749 541 737 541 705 c 6
 541 82 l 6
 541 73 548 68 554 68 c 4
 562 68 571 72 585 72 c 4
 610 72 622 57 622 37 c 4
 622 17 612 0 570 0 c 4
 534 0 525 5 496 5 c 4
 464 5 456 0 428 0 c 4xbc
EndSplineSet
Validated: 1
EndChar

StartChar: e
Encoding: 101 101 48
Width: 521
VWidth: 1250
Flags: W
HStem: -12 70<242.631 368.269> 280 64<219.387 361.993> 426 64<238.265 345.248>
VStem: 16 182<135.1 268.131> 362 133<306.5 396.899>
AnchorPoint: "Anchor-3" 345 0 basechar 0
AnchorPoint: "Anchor-2" 288 0 basechar 0
AnchorPoint: "Anchor-0" 282 479 basechar 0
LayerCount: 2
Fore
SplineSet
304 58 m 0
 407 58 376 150 454 150 c 0
 478 150 495 132 495 106 c 0
 495 49 414 -12 286 -12 c 0
 125 -12 16 90 16 240 c 0
 16 377 137 490 290 490 c 0
 409 490 495 414 495 318 c 0
 495 295 474 280 442 280 c 2
 255 280 l 2
 215 280 198 259 198 212 c 0
 198 114 237 58 304 58 c 0
291 426 m 0
 248 426 219 397 219 366 c 0
 219 352 229 344 246 344 c 2
 331 344 l 2
 353 344 362 350 362 366 c 0
 362 399 335 426 291 426 c 0
EndSplineSet
Validated: 1
EndChar

StartChar: f
Encoding: 102 102 49
Width: 375
VWidth: 1250
Flags: W
HStem: 0 67<25.733 96 249 318.13> 402 77<21.0251 95.9305 249.075 346.98> 672 80<251.052 339.573>
VStem: 96 153<68.016 404.947 475.02 597.02>
AnchorPoint: "Anchor-0" 292 749 basechar 0
AnchorPoint: "Anchor-2" 169 0 basechar 0
LayerCount: 2
Back
SplineSet
25 437.5 m 4
 25 462.5 40 477.5 71.25 477.5 c 4
 98.75 477.5 118.75 466.25 202.5 466.25 c 4
 286.25 466.25 293.75 477.5 321.25 477.5 c 4
 352.5 477.5 367.5 462.5 367.5 437.5 c 4
 367.5 412.5 352.5 397.5 321.25 397.5 c 4
 293.75 397.5 286.25 408.75 202.5 408.75 c 4
 118.75 408.75 98.75 397.5 71.25 397.5 c 4
 40 397.5 25 412.5 25 437.5 c 4
EndSplineSet
Fore
SplineSet
249 82 m 2
 249 74 253 68 259 68 c 0
 267 68 270 72 284 72 c 0
 309 72 321 57 321 37 c 0
 321 17 310 0 268 0 c 0
 226 0 215 5 170 5 c 0
 125 5 118 0 76 0 c 0
 34 0 23 17 23 37 c 0
 23 57 36 72 61 72 c 0
 75 72 78 67 86 67 c 0
 92 67 96 71 96 82 c 2
 96 397 l 2
 96 404 94 408 89 408 c 0
 83 408 71 402 55 402 c 0
 34 402 18 415 18 440 c 0
 18 465 33 479 55 479 c 0
 71 479 82 473 90 473 c 0
 94 473 97 474 97 479 c 1
 102 629 178 752 295 752 c 0
 334 752 370 735 370 691 c 0
 370 669 354 650 325 650 c 0
 296 650 293 672 274 672 c 0
 254 672 246 654 246 625 c 2
 248 482 l 2
 248 476 251 475 260 475 c 0
 269 475 291 479 305 479 c 0
 336 479 350 465 350 440 c 0
 350 415 335 402 304 402 c 0
 292 402 270 405 262 405 c 0
 251 405 249 400 249 386 c 2
 249 82 l 2
EndSplineSet
Validated: 1
EndChar

StartChar: g
Encoding: 103 103 50
Width: 538
VWidth: 1250
Flags: W
HStem: -175 49<226.023 340.148> -12 37<233.307 285.781> 435 61<225.367 314.802>
VStem: 18 167<194.961 375.4> 160 55<-113.66 -38.7247> 172 37<50 92> 314 102<459.918 550> 354 141<-109.116 -19.105> 355 161<202.567 389.167>
AnchorPoint: "Anchor-2" 268 -162 basechar 0
AnchorPoint: "Anchor-0" 230 539 basechar 0
LayerCount: 2
Fore
SplineSet
444 444 m 0xe2
 474 420 448 381 399 406 c 0
 377 417 314 460 314 520 c 0
 314 580 356 605 402 605 c 0
 448 605 490 582 490 542 c 0
 490 478 416 507 416 478 c 0
 416 464 430 455 444 444 c 0xe2
EndSplineSet
Refer: 74 -1 N 1 0 0 1 0 0 2
Validated: 37
Substitution2: "'ss01' Style Set 1 in Latin lookup 2-1" g.ss01
EndChar

StartChar: h
Encoding: 104 104 51
Width: 627
VWidth: 1250
Flags: W
HStem: 0 72<8.8699 79 230 283.164 344.836 399 549 618.13> 402 48<248.934 292.791> 681 68<8.8699 79>
VStem: 79 151<68.125 383.201 450.01 680.998> 399 150<68.125 366.801>
AnchorPoint: "Anchor-0" 142 749 basechar 0
AnchorPoint: "Anchor-2" 314 0 basechar 0
LayerCount: 2
Fore
SplineSet
549 82 m 2
 549 73 553 68 559 68 c 0
 567 68 570 72 584 72 c 0
 609 72 621 57 621 37 c 0
 621 17 610 0 568 0 c 0
 526 0 519 5 474 5 c 0
 429 5 437 0 395 0 c 0
 353 0 342 17 342 37 c 0
 342 57 351 72 367 72 c 0
 381 72 384 67 392 67 c 0
 398 67 399 73 399 85 c 2
 399 279 l 2
 399 380 349 402 304 402 c 0
 259 402 230 374 230 326 c 2
 230 82 l 2
 230 73 230 68 236 68 c 0
 244 68 247 72 261 72 c 0
 277 72 286 57 286 37 c 0
 286 17 275 0 233 0 c 0
 191 0 204 5 159 5 c 0
 114 5 101 0 59 0 c 0
 17 0 6 17 6 37 c 0
 6 57 18 72 43 72 c 0
 57 72 61 67 69 67 c 0
 75 67 79 73 79 85 c 2
 79 666 l 2
 79 678 74 681 68 681 c 0
 60 681 57 677 43 677 c 0
 18 677 6 692 6 712 c 0
 6 732 17 749 59 749 c 0
 101 749 106 746 142 746 c 4
 158 746 167 749 189 749 c 0
 211 749 231 738 231 705 c 2
 231 484 l 2
 231 463 235 450 250 450 c 0
 278 450 284 490 380 490 c 0
 476 490 549 416 549 304 c 2
 549 82 l 2
EndSplineSet
Validated: 1
EndChar

StartChar: i
Encoding: 105 105 52
Width: 320
VWidth: 1250
Flags: W
HStem: 0 67<13.8699 84 236 306.267> 411 68<11.7781 84> 528 168<117.296 188.694>
VStem: 84 152<68.016 410.998>
AnchorPoint: "Anchor-3" 234 0 basechar 0
AnchorPoint: "Anchor-2" 158 0 basechar 0
LayerCount: 2
Back
SplineSet
236.25 396.25 m 6
 236.25 405 240.31640625 411.202148438 246.25 411.202148438 c 4
 253.75 411.202148438 257.749023438 406.912109375 271.299804688 406.912109375 c 4
 295.805664062 406.912109375 308.594726562 421.380859375 308.594726562 441.4296875 c 4
 308.594726562 461.479492188 297.791992188 478.75 255.783203125 478.75 c 4
 213.774414062 478.75 202.40234375 474.23828125 157.872070312 474.23828125 c 4
 113.34375 474.23828125 105.759765625 478.75 63.75 478.75 c 4
 21.7431640625 478.75 10.9033203125 461.479492188 10.9033203125 441.4296875 c 4
 10.9033203125 421.380859375 23.728515625 406.912109375 48.2333984375 406.912109375 c 4
 61.9736328125 406.912109375 66.25 411.37109375 73.75 411.37109375 c 4
 79.6923828125 411.37109375 83.75 407.5 83.75 396.25 c 6
 83.75 82.5 l 2
 83.75 71.25 79.6923828125 67.37890625 73.75 67.37890625 c 0
 66.25 67.37890625 61.9736328125 71.837890625 48.2333984375 71.837890625 c 0
 23.728515625 71.837890625 10.9033203125 57.369140625 10.9033203125 37.3203125 c 0
 10.9033203125 17.2705078125 21.7431640625 0 63.75 0 c 0
 105.759765625 0 113.34375 4.51171875 157.872070312 4.51171875 c 0
 202.40234375 4.51171875 213.774414062 0 255.783203125 0 c 0
 297.791992188 0 308.594726562 17.2705078125 308.594726562 37.3203125 c 0
 308.594726562 57.369140625 295.805664062 71.837890625 271.299804688 71.837890625 c 0
 257.749023438 71.837890625 253.75 67.5478515625 246.25 67.5478515625 c 0xf0
 240.31640625 67.5478515625 236.25 73.75 236.25 82.5 c 2xe8
 236.25 396.25 l 6
EndSplineSet
Fore
SplineSet
84 396 m 2
 84 408 78 411 72 411 c 0
 64 411 60 407 46 407 c 0
 21 407 8 422 8 442 c 0
 8 462 26 479 60 479 c 0
 91 479 104 476 134 476 c 0
 163 476 174 479 200 479 c 0
 224 479 236 467 236 435 c 2
 236 82 l 2
 236 73 240 68 246 68 c 0
 254 68 257 72 271 72 c 0
 296 72 309 57 309 37 c 0
 309 17 298 0 256 0 c 0
 214 0 203 5 158 5 c 0
 113 5 106 0 64 0 c 0
 22 0 11 17 11 37 c 0
 11 57 23 72 48 72 c 0
 62 72 66 67 74 67 c 0
 80 67 84 71 84 82 c 2
 84 396 l 2
57 586 m 0
 57 643 129 696 185 696 c 0
 225 696 246 670 246 638 c 0
 246 581 179 528 123 528 c 0
 74 528 57 554 57 586 c 0
EndSplineSet
Validated: 1
EndChar

StartChar: j
Encoding: 106 106 53
Width: 306
VWidth: 1250
Flags: W
HStem: -175 89<-49.0239 51.3801> 411 68<0.199017 70 222 291.801> 528 168<117.296 188.694>
VStem: 70 152<-10.8906 410.996>
AnchorPoint: "Anchor-2" 0 -162 basechar 0
LayerCount: 2
Fore
SplineSet
57 586 m 0
 57 643 129 696 185 696 c 0
 225 696 246 670 246 638 c 0
 246 581 179 528 123 528 c 0
 74 528 57 554 57 586 c 0
222 396 m 2
 222 85 l 6
 222 -46 101 -175 -5 -175 c 4
 -44 -175 -80 -155 -80 -114 c 4
 -80 -92 -64 -70 -35 -70 c 4
 -6 -70 -3 -86 21 -86 c 4
 42 -86 70 -62 70 24 c 6
 70 396 l 2
 70 407 66 411 60 411 c 0
 52 411 48 407 34 407 c 0
 9 407 -3 421 -3 441 c 0
 -3 461 8 479 50 479 c 0
 92 479 99 474 144 474 c 0
 189 474 200 479 242 479 c 0
 284 479 295 461 295 441 c 0
 295 421 283 407 258 407 c 0
 244 407 240 411 232 411 c 0
 226 411 222 405 222 396 c 2
EndSplineSet
Validated: 1
EndChar

StartChar: k
Encoding: 107 107 54
Width: 633
VWidth: 1250
Flags: W
HStem: 0 67<18.8699 89 241 293.164 335.358 381.999 536.625 614.441> 261 50<241.373 287.438> 388 102<437.91 541.625> 681 68<18.8697 89>
VStem: 89 152<68.0156 260.965 311.009 680.997>
AnchorPoint: "Anchor-2" 314 0 basechar 0
AnchorPoint: "Anchor-0" 142 749 basechar 0
LayerCount: 2
Fore
SplineSet
241 82 m 6
 241 73 243 68 249 68 c 4
 257 68 257 72 271 72 c 4
 287 72 296 57 296 37 c 4
 296 17 285 0 243 0 c 4
 201 0 214 5 169 5 c 4
 124 5 111 0 69 0 c 4
 27 0 16 17 16 37 c 4
 16 57 28 72 53 72 c 4
 67 72 71 67 79 67 c 4
 85 67 89 73 89 78 c 6
 89 666 l 6
 89 677 85 681 78 681 c 4
 67 681 64 677 53 677 c 4
 30 677 16 691 16 712 c 4
 16 737 33 749 69 749 c 4
 108 749 113 746 152 746 c 4
 171 746 180 749 199 749 c 4
 226 749 241 733 241 705 c 6
 241 334 l 6
 241 323 244 311 254 311 c 4
 264 311 268 315 279 325 c 6
 414 449 l 6
 447 479 474 490 512 490 c 4
 566 490 590 458 590 418 c 4
 590 381 567 359 529 359 c 4
 493 359 475 388 439 388 c 4
 416 388 404 370 404 355 c 4
 404 336 413 316 432 281 c 6
 540 81 l 6
 545 72 548 68 554 68 c 4
 563 68 566 72 580 72 c 4
 605 72 617 57 617 37 c 4
 617 17 607 0 565 0 c 4
 523 0 507 5 475 5 c 4
 445 5 431 0 389 0 c 4
 347 0 330 15 330 46 c 4
 330 58 339 69 355 69 c 4
 362 69 366 67 374 67 c 4
 380 67 382 70 382 74 c 4
 382 76 381 80 380 82 c 6
 288 242 l 6
 281 255 275 261 264 261 c 4
 249 261 241 249 241 234 c 6
 241 82 l 6
EndSplineSet
Validated: 1
Substitution2: "'ss01' Style Set 1 in Latin lookup 2-1" k.ss01
EndChar

StartChar: l
Encoding: 108 108 55
Width: 330
VWidth: 1250
Flags: W
HStem: 0 67<13.8699 84 246 316.267> 682 67<11.7781 84>
VStem: 84 162<68.016 681.997>
AnchorPoint: "Anchor-0" 139 749 basechar 0
AnchorPoint: "Anchor-2" 164 0 basechar 0
LayerCount: 2
Fore
SplineSet
84 666 m 2
 84 678 78 682 72 682 c 0
 64 682 60 677 46 677 c 0
 21 677 8 692 8 712 c 0
 8 732 26 749 60 749 c 0
 91 749 109 746 139 746 c 0
 168 746 184 749 210 749 c 0
 234 749 246 737 246 705 c 2
 246 82 l 2
 246 73 250 68 256 68 c 0
 264 68 267 72 281 72 c 0
 306 72 319 57 319 37 c 0
 319 17 308 0 266 0 c 0
 224 0 208 5 163 5 c 0
 118 5 106 0 64 0 c 0
 22 0 11 17 11 37 c 0
 11 57 23 72 48 72 c 0
 62 72 66 67 74 67 c 0
 80 67 84 71 84 82 c 2
 84 666 l 2
EndSplineSet
Validated: 1
EndChar

StartChar: m
Encoding: 109 109 56
Width: 933
VWidth: 1250
Flags: W
HStem: 0 72<8.8699 79 230 283.164 339.836 394 544 597.416 653.836 708 858 927.13> 409 81<284.135 415.823 571.916 730.823> 409 41<250.125 287> 411 68<9.19902 79>
VStem: 79 151<68.125 389.725> 394 150<67.0044 375.311> 708 150<68.125 375.311>
AnchorPoint: "Anchor-2" 462 0 basechar 0
AnchorPoint: "Anchor-0" 515 479 basechar 0
LayerCount: 2
Fore
SplineSet
79 85 m 2xce
 79 397 l 2
 79 410 74 411 68 411 c 0
 60 411 57 407 43 407 c 0
 18 407 6 421 6 441 c 0
 6 461 17 479 59 479 c 0
 101 479 106 476 136 476 c 0
 165 476 177 479 205 479 c 0x9e
 225 479 231 475 231 466 c 0
 231 456 235 450 250 450 c 0xae
 278 450 279 490 375 490 c 0
 469 490 491 442 515 442 c 0
 544 442 567 490 689 490 c 0
 785 490 858 422 858 310 c 2
 858 82 l 2
 858 73 862 68 868 68 c 0
 876 68 879 72 893 72 c 0
 918 72 930 57 930 37 c 0
 930 17 919 0 877 0 c 0
 835 0 828 5 783 5 c 0
 738 5 746 0 704 0 c 0
 662 0 651 17 651 37 c 0
 651 57 660 72 676 72 c 0
 690 72 693 67 701 67 c 0
 707 67 708 73 708 85 c 2
 708 285 l 2
 708 386 663 409 618 409 c 0
 573 409 544 380 544 332 c 2
 544 82 l 2
 544 70 544 67 550 67 c 0
 558 67 562 72 576 72 c 0
 592 72 600 57 600 37 c 0
 600 17 590 0 548 0 c 0
 506 0 514 5 469 5 c 0
 424 5 432 0 390 0 c 0
 348 0 337 17 337 37 c 0
 337 57 346 72 362 72 c 0
 376 72 380 67 388 67 c 0
 394 67 394 73 394 85 c 2
 394 285 l 2
 394 386 349 409 304 409 c 0
 259 409 230 380 230 332 c 2
 230 82 l 2
 230 73 230 68 236 68 c 0
 244 68 247 72 261 72 c 0
 277 72 286 57 286 37 c 0
 286 17 275 0 233 0 c 0
 191 0 204 5 159 5 c 0
 114 5 101 0 59 0 c 0
 17 0 6 17 6 37 c 0
 6 57 18 72 43 72 c 0
 57 72 61 67 69 67 c 0
 75 67 79 73 79 85 c 2xce
EndSplineSet
Validated: 1
EndChar

StartChar: n
Encoding: 110 110 57
Width: 627
VWidth: 1250
Flags: W
HStem: 0 72<8.8699 79 230 283.164 344.836 399 549 618.13> 402 42<250.125 286.409> 411 68<9.19902 79>
VStem: 79 151<68.125 383.201> 399 150<68.125 366.801>
AnchorPoint: "Anchor-2" 314 0 basechar 0
AnchorPoint: "Anchor-0" 294 479 basechar 0
LayerCount: 2
Fore
SplineSet
399 85 m 2xd8
 399 279 l 2
 399 380 349 402 304 402 c 0xd8
 259 402 230 374 230 326 c 2
 230 82 l 2
 230 73 230 68 236 68 c 0
 244 68 247 72 261 72 c 0
 277 72 286 57 286 37 c 0
 286 17 275 0 233 0 c 0
 191 0 204 5 159 5 c 0
 114 5 101 0 59 0 c 0
 17 0 6 17 6 37 c 0
 6 57 18 72 43 72 c 0
 57 72 61 67 69 67 c 0
 75 67 79 73 79 85 c 2
 79 396 l 2
 79 409 74 411 68 411 c 0
 60 411 57 407 43 407 c 0
 18 407 6 421 6 441 c 0
 6 461 17 479 59 479 c 0
 101 479 106 476 136 476 c 0
 165 476 177 479 205 479 c 0xb8
 225 479 231 471 231 462 c 0
 231 452 235 444 250 444 c 0
 278 444 284 490 380 490 c 0
 476 490 549 416 549 304 c 2
 549 82 l 2
 549 73 553 68 559 68 c 0
 567 68 570 72 584 72 c 0
 609 72 621 57 621 37 c 0
 621 17 610 0 568 0 c 0
 526 0 519 5 474 5 c 0
 429 5 437 0 395 0 c 0
 353 0 342 17 342 37 c 0
 342 57 351 72 367 72 c 0
 381 72 384 67 392 67 c 0
 398 67 399 73 399 85 c 2xd8
EndSplineSet
Validated: 1
EndChar

StartChar: o
Encoding: 111 111 58
Width: 570
VWidth: 1250
Flags: W
HStem: -12 64<232.824 331.176> 426 64<232.824 331.176>
VStem: 21 165<134.324 342.105> 378 165<134.324 342.105>
AnchorPoint: "Anchor-3" 332 0 basechar 0
AnchorPoint: "Anchor-2" 281 0 basechar 0
AnchorPoint: "Anchor-0" 282 479 basechar 0
LayerCount: 2
Fore
SplineSet
282 426 m 0
 222 426 186 360 186 238 c 0
 186 116 222 52 282 52 c 0
 342 52 378 116 378 238 c 0
 378 360 342 426 282 426 c 0
282 490 m 0
 431 490 543 388 543 238 c 0
 543 88 431 -12 282 -12 c 0
 133 -12 21 88 21 238 c 0
 21 388 133 490 282 490 c 0
EndSplineSet
Validated: 1
EndChar

StartChar: p
Encoding: 112 112 59
Width: 630
VWidth: 1250
Flags: W
HStem: -145 67<8.8699 79 239 304.441> 11 40<257.9 319.951> 411 68<9.19902 79> 412 36<257.97 283.11>
VStem: 79 156<-76.875 10.9934 71.1312 393.362> 422 179<121.49 348.581>
AnchorPoint: "Anchor-2" 155 -145 basechar 0
AnchorPoint: "Anchor-0" 321 479 basechar 0
LayerCount: 2
Fore
SplineSet
422 225 m 0xdc
 422 331 389 412 316 412 c 0
 249 412 235 374 235 320 c 2
 235 166 l 2
 235 79 255 51 317 51 c 0
 388 51 422 151 422 225 c 0xdc
239 -62 m 2
 239 -71 239 -77 245 -77 c 0
 253 -77 256 -73 270 -73 c 0
 295 -73 307 -88 307 -108 c 0
 307 -128 297 -145 255 -145 c 0
 213 -145 202 -140 157 -140 c 0
 112 -140 101 -145 59 -145 c 0
 17 -145 6 -128 6 -108 c 0
 6 -88 18 -73 43 -73 c 0
 57 -73 61 -78 69 -78 c 0
 75 -78 79 -72 79 -60 c 2
 79 396 l 2
 79 408 74 411 68 411 c 0
 60 411 57 407 43 407 c 0
 18 407 6 421 6 441 c 0
 6 461 17 479 59 479 c 0
 101 479 106 476 136 476 c 0
 165 476 177 479 205 479 c 0xec
 225 479 231 474 231 465 c 0
 231 455 235 448 250 448 c 0
 279 448 281 490 382 490 c 0
 537 490 601 383 601 235 c 0
 601 87 511 -12 360 -12 c 0
 294 -12 269 11 254 11 c 0
 239 11 239 2 239 -18 c 2
 239 -62 l 2
EndSplineSet
EndChar

StartChar: q
Encoding: 113 113 60
Width: 630
VWidth: 1250
Flags: W
HStem: -145 67<548 618.13> 11 40<307.049 369.1> 411 68<548 617.801> 412 36<343.89 363.617>
VStem: 26 179<121.765 349.001> 392 156<-77.9956 10.9934 71.1312 386.455>
AnchorPoint: "Anchor-2" 508 -145 basechar 0
AnchorPoint: "Anchor-0" 318 479 basechar 0
LayerCount: 2
Back
SplineSet
204.653320312 231.25 m 4
 204.653320312 157.5 239.671875 57.5 310.47265625 57.5 c 4
 372.459960938 57.5 392.153320312 85.2265625 392.153320312 172.5 c 6
 392.153320312 320 l 6
 392.153320312 373.75 379.060546875 418.75 311.578125 418.75 c 4
 238.565429688 418.75 204.653320312 337.5 204.653320312 231.25 c 4
388.403320312 -62.396484375 m 6
 388.403320312 -11.25 l 6
 388.403320312 8.75 388.403320312 17.5 373.403320312 17.5 c 4
 358.403320312 17.5 333.403320312 -5.3955078125 267.153320312 -5.3955078125 c 4
 115.903320312 -5.3955078125 25.9033203125 87.5 25.9033203125 235 c 4
 25.9033203125 382.5 89.6533203125 496.25 244.653320312 496.25 c 4
 345.903320312 496.25 348.403320312 456.25 377.153320312 456.25 c 4
 392.153320312 456.25 395.767578125 465 395.767578125 475 c 4
 395.767578125 483.75 402.153320312 496.25 422.153320312 496.25 c 4
 449.653320312 496.25 462.153320312 493.646484375 490.903320312 493.646484375 c 4
 520.903320312 493.646484375 526.39453125 496.25 568.403320312 496.25 c 4
 610.411132812 496.25 621.25 478.979492188 621.25 458.9296875 c 4
 621.25 438.880859375 608.4609375 424.412109375 583.955078125 424.412109375 c 4
 570.404296875 424.412109375 566.405273438 428.702148438 558.905273438 428.702148438 c 4
 552.970703125 428.702148438 548.403320312 426.25 548.403320312 413.75 c 6
 548.403320312 -59.896484375 l 6
 548.403320312 -72.396484375 552.4609375 -77.517578125 558.403320312 -77.517578125 c 4
 565.903320312 -77.517578125 570.1796875 -73.0576171875 583.919921875 -73.0576171875 c 4
 608.42578125 -73.0576171875 621.25 -87.52734375 621.25 -107.576171875 c 4
 621.25 -127.625976562 610.41015625 -144.896484375 568.403320312 -144.896484375 c 4
 526.39453125 -144.896484375 515.059570312 -140.384765625 470.53125 -140.384765625 c 4
 426.000976562 -140.384765625 414.62890625 -144.896484375 372.619140625 -144.896484375 c 4
 330.611328125 -144.896484375 319.80859375 -127.625976562 319.80859375 -107.576171875 c 4
 319.80859375 -87.52734375 332.59765625 -73.0576171875 357.103515625 -73.0576171875 c 4
 370.654296875 -73.0576171875 374.653320312 -77.3486328125 382.153320312 -77.3486328125 c 4
 388.086914062 -77.3486328125 388.403320312 -71.146484375 388.403320312 -62.396484375 c 6
EndSplineSet
Fore
SplineSet
205 225 m 0xdc
 205 151 239 51 310 51 c 0
 372 51 392 79 392 166 c 2
 392 302 l 2
 392 356 379 412 312 412 c 0
 239 412 205 331 205 225 c 0xdc
388 -110 m 2
 388 -18 l 2
 388 2 388 11 373 11 c 0
 358 11 333 -12 267 -12 c 0
 116 -12 26 81 26 229 c 0
 26 377 90 490 245 490 c 0
 346 490 348 448 377 448 c 0xdc
 392 448 396 454 396 464 c 0
 396 473 402 479 422 479 c 0
 450 479 462 476 491 476 c 0
 521 476 526 479 568 479 c 0
 610 479 621 461 621 441 c 0
 621 421 609 407 584 407 c 0
 570 407 567 411 559 411 c 0xec
 553 411 548 408 548 396 c 2
 548 -60 l 2
 548 -72 552 -78 558 -78 c 0
 566 -78 570 -73 584 -73 c 0
 609 -73 621 -88 621 -108 c 0
 621 -128 610 -145 568 -145 c 0
 542 -145 535 -140 508 -140 c 0
 477 -140 469 -145 422 -145 c 0
 398 -145 388 -131 388 -110 c 2
EndSplineSet
EndChar

StartChar: r
Encoding: 114 114 61
Width: 457
VWidth: 1250
Flags: W
HStem: 0 67<8.8699 79 230 296.267> 352 138<345.762 430.076> 409 41<244.305 286> 411 68<9.19902 79>
VStem: 79 151<68.125 396.321>
AnchorPoint: "Anchor-0" 245 479 basechar 0
AnchorPoint: "Anchor-2" 254 0 basechar 0
LayerCount: 2
Fore
SplineSet
292 409 m 0xa8
 247 409 230 380 230 332 c 2
 230 82 l 2
 230 73 230 68 236 68 c 0
 244 68 247 72 261 72 c 0
 286 72 299 57 299 37 c 0
 299 17 288 0 246 0 c 0
 204 0 204 5 159 5 c 0
 114 5 101 0 59 0 c 0
 17 0 6 17 6 37 c 0
 6 57 18 72 43 72 c 0
 57 72 61 67 69 67 c 0
 75 67 79 73 79 85 c 2
 79 395 l 2
 79 407 74 411 68 411 c 0
 60 411 57 407 43 407 c 0
 18 407 6 421 6 441 c 0
 6 461 17 479 59 479 c 0
 101 479 106 476 136 476 c 0
 165 476 177 479 205 479 c 0x98
 225 479 231 474 231 465 c 0
 231 455 235 450 250 450 c 0xa8
 278 450 280 490 364 490 c 0
 416 490 452 463 452 415 c 0
 452 390 436 352 391 352 c 0xc8
 335 352 337 409 292 409 c 0xa8
EndSplineSet
EndChar

StartChar: s
Encoding: 115 115 62
Width: 383
VWidth: 1250
Flags: W
HStem: -12 71<165.169 241.438> 428 62<138.238 207.248>
VStem: 22 115<296 415.471> 246 118<69.0993 199>
AnchorPoint: "Anchor-0" 190 479 basechar 0
AnchorPoint: "Anchor-2" 196 0 basechar 0
LayerCount: 2
Fore
SplineSet
29 92 m 0
 29 118 42 141 77 141 c 0
 145 141 151 59 210 59 c 0
 232 59 246 76 246 96 c 0
 246 126 204 146 156 170 c 0
 94 202 22 244 22 348 c 0
 22 430 107 490 189 490 c 0
 271 490 312 459 312 421 c 0
 312 397 295 375 267 375 c 0
 220 375 202 428 167 428 c 0
 149 428 137 419 137 404 c 0
 137 367 187 355 240 329 c 0
 300 300 364 253 364 145 c 0
 364 49 273 -12 188 -12 c 0
 107 -12 29 37 29 92 c 0
EndSplineSet
Validated: 1
EndChar

StartChar: t
Encoding: 116 116 63
Width: 366
VWidth: 1250
Flags: W
HStem: 0 67<23.8699 94 247 316.267> 402 77<272.469 342.975> 408 64<248.405 308.252> 410 69<16.889 93.5513>
VStem: 94 153<68.0958 407.779> 132 110<533.592 697.553> 141 88<490.867 633.845>
AnchorPoint: "Anchor-2" 168 0 basechar 0
AnchorPoint: "Anchor-0" 189 706 basechar 0
LayerCount: 2
Fore
SplineSet
247 82 m 2xa8
 247 74 250 68 256 68 c 0
 264 68 267 72 281 72 c 0
 306 72 319 57 319 37 c 0
 319 17 308 0 266 0 c 0
 224 0 213 5 168 5 c 0
 123 5 116 0 74 0 c 0
 32 0 21 17 21 37 c 0
 21 57 33 72 58 72 c 0
 72 72 76 67 84 67 c 0
 90 67 94 72 94 84 c 2
 94 384 l 2xa8
 94 404 86 410 78 410 c 0
 71 410 64 407 53 407 c 0
 31 407 14 417 14 442 c 0
 14 470 35 479 65 479 c 0
 123 479 141 502 141 532 c 0x92
 141 566 132 597 132 636 c 0
 132 680 152 711 189 711 c 0
 228 711 242 675 242 636 c 0x94
 242 590 229 545 229 506 c 0
 229 486 242 472 266 472 c 0xa2
 280 472 293 479 309 479 c 0
 331 479 346 465 346 440 c 0
 346 415 330 402 309 402 c 0xc2
 293 402 282 408 272 408 c 0
 254 408 247 398 247 368 c 2
 247 82 l 2xa8
EndSplineSet
Validated: 1
Substitution2: "'ss01' Style Set 1 in Latin lookup 2-1" t.ss01
EndChar

StartChar: u
Encoding: 117 117 64
Width: 627
VWidth: 1250
Flags: W
HStem: 0 68<548 618.13> 40 36<347.583 375.652> 411 68<12.8699 78 331.063 397>
VStem: 78 150<111.648 410.996> 397 151<93.7101 410.996>
AnchorPoint: "Anchor-3" 474 0 basechar 0
AnchorPoint: "Anchor-2" 334 0 basechar 0
AnchorPoint: "Anchor-0" 275 479 basechar 0
LayerCount: 2
Fore
SplineSet
228 444 m 2x78
 228 200 l 2
 228 98 278 76 323 76 c 0x78
 368 76 397 101 397 152 c 2
 397 396 l 2
 397 405 397 411 391 411 c 0
 383 411 380 407 366 407 c 0
 341 407 328 421 328 441 c 0
 328 461 339 479 381 479 c 0
 414 479 414 474 449 474 c 0
 481 474 489 479 519 479 c 0
 541 479 548 466 548 444 c 2
 548 83 l 2
 548 71 553 68 559 68 c 0
 567 68 570 72 584 72 c 0
 609 72 621 57 621 37 c 0
 621 17 610 0 568 0 c 0
 526 0 521 3 491 3 c 0
 462 3 450 0 422 0 c 0xb8
 402 0 396 12 396 21 c 0
 396 31 390 40 377 40 c 0
 349 40 343 -12 247 -12 c 0
 151 -12 78 63 78 175 c 2
 78 396 l 2
 78 405 78 411 72 411 c 0
 64 411 61 407 47 407 c 0
 22 407 10 421 10 441 c 0
 10 461 20 479 62 479 c 0
 95 479 95 474 130 474 c 0
 162 474 171 479 201 479 c 0
 223 479 229 466 228 444 c 2x78
EndSplineSet
Validated: 33
EndChar

StartChar: v
Encoding: 118 118 65
Width: 592
VWidth: 1250
Flags: W
HStem: 411 68<9.17993 75.5057 248.001 314.836 372.547 424.999 511.61 582.924>
AnchorPoint: "Anchor-0" 319 479 basechar 0
AnchorPoint: "Anchor-2" 299 0 basechar 0
LayerCount: 2
Fore
SplineSet
491 339 m 2
 348 31 l 2
 327 -14 314 -20 296 -20 c 0
 278 -20 263 -12 242 32 c 2
 89 361 l 2
 72 397 67 411 56 411 c 0
 48 411 45 407 31 407 c 0
 18 407 6 421 6 441 c 0
 6 461 17 479 59 479 c 0
 101 479 103 474 154 474 c 0
 205 474 220 479 262 479 c 0
 304 479 319 461 319 441 c 0
 319 421 306 407 281 407 c 0
 267 407 266 411 258 411 c 0
 250 411 248 406 248 400 c 0
 248 394 251 385 255 375 c 2
 294 265 l 2
 304 237 313 224 331 224 c 0
 347 224 358 241 369 265 c 2
 418 372 l 2
 425 389 425 394 425 399 c 0
 425 404 424 411 416 411 c 0
 408 411 409 407 398 407 c 0
 385 407 370 421 370 441 c 0
 370 461 377 479 419 479 c 0
 442 479 463 477 478 477 c 0
 492 477 511 479 537 479 c 0
 571 479 587 461 587 441 c 0
 587 421 576 407 558 407 c 0
 544 407 540 411 530 411 c 0
 523 411 518 407 516 401 c 0
 508 381 505 369 491 339 c 2
EndSplineSet
Validated: 1
EndChar

StartChar: w
Encoding: 119 119 66
Width: 902
VWidth: 1250
Flags: W
HStem: 411 68<9.17993 75.5057 248.001 314.836 333.74 386.934 558.001 624.836 682.547 734.999 821.61 892.924>
VStem: 400 158<333.75 408.055>
AnchorPoint: "Anchor-0" 485 479 basechar 0
AnchorPoint: "Anchor-2" 440 0 basechar 0
LayerCount: 2
Fore
SplineSet
801 339 m 2
 658 31 l 2
 637 -14 628 -20 610 -20 c 0
 592 -20 573 -12 552 32 c 2
 474 200 l 2
 466 217 460 225 450 225 c 0
 438 225 434 216 427 201 c 2
 348 31 l 2
 327 -14 314 -20 296 -20 c 0
 278 -20 263 -12 242 32 c 2
 89 361 l 2
 72 397 67 411 56 411 c 0
 48 411 45 407 31 407 c 0
 18 407 6 421 6 441 c 0
 6 461 17 479 59 479 c 0
 101 479 103 474 154 474 c 0
 205 474 220 479 262 479 c 0
 304 479 319 461 319 441 c 0
 319 421 306 407 281 407 c 0
 267 407 266 411 258 411 c 0
 250 411 248 406 248 400 c 0
 248 394 251 385 255 375 c 2
 294 265 l 2
 304 237 313 224 331 224 c 0
 347 224 358 241 369 265 c 2
 387 305 l 2
 393 318 400 332 400 341 c 0
 400 347 400 355 394 370 c 0
 384 397 381 411 372 411 c 0
 364 411 363 407 356 407 c 0
 343 407 330 421 330 441 c 0
 330 461 346 479 374 479 c 0
 402 479 413 474 464 474 c 0
 515 474 530 479 572 479 c 0
 614 479 629 461 629 441 c 0
 629 421 616 407 591 407 c 0
 577 407 576 411 568 411 c 0
 560 411 558 406 558 400 c 0
 558 394 561 385 565 375 c 2
 604 265 l 2
 614 237 623 224 641 224 c 0
 657 224 668 241 679 265 c 2
 728 372 l 2
 735 389 735 394 735 399 c 0
 735 404 734 411 726 411 c 0
 718 411 719 407 708 407 c 0
 695 407 680 421 680 441 c 0
 680 461 687 479 729 479 c 0
 752 479 773 477 788 477 c 0
 802 477 821 479 847 479 c 0
 881 479 897 461 897 441 c 0
 897 421 886 407 868 407 c 0
 854 407 850 411 840 411 c 0
 833 411 828 407 826 401 c 0
 818 381 815 369 801 339 c 2
EndSplineSet
Validated: 1
EndChar

StartChar: x
Encoding: 120 120 67
Width: 602
VWidth: 1250
Flags: W
HStem: 0 72<-5.09302 39 48 78.1719 156.003 167 177 227.13 262.559 312 322 333.996 501.875 529 538 588.13> 411 68<14.199 64 74 98.3594 262.003 316.281 329.747 359 368 377.996 464.75 491 501 545.071>
AnchorPoint: "Anchor-0" 298 479 basechar 0
AnchorPoint: "Anchor-2" 245 0 basechar 0
LayerCount: 2
Back
SplineSet
371.465820312 388.149414062 m 6
 61.76171875 76.2451171875 l 6xe8
 57.6572265625 71.3359375 54.181640625 67.5478515625 48.248046875 67.5478515625 c 4xf0
 40.748046875 67.5478515625 36.7490234375 71.837890625 23.1982421875 71.837890625 c 4
 5 71.837890625 -7.8466796875 57.369140625 -7.8466796875 37.3203125 c 4
 -7.8466796875 17.2705078125 5 0 38.71484375 0 c 4
 60.7822265625 0 84.484375 4.51171875 107.875976562 4.51171875 c 4
 140.577148438 4.51171875 146.147460938 0 176.998046875 0 c 4
 219.004882812 0 229.844726562 17.2705078125 229.844726562 37.3203125 c 4
 229.844726562 57.369140625 217.020507812 71.837890625 192.514648438 71.837890625 c 4
 178.774414062 71.837890625 174.498046875 67.37890625 166.998046875 67.37890625 c 4
 159.940429688 67.37890625 155.748046875 68.75 155.748046875 73.75 c 4
 155.748046875 76.25 157.172851562 79.58203125 159.498046875 82.5 c 6
 470.748046875 396.25 l 6
 478.34375 405.328125 484.805664062 411.37109375 490.748046875 411.37109375 c 4
 498.248046875 411.37109375 502.524414062 406.912109375 516.264648438 406.912109375 c 4
 535 406.912109375 547.5 421.380859375 547.5 441.4296875 c 4
 547.5 461.479492188 536.25 478.75 500.748046875 478.75 c 4
 469.897460938 478.75 464.327148438 474.23828125 431.625976562 474.23828125 c 4
 405.2109375 474.23828125 383.633789062 478.75 358.71484375 478.75 c 4
 337.5 478.75 327.153320312 461.479492188 327.153320312 441.4296875 c 4
 327.153320312 421.380859375 337.5 406.912109375 351.25 406.912109375 c 4
 356.749023438 406.912109375 360.748046875 411.202148438 368.248046875 411.202148438 c 4
 373.248046875 411.202148438 377.732421875 408.373046875 377.732421875 402.5 c 4
 377.732421875 397.5 376.451171875 394.109375 371.465820312 388.149414062 c 6
268.032226562 388.149414062 m 6
 263.046875 394.108398438 261.766601562 397.5 261.766601562 402.5 c 4
 261.766601562 408.372070312 266.25 411.202148438 271.25 411.202148438 c 4
 278.75 411.202148438 282.749023438 406.912109375 291.25 406.912109375 c 4
 308.75 406.912109375 318.75 421.380859375 318.75 441.4296875 c 4
 318.75 467.5 305 478.75 271.25 478.75 c 4
 238.774414062 478.75 202.40234375 474.23828125 157.872070312 474.23828125 c 4
 113.34375 474.23828125 105.759765625 478.75 63.75 478.75 c 4
 21.7431640625 478.75 10.9033203125 461.479492188 10.9033203125 441.4296875 c 4
 10.9033203125 421.380859375 23.728515625 406.912109375 48.2333984375 406.912109375 c 4
 61.9736328125 406.912109375 66.25 411.37109375 73.75 411.37109375 c 4
 79.6923828125 411.37109375 86.154296875 405.328125 93.75 396.25 c 6
 330 82.5 l 6
 332.325195312 79.58203125 333.75 76.25 333.75 73.75 c 4
 333.75 68.75 329.55859375 67.37890625 322.5 67.37890625 c 4
 315 67.37890625 310.723632812 71.837890625 296.983398438 71.837890625 c 4
 272.478515625 71.837890625 259.653320312 57.369140625 259.653320312 37.3203125 c 4
 259.653320312 17.2705078125 270.493164062 0 312.5 0 c 4
 354.509765625 0 362.09375 4.51171875 406.622070312 4.51171875 c 4
 451.15234375 4.51171875 496.274414062 0 538.283203125 0 c 4
 580.291992188 0 591.094726562 17.2705078125 591.094726562 37.3203125 c 4
 591.094726562 57.369140625 578.305664062 71.837890625 553.799804688 71.837890625 c 4
 540.249023438 71.837890625 536.25 67.5478515625 528.75 67.5478515625 c 4xf0
 522.81640625 67.5478515625 519.340820312 71.3359375 515.236328125 76.2451171875 c 6xe8
 268.032226562 388.149414062 l 6
EndSplineSet
Fore
SplineSet
268 388 m 2
 263 394 262 397 262 402 c 0
 262 408 266 411 271 411 c 0
 279 411 282 407 291 407 c 0
 309 407 319 421 319 441 c 0
 319 467 305 479 271 479 c 0
 239 479 203 474 158 474 c 0
 113 474 106 479 64 479 c 0
 22 479 11 461 11 441 c 0
 11 421 23 407 48 407 c 0
 62 407 66 411 74 411 c 0
 80 411 87 405 94 396 c 2
 187 273 l 18
 199 257 211 245 211 233 c 0
 211 222 194 211 177 193 c 10
 62 76 l 2
 58 71 54 68 48 68 c 0
 40 68 37 72 23 72 c 0
 5 72 -8 57 -8 37 c 0
 -8 17 5 0 39 0 c 0
 61 0 85 5 108 5 c 0
 141 5 146 0 177 0 c 0
 219 0 230 17 230 37 c 0
 230 57 218 72 193 72 c 0
 179 72 175 67 167 67 c 0
 160 67 156 69 156 74 c 0
 156 76 156 79 159 82 c 2
 220 143 l 2
 232 156 247 166 256 166 c 0
 266 166 276 154 288 138 c 2
 330 82 l 2
 332 79 334 76 334 74 c 0
 334 69 329 67 322 67 c 0
 314 67 311 72 297 72 c 0
 272 72 260 57 260 37 c 0
 260 17 270 0 312 0 c 0
 354 0 362 5 407 5 c 0
 452 5 496 0 538 0 c 0
 580 0 591 17 591 37 c 0
 591 57 579 72 554 72 c 0
 540 72 537 68 529 68 c 0
 523 68 519 71 515 76 c 2
 395 228 l 18
 376 251 363 267 363 279 c 0
 363 290 374 299 391 316 c 10
 471 396 l 2
 479 404 485 411 491 411 c 0
 499 411 502 407 516 407 c 0
 535 407 548 421 548 441 c 0
 548 461 537 479 501 479 c 0
 470 479 465 474 432 474 c 0
 406 474 384 479 359 479 c 0
 338 479 327 461 327 441 c 0
 327 421 337 407 351 407 c 0
 356 407 360 411 368 411 c 0
 373 411 378 408 378 402 c 0
 378 397 376 393 371 388 c 2
 342 359 l 18
 327 344 323 338 314 338 c 0
 306 338 300 348 291 359 c 10
 268 388 l 2
EndSplineSet
Validated: 9
EndChar

StartChar: y
Encoding: 121 121 68
Width: 592
VWidth: 1250
Flags: W
HStem: -175 91<121.243 226.326> 411 68<9.17993 75.9501 248.001 314.836 372.547 424.999 511.61 582.924>
AnchorPoint: "Anchor-0" 319 479 basechar 0
AnchorPoint: "Anchor-2" 158 -165 basechar 0
LayerCount: 2
Fore
SplineSet
224 53 m 2
 89 361 l 2
 73 397 67 411 56 411 c 0
 48 411 45 407 31 407 c 0
 18 407 6 421 6 441 c 0
 6 461 17 479 59 479 c 0
 101 479 103 474 154 474 c 0
 205 474 220 479 262 479 c 0
 304 479 319 461 319 441 c 0
 319 421 306 407 281 407 c 0
 267 407 266 411 258 411 c 0
 250 411 248 406 248 400 c 0
 248 394 251 385 255 375 c 2
 294 265 l 2
 304 237 313 224 331 224 c 0
 347 224 358 241 369 265 c 2
 418 372 l 2
 425 389 425 394 425 399 c 0
 425 404 424 411 416 411 c 0
 408 411 409 407 398 407 c 0
 385 407 370 421 370 441 c 0
 370 461 377 479 419 479 c 0
 442 479 463 477 478 477 c 0
 492 477 511 479 537 479 c 0
 571 479 587 461 587 441 c 0
 587 421 576 407 558 407 c 0
 544 407 540 411 530 411 c 0
 523 411 518 407 516 401 c 0
 508 381 505 369 491 339 c 2
 318 -31 l 2
 266 -143 228 -175 158 -175 c 0
 117 -175 75 -151 75 -109 c 0
 75 -79 96 -58 124 -58 c 0
 164 -58 160 -84 190 -84 c 0
 214 -84 244 -53 244 -18 c 0
 244 -3 239 20 224 53 c 2
EndSplineSet
EndChar

StartChar: z
Encoding: 122 122 69
Width: 507
VWidth: 1250
Flags: W
HStem: 0 62<233.012 364.854> 416 63<162.722 274.991>
VStem: 275 197<391.138 457>
AnchorPoint: "Anchor-0" 281 479 basechar 0
AnchorPoint: "Anchor-2" 199 0 basechar 0
LayerCount: 2
Fore
SplineSet
195 416 m 6
 151 416 129 305 69 305 c 4
 31 305 26 325 26 343 c 4
 26 373 54 404 70 429 c 4
 95 470 90 496 134 496 c 4
 173 496 196 479 258 479 c 6
 424 479 l 6
 458 479 472 468 472 446 c 4
 472 424 455 394 408 331 c 14
 251 118 l 6
 238 101 233 88 233 80 c 4
 233 66 249 62 270 62 c 6
 332 62 l 6
 376 62 396 162 456 162 c 4
 477 162 491 150 491 132 c 4
 491 102 471 84 456 52 c 4
 437 12 440 -25 394 -25 c 4
 345 -25 328 0 232 0 c 6
 48 0 l 6
 28 0 13 10 13 28 c 4
 13 40 18 53 31 70 c 14
 266 379 l 6
 272 387 275 394 275 399 c 4
 275 410 263 416 246 416 c 14
 195 416 l 6
EndSplineSet
Validated: 1
Substitution2: "'ss01' Style Set 1 in Latin lookup 2-1" z.ss01
EndChar

StartChar: dieresis
Encoding: 168 168 70
Width: 463
VWidth: 1250
Flags: W
HStem: 570 167<85.6345 157.35 306.325 378.697>
LayerCount: 2
Fore
SplineSet
248 628 m 4
 248 685 319 738 375 738 c 4
 415 738 437 712 437 680 c 4
 437 623 369 570 313 570 c 4
 264 570 248 596 248 628 c 4
26 628 m 0
 26 685 97 737 153 737 c 0
 193 737 215 711 215 679 c 0
 215 622 147 570 91 570 c 0
 42 570 26 596 26 628 c 0
EndSplineSet
Validated: 1
EndChar

StartChar: germandbls
Encoding: 223 223 71
Width: 582
VWidth: 1250
Flags: W
HStem: 0 67<25.733 96 249 318.13> 366 52<255.23 305.834> 476 20G<385 463> 675 80<250.354 334.839>
VStem: 96 153<68.016 589.098> 371 81<290.64 327.367> 389 160<57.1304 161.078>
LayerCount: 2
Fore
SplineSet
249 319 m 0xfc
 249 319 226 336 226 380 c 1
 226 424 248 443 248 443 c 5
 248 428 251 418 265 418 c 0
 303 418 339 496 431 496 c 0
 495 496 522 450 522 415 c 0
 522 336 452 329 452 301 c 0xfc
 452 276 549 287 549 155 c 0
 549 -24 337 -175 265 -175 c 0
 229 -175 214 -152 214 -131 c 0
 214 -32 389 -125 389 74 c 0xfa
 389 212 294 193 294 234 c 0
 294 264 371 286 371 328 c 0
 371 353 350 366 312 366 c 0
 260 366 249 343 249 319 c 0xfc
EndSplineSet
Refer: 101 383 N 1 0 0 1 0 0 2
Validated: 5
EndChar

StartChar: ampersand
Encoding: 38 38 72
Width: 871
VWidth: 1250
Flags: W
HStem: -12 78<355.433 548.496> 453 77<375.253 478.298> 463 58<346.014 436.747> 674 64<361.964 466.638>
VStem: 60 195<175.21 338.117> 178 160<533.885 649.599> 241 14<285 488> 426 74<238.248 299.83> 630 74<136.059 279.693> 781 63<455.486 514.861>
LayerCount: 2
Back
SplineSet
542.5 737.729492188 m 0
 637.5 737.729492188 692.5 693.979492188 692.5 660.229492188 c 0
 692.5 641.479492188 680 621.854492188 651.25 621.854492188 c 0
 605 621.854492188 603.75 673.979492188 535 673.979492188 c 0
 482.5 673.979492188 425 655.229492188 425 588.979492188 c 0
 425 537.729492188 438.75 521.479492188 461.25 521.479492188 c 0
 483.75 521.479492188 493.75 530.229492188 525 530.229492188 c 16
 556.25 530.229492188 570 511.479492188 570 491.479492188 c 16
 570 471.479492188 561.25 452.729492188 527.5 452.729492188 c 16
 493.75 452.729492188 487.5 462.729492188 433.75 462.729492188 c 0
 357.5 462.729492188 255 380 255 225 c 0
 255 138.75 312.5 66.25 450 66.25 c 0
 602.5 66.25 650 138.75 650 216.25 c 0
 650 257.5 633.75 303.75 577.5 303.75 c 0
 542.5 303.75 525 292.5 525 273.75 c 0
 525 245 556.25 241.25 556.25 215 c 0
 556.25 197.5 542.5 182.5 518.75 182.5 c 0
 486.25 182.5 451.25 206.25 451.25 267.5 c 0
 451.25 328.75 507.5 441.25 696.25 441.25 c 0
 780 441.25 835 465 835 498.75 c 0
 835 532.5 777.5 535 777.5 572.5 c 0
 777.5 592.5 791.25 602.875 812.5 602.875 c 0
 837.5 602.875 898.75 571.25 898.75 497.5 c 0
 898.75 425 863.75 375 787.5 343.75 c 0
 742.411132812 325.271484375 710 321.236328125 710 305 c 0
 710 286.25 723.75 258.75 723.75 205 c 0
 723.75 97.5 622.5 -11.6455078125 403.75 -11.6455078125 c 0
 185 -11.6455078125 60 57.5 60 220 c 0
 60 457.5 328.75 477.729492188 328.75 500.229492188 c 16
 328.75 522.729492188 265 526.479492188 265 597.729492188 c 0
 265 676.479492188 378.75 737.729492188 542.5 737.729492188 c 0
EndSplineSet
Fore
SplineSet
420 738 m 0xb5c0
 525 738 580 683 580 641 c 0
 580 618 564 603 539 603 c 0
 481 603 480 674 422 674 c 0
 369 674 338 642 338 589 c 0
 338 542 349 521 374 521 c 0xb5c0
 401 521 411 530 438 530 c 16
 465 530 482 515 482 491 c 16
 482 465 468 453 440 453 c 0xd5c0
 409 453 403 463 372 463 c 0
 299 463 255 388 255 285 c 0
 255 158 325 66 442 66 c 0
 563 66 630 119 630 216 c 0
 630 269 599 304 552 304 c 0
 518 304 500 293 500 274 c 0
 500 246 531 243 531 215 c 0
 531 196 516 182 494 182 c 0
 453 182 426 216 426 268 c 0
 426 368 530 441 671 441 c 0
 737 441 781 453 781 485 c 0
 781 523 708 524 708 572 c 0
 708 591 720 603 742 603 c 0
 786 603 844 551 844 479 c 0
 844 395 796 350 728 332 c 0
 697 324 685 321 685 305 c 0
 685 286 704 260 704 205 c 0
 704 76 587 -12 416 -12 c 0
 194 -12 60 94 60 255 c 0xb9c0
 60 410 241 454 241 488 c 0xb3c0
 241 507 178 525 178 598 c 0
 178 683 277 738 420 738 c 0xb5c0
EndSplineSet
Validated: 1
Substitution2: "'ss01' Style Set 1 in Latin lookup 2-1" ampersand.ss01
Substitution2: "'ss01' Style Set 1 in Latin lookup 2-1" ampersand.ss01
AlternateSubs2: "'salt' Stylistic Alternatives in Latin lookup 1-1" ampersand.ss01
EndChar

StartChar: parenleft
Encoding: 40 40 73
Width: 477
VWidth: 1250
Flags: W
HStem: -79 91<331.338 443.596> 676 90<331.338 444.252>
VStem: 56 200<200.054 487.892>
LayerCount: 2
Back
Fore
SplineSet
389 766 m 0
 430 766 451 750 451 718 c 0
 451 687 425 676 384 676 c 0
 300 676 256 565 256 344 c 0
 256 123 300 12 384 12 c 4
 425 12 451 1 451 -30 c 4
 451 -62 430 -79 389 -79 c 0
 238 -79 56 92 56 344 c 0
 56 596 238 766 389 766 c 0
EndSplineSet
Validated: 1
EndChar

StartChar: g.earless
Encoding: 65536 -1 74
Width: 531
VWidth: 1250
Flags: W
HStem: -175 49<226.023 340.148> -12 37<233.307 285.781> 435 61<225.367 314.802>
VStem: 18 167<194.961 375.4> 160 55<-113.66 -38.7247> 172 37<50 92> 354 141<-109.116 -19.105> 355 161<202.567 389.167>
LayerCount: 2
Fore
SplineSet
185 286 m 0xf1
 185 196 222 135 270 135 c 0
 318 135 355 196 355 286 c 0
 355 376 318 435 270 435 c 0
 222 435 185 376 185 286 c 0xf1
215 -69 m 0xea
 215 -102 233 -126 285 -126 c 0
 337 -126 354 -95 354 -65 c 0
 354 -34 337 -12 309 -12 c 0
 280 -12 260 -20 232 -29 c 0
 222 -32 215 -45 215 -69 c 0xea
18 281 m 0xf0
 18 437 158 496 270 496 c 0
 405 496 516 438 516 289 c 0
 516 147 387 96 262 81 c 0
 218 76 209 64 209 50 c 0xe5
 209 36 218 25 239 25 c 0
 265 25 307 68 382 68 c 0
 448 68 495 22 495 -39 c 0
 495 -131 410 -175 306 -175 c 4
 171 -175 160 -112 160 -82 c 0xea
 160 -54 173 -44 169 -39 c 0
 165 -34 152 -46 121 -46 c 0
 95 -46 69 -30 69 12 c 0
 69 84 172 67 172 92 c 0xe4
 172 122 18 125 18 281 c 0xf0
EndSplineSet
Validated: 33
EndChar

StartChar: parenright
Encoding: 41 41 75
Width: 477
VWidth: 1250
Flags: W
HStem: -79 91<47.5134 159.662> 676 90<46.7988 159.662>
VStem: 235 200<200.054 487.892>
LayerCount: 2
Fore
SplineSet
102 766 m 0
 253 766 435 596 435 344 c 0
 435 92 253 -79 102 -79 c 0
 61 -79 40 -62 40 -30 c 4
 40 1 67 12 108 12 c 4
 192 12 235 123 235 344 c 0
 235 565 192 676 108 676 c 0
 67 676 40 687 40 718 c 0
 40 750 61 766 102 766 c 0
EndSplineSet
Validated: 1
EndChar

StartChar: slash
Encoding: 47 47 76
Width: 446
VWidth: 1250
Flags: W
VStem: 47 80<-82.0327 37.4851> 319 80<660.678 766.654>
LayerCount: 2
Fore
SplineSet
82 -90 m 4
 57 -90 47 -77 47 -45 c 4
 47 17 105 102 197 355 c 4
 285 597 293 651 319 730 c 4
 329 761 342 774 364 774 c 4
 388 774 399 756 399 735 c 4
 399 659 342 597 254 355 c 4
 162 102 151 45 127 -41 c 4
 119 -71 107 -90 82 -90 c 4
EndSplineSet
Validated: 1
EndChar

StartChar: quotesingle
Encoding: 39 39 77
Width: 188
VWidth: 1250
Flags: W
HStem: 460 308<58.5012 127.29>
VStem: 22 148<602.363 748.429> 54 77<463.173 613.17>
LayerCount: 2
Fore
SplineSet
22 701 m 0xc0
 22 742 55 768 94 768 c 0
 133 768 170 744 170 701 c 0xc0
 170 627 131 592 131 504 c 0
 131 483 126 460 93 460 c 0
 60 460 54 484 54 506 c 0xa0
 54 594 22 632 22 701 c 0xc0
EndSplineSet
Validated: 1
EndChar

StartChar: quotedbl
Encoding: 34 34 78
Width: 376
VWidth: 1250
Flags: W
HStem: 460 308<58.5012 127.29 245.005 315.078>
VStem: 22 148<602.363 748.429> 54 77<463.173 613.17> 210 147<599.572 749.543> 241 78<463.173 615.87>
LayerCount: 2
Fore
SplineSet
210 701 m 4x90
 210 742 243 768 282 768 c 4
 321 768 357 744 357 701 c 4x90
 357 627 319 592 319 504 c 4
 319 483 313 460 280 460 c 4
 247 460 241 484 241 506 c 4x88
 241 594 210 632 210 701 c 4x90
22 701 m 0xc0
 22 742 55 768 94 768 c 0
 133 768 170 744 170 701 c 0xc0
 170 627 131 592 131 504 c 0
 131 483 126 460 93 460 c 0
 60 460 54 484 54 506 c 0xa0
 54 594 22 632 22 701 c 0xc0
EndSplineSet
Validated: 1
EndChar

StartChar: asciitilde
Encoding: 126 126 79
Width: 395
VWidth: 1250
Flags: W
HStem: 290 95<222.808 320.086> 337 99<75.1748 173.887>
LayerCount: 2
Fore
SplineSet
280 385 m 4x80
 308 385 321 410 342 410 c 4
 362 410 369 396 369 384 c 4
 369 346 319 290 247 290 c 0x80
 187 290 162 337 123 337 c 0
 92 337 76 307 53 307 c 0
 33 307 26 322 26 334 c 0
 26 377 73 436 143 436 c 4x40
 212 436 225 385 280 385 c 4x80
EndSplineSet
Validated: 1
EndChar

StartChar: asterisk
Encoding: 42 42 80
Width: 380
VWidth: 1250
Flags: W
VStem: 38 301
LayerCount: 2
Fore
SplineSet
188 725 m 24
 227 725 211 663 242 640 c 24
 273 617 327 652 339 615 c 24
 351 578 287 575 275 538 c 24
 263 501 312 461 281 438 c 24
 250 415 227 475 188 475 c 24
 149 475 126 415 95 438 c 24
 64 461 113 501 101 538 c 24
 89 575 26 578 38 615 c 24
 50 652 104 617 135 640 c 24
 166 663 149 725 188 725 c 24
EndSplineSet
Validated: 33
EndChar

StartChar: .notdef
Encoding: 65537 -1 81
Width: 817
VWidth: 1250
Flags: W
HStem: -18 76<353.881 455.625> 210 46<369 449.933> 668 82<307.451 508.149>
VStem: 29 221<247 616.5> 578 211<250.5 614.5>
LayerCount: 2
Fore
SplineSet
407 668 m 4
 309 668 250 620 250 576 c 4
 250 551 264 528 296 528 c 4
 348 528 350 606 407 606 c 4
 441 606 460 581 460 550 c 4
 460 462 355 436 355 322 c 4
 355 290 373 256 413 256 c 4
 439 256 454 274 454 291 c 4
 454 324 436 321 436 350 c 4
 436 396 578 429 578 534 c 4
 578 632 497 668 407 668 c 4
327 134 m 4
 327 92 361 58 403 58 c 4
 445 58 479 92 479 134 c 4
 479 176 445 210 403 210 c 4
 361 210 327 176 327 134 c 4
29 369 m 0
 29 613 217 750 422 750 c 0
 627 750 789 597 789 366 c 0
 789 135 603 -18 411 -18 c 0
 219 -18 29 125 29 369 c 0
EndSplineSet
Validated: 1
EndChar

StartChar: at
Encoding: 64 64 82
Width: 1031
VWidth: 1250
Flags: W
HStem: -172 67<412.074 658.471> -19 20G<760.5 822> 60 76<369 542.224> 73 68<730.064 840.816> 101 377<595.948 703.984> 445 61<488.207 588.771> 665 67<393.042 645.342>
VStem: 70 68<154.869 407.115> 259 157<158.099 351.141> 889 73<198.187 423.212>
LayerCount: 2
Fore
SplineSet
416 231 m 0xe7c0
 416 193 422 136 500 136 c 0
 545 136 554 177 564 224 c 2
 591 355 l 2
 601 405 597 445 548 445 c 0
 459 445 416 332 416 231 c 0xe7c0
775 73 m 0xd3c0
 688 73 637 101 622 101 c 0xcbc0
 602 101 532 60 437 60 c 0
 301 60 259 165 259 244 c 0
 259 430 414 506 514 506 c 0xe7c0
 608 506 638 478 658 478 c 0xcbc0
 680 478 698 505 732 505 c 0
 762 505 764 485 757 453 c 2
 714 244 l 2
 701 179 735 141 780 141 c 0
 860 141 889 223 889 302 c 0
 889 512 727 665 522 665 c 0
 330 665 138 533 138 275 c 0
 138 24 368 -105 539 -105 c 0
 733 -105 713 1 808 1 c 0
 836 1 859 -21 859 -56 c 0
 859 -112 741 -172 536 -172 c 0
 287 -172 70 14 70 285 c 0
 70 564 288 732 528 732 c 0
 783 732 962 530 962 316 c 0
 962 190 906 73 775 73 c 0xd3c0
EndSplineSet
Validated: 33
Substitution2: "'ss01' Style Set 1 in Latin lookup 2-1" at.salt
AlternateSubs2: "'salt' Stylistic Alternatives in Latin lookup 1-1" at.salt
EndChar

StartChar: numbersign
Encoding: 35 35 83
Width: 723
VWidth: 1250
Flags: W
HStem: 0 21G<112.5 137.5> 189 80<29.5818 154.582 479.927 617.418> 200 58<104.133 549.999> 370 80<107.582 232.582 556.037 695.225> 381 58<181.94 627.106>
VStem: 296 80<499.273 592.597> 521 80<499.273 592.597>
LayerCount: 2
Fore
SplineSet
104 410 m 0x96
 104 435 119 450 150 450 c 0x96
 186 450 212 439 405 439 c 0x8e
 554 439 617 450 652 450 c 0
 683 450 699 435 699 410 c 0
 699 385 683 370 652 370 c 0x96
 617 370 558 381 404 381 c 0x8e
 212 381 186 370 150 370 c 0
 119 370 104 385 104 410 c 0x96
350 0 m 0
 325 0 316 20 316 39 c 0
 316 94 372 176 431 324 c 0
 486 463 505 510 521 557 c 0
 532 588 548 603 570 603 c 0
 594 603 601 583 601 570 c 0
 601 525 569 470 509 325 c 0
 419 108 415 75 400 46 c 0
 386 18 375 0 350 0 c 0
26 229 m 0
 26 254 41 269 72 269 c 0xc6
 108 269 135 258 328 258 c 0xa6
 477 258 540 269 575 269 c 0
 606 269 621 254 621 229 c 0
 621 204 606 189 575 189 c 0xc6
 540 189 480 200 326 200 c 0xa6
 134 200 108 189 72 189 c 0xc6
 41 189 26 204 26 229 c 0
125 0 m 4
 100 0 91 20 91 39 c 4
 91 94 147 176 206 324 c 4
 261 463 280 510 296 557 c 4
 307 588 323 603 345 603 c 4
 369 603 376 583 376 570 c 4
 376 525 344 470 284 325 c 4
 194 108 190 75 175 46 c 4
 161 18 150 0 125 0 c 4
EndSplineSet
Validated: 5
EndChar

StartChar: percent
Encoding: 37 37 84
Width: 732
VWidth: 1250
Flags: W
HStem: -5 51<505.208 564.792> 0 21G<148.5 173.5> 255 52<502.868 567.132> 307 52<148.208 207.583> 568 52<147.819 207.961>
VStem: 22 111<380.599 547.112> 222 111<379.847 547.844> 379 111<68.3022 235.4> 580 111<68.3022 235.4>
LayerCount: 2
Fore
SplineSet
535 255 m 0xaf80
 502 255 490 216 490 153 c 0
 490 88 502 46 535 46 c 0
 568 46 580 88 580 153 c 4
 580 216 568 255 535 255 c 0xaf80
535 307 m 0
 624 307 691 244 691 153 c 0
 691 59 624 -5 535 -5 c 0
 446 -5 379 59 379 153 c 0
 379 244 446 307 535 307 c 0
178 568 m 0
 145 568 133 528 133 465 c 0
 133 400 145 359 178 359 c 0x1f80
 211 359 222 400 222 465 c 4
 222 528 211 568 178 568 c 0
178 620 m 0
 267 620 333 556 333 465 c 0
 333 371 267 307 178 307 c 0
 89 307 22 371 22 465 c 0
 22 556 89 620 178 620 c 0
161 0 m 0x4f80
 136 0 128 20 128 39 c 0
 128 94 234 202 335 324 c 0
 434 444 456 484 500 557 c 0
 517 585 527 603 549 603 c 0
 573 603 580 583 580 570 c 0
 580 525 504 449 412 325 c 0
 251 109 226 75 211 46 c 0x8f80
 197 18 186 0 161 0 c 0x4f80
EndSplineSet
Validated: 1
EndChar

StartChar: plus
Encoding: 43 43 85
Width: 500
VWidth: 1250
Flags: W
HStem: 282 80<35.7746 177.677 317.325 461.418> 293 59<80.3544 217.156 280.312 417.597>
VStem: 209 80<109.582 252.403 392.687 535.225> 219 60<153.352 290.625 353.723 490.605>
LayerCount: 2
Fore
SplineSet
32 322 m 4x90
 32 347 48 362 79 362 c 4x90
 108 362 130 352 182 352 c 4
 210 352 219 364 219 388 c 4x50
 219 449 209 462 209 492 c 4
 209 523 224 539 249 539 c 4
 274 539 289 523 289 492 c 4
 289 462 278 448 278 390 c 4
 278 366 282 352 312 352 c 4x60
 363 352 389 362 419 362 c 4
 450 362 465 347 465 322 c 4
 465 297 450 282 419 282 c 4xa0
 389 282 365 293 315 293 c 4
 284 293 279 281 279 255 c 4x50
 279 199 289 181 289 152 c 4
 289 121 274 106 249 106 c 4
 224 106 209 121 209 152 c 4x60
 209 181 219 199 219 258 c 4
 219 280 208 293 180 293 c 4x50
 130 293 108 282 79 282 c 4
 48 282 32 297 32 322 c 4x90
EndSplineSet
Validated: 1
EndChar

StartChar: equal
Encoding: 61 61 86
Width: 500
VWidth: 1250
Flags: W
HStem: 208 80<35.7746 244.951 255.003 461.418> 219 57<80.6805 417.366> 370 80<35.7746 244.951 255.003 461.418> 381 58<80.6805 417.366>
LayerCount: 2
Fore
SplineSet
32 410 m 4x20
 32 435 48 450 79 450 c 4x20
 115 450 141 439 250 439 c 4x10
 358 439 384 450 419 450 c 4
 450 450 465 435 465 410 c 4
 465 385 450 370 419 370 c 4x20
 384 370 358 381 250 381 c 4x10
 141 381 115 370 79 370 c 4
 48 370 32 385 32 410 c 4x20
32 248 m 0
 32 273 48 288 79 288 c 0x80
 115 288 141 276 250 276 c 0x40
 358 276 384 288 419 288 c 0
 450 288 465 273 465 248 c 0
 465 223 450 208 419 208 c 0x80
 384 208 358 219 250 219 c 0x40
 141 219 115 208 79 208 c 0x80
 48 208 32 223 32 248 c 0
EndSplineSet
Validated: 1
EndChar

StartChar: less
Encoding: 60 60 87
Width: 500
VWidth: 1250
Flags: W
HStem: 155 79<330.31 454.758> 424 78<330.31 454.758>
LayerCount: 2
Fore
SplineSet
149 327 m 4
 149 309 186 296 244 276 c 4
 349 241 377 240 412 234 c 4
 443 229 459 219 459 194 c 4
 459 169 444 155 419 155 c 4
 384 155 349 167 244 211 c 4
 141 254 107 265 72 279 c 4
 42 291 20 297 20 322 c 4
 20 347 43 359 72 371 c 4
 108 386 141 403 244 446 c 4
 349 490 384 502 419 502 c 4
 444 502 459 489 459 464 c 4
 459 439 443 429 412 424 c 4
 377 418 349 416 244 381 c 4
 186 361 149 349 149 327 c 4
EndSplineSet
Validated: 1
EndChar

StartChar: greater
Encoding: 62 62 88
Width: 500
VWidth: 1250
Flags: W
HStem: 155 79<42.9922 167.69> 424 78<42.9922 167.69>
LayerCount: 2
Fore
SplineSet
349 330 m 4
 349 348 312 361 254 381 c 0
 149 416 120 418 85 424 c 0
 54 429 39 439 39 464 c 0
 39 489 54 502 79 502 c 0
 114 502 149 490 254 446 c 0
 357 403 390 393 425 379 c 0
 455 367 478 360 478 335 c 0
 478 310 454 298 425 286 c 0
 389 271 357 254 254 211 c 0
 149 167 114 155 79 155 c 0
 54 155 39 169 39 194 c 0
 39 219 54 229 85 234 c 0
 120 240 149 241 254 276 c 0
 312 296 349 308 349 330 c 4
EndSplineSet
Validated: 1
EndChar

StartChar: at.salt
Encoding: 65538 -1 89
Width: 1031
VWidth: 1250
Flags: W
HStem: -172 67<412.074 658.471> -19 20G<760.5 822> 60 76<402.568 579.422> 73 68<751.201 845.817> 445 61<467.779 575.149> 665 67<393.042 645.342>
VStem: 70 68<154.869 407.115> 273 154<185.264 385.939> 591 146<153.355 430.894> 889 73<194.196 423.212>
LayerCount: 2
Fore
SplineSet
427 301 m 0xefc0
 427 208 452 136 526 136 c 0
 591 136 591 177 591 224 c 2
 591 355 l 2
 591 405 579 445 530 445 c 0
 441 445 427 366 427 301 c 0xefc0
775 73 m 0xdfc0
 688 73 653 101 638 101 c 0
 618 101 568 60 473 60 c 0xefc0
 337 60 273 169 273 287 c 0
 273 427 383 506 483 506 c 0
 577 506 613 478 633 478 c 0
 655 478 667 505 701 505 c 0
 731 505 737 485 737 453 c 2
 737 244 l 2
 737 200 735 141 796 141 c 0
 860 141 889 223 889 302 c 0
 889 512 727 665 522 665 c 0
 330 665 138 533 138 275 c 0
 138 24 368 -105 539 -105 c 0
 733 -105 713 1 808 1 c 0
 836 1 859 -21 859 -56 c 0
 859 -112 741 -172 536 -172 c 0
 287 -172 70 14 70 285 c 0
 70 564 288 732 528 732 c 0
 783 732 962 530 962 316 c 0
 962 190 906 73 775 73 c 0xdfc0
EndSplineSet
Validated: 33
EndChar

StartChar: acute
Encoding: 180 180 90
Width: 288
VWidth: 1250
Flags: W
HStem: 539 59<33.8213 120.724> 718 20G<177.5 220.5>
VStem: 131 129<607.618 717.405>
LayerCount: 2
Fore
SplineSet
31 573 m 4
 31 594 50 598 74 598 c 4
 103 598 127 608 131 643 c 4
 139 711 155 738 200 738 c 4
 241 738 260 707 260 658 c 4
 260 589 200 539 108 539 c 4
 58 539 31 547 31 573 c 4
EndSplineSet
Validated: 1
EndChar

StartChar: grave
Encoding: 96 96 92
Width: 288
VWidth: 1250
Flags: W
HStem: 539 59<176.27 262.271> 718 20G<75.5 118.5>
VStem: 36 129<607.618 717.405>
LayerCount: 2
Fore
SplineSet
265 573 m 4
 265 547 239 539 189 539 c 4
 97 539 36 589 36 658 c 4
 36 707 55 738 96 738 c 4
 141 738 157 711 165 643 c 4
 169 608 193 598 222 598 c 4
 246 598 265 594 265 573 c 4
EndSplineSet
Validated: 1
EndChar

StartChar: backslash
Encoding: 92 92 93
Width: 446
VWidth: 1250
Flags: W
VStem: 47 80<660.678 766.654> 319 80<-82.0327 37.4851>
LayerCount: 2
Fore
SplineSet
364 -90 m 0
 339 -90 327 -71 319 -41 c 4
 295 45 284 102 192 355 c 0
 104 597 47 659 47 735 c 0
 47 756 58 774 82 774 c 0
 104 774 117 761 127 730 c 4
 153 651 161 597 249 355 c 0
 341 102 399 17 399 -45 c 0
 399 -77 389 -90 364 -90 c 0
EndSplineSet
Validated: 1
EndChar

StartChar: bracketleft
Encoding: 91 91 94
Width: 405
VWidth: 1250
Flags: W
HStem: -92 80<260.455 381.6> 686 80<260.659 381.098>
VStem: 81 179<-12 686>
LayerCount: 2
Fore
SplineSet
81 -34 m 2
 81 708 l 2
 81 752 88 766 162 766 c 2
 315 766 l 2
 375 766 386 747 386 722 c 0
 386 697 363 686 342 686 c 2
 282 686 l 2
 266 686 260 671 260 656 c 2
 260 18 l 2
 260 -2 266 -12 282 -12 c 2
 342 -12 l 2
 363 -12 386 -24 386 -49 c 0
 386 -74 375 -92 315 -92 c 2
 162 -92 l 2
 88 -92 81 -78 81 -34 c 2
EndSplineSet
Validated: 1
EndChar

StartChar: braceleft
Encoding: 123 123 95
Width: 433
VWidth: 1250
Flags: W
HStem: -79 91<187.751 327.199> 339 69<37.8281 130.435> 675 91<197.751 337.581>
VStem: 61 184<14.7235 120.642> 71 184<572.74 672.732> 139 163<431.642 534.453> 151 164<191.973 320.676>
LayerCount: 2
Fore
SplineSet
245 51 m 0xf0
 245 26 257 12 279 12 c 0
 326.618181818 12 319.909090909 46 360 46 c 0
 384 46 400 32.6666666667 400 6 c 0
 400 -46.3076923077 323.846153846 -79 250 -79 c 0
 128 -79 61 -20.3150684932 61 57 c 4xf0
 61 147.41025641 151 171.58974359 151 262 c 0xe2
 151 307 133.387096774 339 109 339 c 0
 96 339 84 333 71 333 c 0xe8
 49 333 35 349 35 371 c 0
 35 394 51 410 72 410 c 0
 84 410 89 408 101 408 c 0
 122.620689655 408 139 433 139 465 c 0xe4
 139 544.032258065 71 560.967741935 71 640 c 0
 71 711.630136986 138 766 260 766 c 0
 333.846153846 766 410 733.307692308 410 681 c 0
 410 654.333333333 394 641 372 641 c 0
 329.909090909 641 337.793939394 675 289 675 c 0
 267 675 255 661 255 636 c 0xe8
 255 584 302 553 302 501 c 0xe4
 302 421 249 418 249 388 c 0
 249 359 315 333 315 241 c 0xe2
 315 170 245 122 245 51 c 0xf0
EndSplineSet
EndChar

StartChar: bracketright
Encoding: 93 93 96
Width: 405
VWidth: 1250
Flags: W
HStem: -92 80<35.3999 157.249> 686 80<35.9018 157.48>
VStem: 158 178<-11.9565 685.971>
LayerCount: 2
Fore
SplineSet
336 708 m 6
 336 -34 l 6
 336 -78 329 -92 255 -92 c 6
 102 -92 l 6
 42 -92 31 -74 31 -49 c 4
 31 -24 54 -12 75 -12 c 6
 135 -12 l 6
 151 -12 158 3 158 18 c 6
 158 656 l 6
 158 676 151 686 135 686 c 6
 75 686 l 6
 54 686 31 697 31 722 c 4
 31 747 42 766 102 766 c 6
 255 766 l 6
 329 766 336 752 336 708 c 6
EndSplineSet
Validated: 1
EndChar

StartChar: braceright
Encoding: 125 125 97
Width: 433
VWidth: 1250
Flags: W
HStem: -79 91<101.801 241.249> 339 69<298.565 328 357 391.172> 675 91<91.4188 231.249>
VStem: 114 164<191.973 320.676> 127 163<431.642 534.453> 174 184<572.74 672.732> 184 184<14.7234 120.642>
LayerCount: 2
Fore
SplineSet
184 51 m 4xe2
 184 26 172 12 150 12 c 4
 102.381835938 12 109.090820312 46 69 46 c 4
 45 46 29 32.6669921875 29 6 c 4
 29 -46.3076171875 105.154296875 -79 179 -79 c 4
 301 -79 368 -20.3154296875 368 57 c 4xe2
 368 147.41015625 278 171.58984375 278 262 c 4xf0
 278 307 295.61328125 339 320 339 c 4
 333 339 345 333 358 333 c 4xe4
 380 333 394 349 394 371 c 4
 394 394 378 410 357 410 c 4
 345 410 340 408 328 408 c 4
 306.37890625 408 290 433 290 465 c 4xe8
 290 544.032226562 358 560.967773438 358 640 c 4
 358 711.629882812 291 766 169 766 c 4
 95.154296875 766 19 733.307617188 19 681 c 4
 19 654.333007812 35 641 57 641 c 4
 99.0908203125 641 91.2060546875 675 140 675 c 4
 162 675 174 661 174 636 c 4xe4
 174 584 127 553 127 501 c 4xe8
 127 421 180 418 180 388 c 4
 180 359 114 333 114 241 c 4xf0
 114 170 184 122 184 51 c 4xe2
EndSplineSet
EndChar

StartChar: underscore
Encoding: 95 95 98
Width: 850
VWidth: 1250
Flags: W
HStem: -80 80<35.7746 316.29 524.861 811.418> -69 58<214.371 658.061>
LayerCount: 2
Fore
SplineSet
32 -40 m 0x80
 32 -15 48 0 79 0 c 0x80
 115 0 166 -11 438 -11 c 0x40
 696 -11 734 0 769 0 c 0
 800 0 815 -15 815 -40 c 0
 815 -65 800 -80 769 -80 c 0x80
 734 -80 696 -69 438 -69 c 0x40
 166 -69 115 -80 79 -80 c 0
 48 -80 32 -65 32 -40 c 0x80
EndSplineSet
Validated: 1
EndChar

StartChar: c_h
Encoding: 65539 -1 99
Width: 980
VWidth: 1250
Flags: W
HStem: -8 76<232.535 329.987> 0 60<399.381 437.659 592 640.88 716.408 760.199 911.673 958.654> 405 51<605.487 656.584> 415 75<238.804 312.861> 679 65<379.283 437.748>
VStem: 20 178<142.09 339.891> 389 50<32 105> 439 153<63.965 389.361 456.01 678.386> 761 149<60.1799 368.201>
LayerCount: 2
Fore
SplineSet
378 708 m 4x6d80
 378 722 378 744 420 744 c 6
 561 744 l 6
 573 744 594 734 594 702 c 6
 594 490 l 6x5d80
 594 470 595 456 605 456 c 4x2d80
 623 456 646 490 742 490 c 4x1d80
 838 490 910 422 910 310 c 6
 910 98 l 6
 910 68 921 60 932 60 c 4
 943 60 961 56 961 35 c 4
 961 14 947 -1 916 -1 c 4
 885 -1 859 8 830 8 c 4
 801 8 791 1 761 1 c 4
 731 1 715 10 715 32 c 4
 715 54 724 59 736 59 c 4
 755 59 761 70 761 95 c 6
 761 281 l 6
 761 382 711 405 666 405 c 4
 621 405 592 376 592 360 c 6
 592 82 l 6x6d80
 592 69 595 60 611 60 c 4
 629 60 642 46 642 31 c 4
 642 16 644 0 598 0 c 4
 552 0 534 5 514 5 c 4
 494 5 494 0 445 0 c 4
 396 0 389 12 389 32 c 4
 389 52 399 64 419 64 c 4
 439 64 439 88 439 99 c 6x6e80
 439 641 l 6
 439 676 427 679 405 679 c 4
 383 679 378 694 378 708 c 4x6d80
20 241 m 4
 20 380 139 490 271 490 c 4
 412 490 439 419 439 390 c 4x9d80
 439 365 416 340 386 340 c 4
 315 340 325 415 280 415 c 4
 238 415 198 366 198 231 c 4
 198 96 238 68 280 68 c 4
 350 68 350 155 396 155 c 4
 426 155 439 130 439 105 c 4
 439 76 387 -8 271 -8 c 4x9e80
 139 -8 20 102 20 241 c 4
EndSplineSet
Validated: 37
Ligature2: "'dlig' Discretionary Ligatures in Latin lookup 0-1" c h
EndChar

StartChar: bar
Encoding: 124 124 100
Width: 187
VWidth: 1250
Flags: W
VStem: 52 84<-85.575 202.107 483.56 769.575> 63 62<133.061 584.473>
LayerCount: 2
Fore
SplineSet
94 -90 m 4x80
 69 -90 52 -75 52 -44 c 4x80
 52 45 63 126 63 358 c 4x40
 63 562 52 649 52 728 c 4
 52 759 69 774 94 774 c 4
 119 774 136 759 136 728 c 4x80
 136 649 125 562 125 358 c 4x40
 125 126 136 45 136 -44 c 4
 136 -75 119 -90 94 -90 c 4x80
EndSplineSet
EndChar

StartChar: longs
Encoding: 383 383 101
Width: 375
VWidth: 1250
Flags: W
HStem: 0 67<25.733 96 249 318.13> 675 80<250.354 334.839>
VStem: 96 153<68.016 589.098>
LayerCount: 2
Fore
SplineSet
249 82 m 2
 249 73 253 68 259 68 c 0
 267 68 270 72 284 72 c 0
 309 72 321 57 321 37 c 0
 321 17 310 0 268 0 c 0
 226 0 215 5 170 5 c 0
 125 5 118 0 76 0 c 0
 34 0 23 17 23 37 c 0
 23 57 36 72 61 72 c 0
 75 72 78 67 86 67 c 0
 92 67 96 71 96 82 c 2
 96 449 l 2
 96 605 174 755 295 755 c 0
 334 755 370 738 370 694 c 0
 370 672 354 652 325 652 c 0
 296 652 293 675 274 675 c 0
 254 675 246 657 246 628 c 0
 246 592 249 422 249 351 c 2
 249 82 l 2
EndSplineSet
Validated: 1
EndChar

StartChar: c_k
Encoding: 65540 -1 102
Width: 955
VWidth: 1250
Flags: W
HStem: -8 76<232.535 329.987> 0 62<857.948 897.303> 8 720<439.984 583.786> 388 96<787.703 883.688> 415 75<238.804 312.861> 674 60<384.878 437.526>
VStem: 20 178<142.09 339.891> 388 51<29 105> 439 149<68.5336 260.394 314.039 673.962>
LayerCount: 2
Fore
SplineSet
356 699 m 4x4680
 356 725 384 734 409 734 c 4x4680
 434 734 455 728 474 728 c 4x2280
 493 728 511 734 532 734 c 4
 586 734 588 701 588 675 c 6
 588 348 l 6
 588 310 595 300 625 325 c 6
 785 460 l 6
 806 478 832 484 851 484 c 4
 912 484 936 449 936 418 c 4
 936 387 919 359 875 359 c 4
 826 359 814 388 790 388 c 4
 762 388 750 367 750 348 c 4
 750 324 756 308 764 291 c 6
 854 92 l 6
 862 74 868 62 872 62 c 4
 877 62 883 71 898 71 c 4
 913 71 931 67 931 39 c 4
 931 11 899 0 875 0 c 4
 851 0 837 6 802 6 c 4
 767 6 754 0 722 0 c 4
 690 0 668 0 668 30 c 4
 668 71 713 52 706 70 c 6
 634 242 l 6
 627 258 620 261 614 261 c 4
 608 261 592 256 592 234 c 6
 592 82 l 6
 592 62 649 72 649 36 c 4
 649 11 635 0 596 0 c 4x5680
 557 0 535 8 509 8 c 4x2280
 483 8 451 0 429 0 c 4
 407 0 388 5 388 29 c 4
 388 63 439 59 439 78 c 6x43
 439 639 l 6
 439 661 428 674 416 674 c 4
 404 674 403 664 384 664 c 4
 365 664 356 673 356 699 c 4x4680
20 241 m 0
 20 380 139 490 271 490 c 0
 412 490 439 419 439 390 c 0x8a80
 439 365 416 340 386 340 c 0
 315 340 325 415 280 415 c 0
 238 415 198 366 198 231 c 0
 198 96 238 68 280 68 c 0
 350 68 350 155 396 155 c 0
 426 155 439 130 439 105 c 0
 439 76 387 -8 271 -8 c 0x8b
 139 -8 20 102 20 241 c 0
EndSplineSet
Validated: 37
LCarets2: 1 0
Ligature2: "'dlig' Discretionary Ligatures in Latin lookup 0-1" c k
EndChar

StartChar: asciicircum
Encoding: 94 94 103
Width: 366
VWidth: 1250
Flags: W
HStem: 497 21G<40 71 296 327> 593 145<152.61 214.987>
VStem: 26 315<507 527>
LayerCount: 2
Fore
SplineSet
184 738 m 0
 206 738 220 719 237 693 c 2
 326 558 l 2
 338 539 341 527 341 516 c 0
 341 507 334 497 320 497 c 0
 272 497 208 593 184 593 c 0
 160 593 95 497 47 497 c 0
 33 497 26 507 26 516 c 0
 26 527 29 539 41 558 c 2
 130 693 l 2
 147 719 162 738 184 738 c 0
EndSplineSet
Validated: 1
EndChar

StartChar: bullet
Encoding: 8226 8226 104
Width: 315
VWidth: 1250
Flags: W
HStem: 228 250<88.1401 227.379>
VStem: 32 250<282.621 421.86>
LayerCount: 2
Fore
SplineSet
32 352 m 4
 32 420.25 89.75 478 158 478 c 4
 226.595703125 478 282 420.25 282 352 c 4
 282 283.404296875 226.595703125 228 158 228 c 4
 89.75 228 32 283.404296875 32 352 c 4
EndSplineSet
EndChar

StartChar: yen
Encoding: 165 165 105
Width: 698
VWidth: 1250
Flags: W
HStem: 0 67<192.559 262.996 442.003 511.013> 114 80<136.582 261.032 442.389 562.225> 125 57<180.681 517.366> 224 80<136.582 261.032 445.111 562.225> 235 57<180.681 517.366> 535 68<-6.1301 73.7188 270.004 342.13 454.87 531.999 611.219 698.13>
VStem: 263 179<84 324.177>
LayerCount: 2
Fore
SplineSet
442 82 m 6x86
 442 82 446 68 452 68 c 4
 460 68 464 72 478 72 c 4
 503 72 514 57 514 37 c 4
 514 17 503 0 461 0 c 4
 419 0 403 5 352 5 c 4
 301 5 284 0 242 0 c 4
 200 0 190 17 190 37 c 4
 190 57 202 72 227 72 c 4
 241 72 244 67 252 67 c 4
 258 67 263 84 263 84 c 6
 263 268 l 6
 263 305 252 307 220 353 c 6
 69 520 l 6
 63 528 59 535 53 535 c 4
 45 535 42 531 28 531 c 4
 3 531 -9 546 -9 566 c 4
 -9 586 2 603 44 603 c 4
 86 603 119 598 170 598 c 4
 221 598 250 603 292 603 c 4
 334 603 345 586 345 566 c 4
 345 546 333 531 308 531 c 4
 294 531 290 535 282 535 c 4
 276 535 270 533 270 528 c 4
 270 518 283 502 305 475 c 6
 344 427 l 6
 362 404 378 394 398 394 c 4
 418 394 440 416 457 435 c 6
 528 514 l 6
 532 518 532 525 532 527 c 4
 532 532 530 535 522 535 c 4
 510 535 503 531 489 531 c 4
 464 531 452 546 452 566 c 4
 452 586 463 603 505 603 c 4
 533 603 544 601 577 601 c 4
 607 601 623 603 648 603 c 4
 690 603 701 586 701 566 c 4
 701 546 689 531 664 531 c 4
 650 531 642 535 634 535 c 4
 622 535 618 520 600 499 c 6
 480 360 l 6
 452 327 442 308 442 269 c 6
 442 82 l 6x86
133 154 m 0
 133 179 148 194 179 194 c 0xc6
 215 194 242 182 351 182 c 0xa6
 459 182 484 194 519 194 c 0
 550 194 566 179 566 154 c 0
 566 129 550 114 519 114 c 0xc6
 484 114 459 125 351 125 c 0xa6
 242 125 215 114 179 114 c 0xc6
 148 114 133 129 133 154 c 0
133 264 m 0
 133 289 148 304 179 304 c 0x96
 215 304 242 292 351 292 c 0x8e
 459 292 484 304 519 304 c 0
 550 304 566 289 566 264 c 0
 566 239 550 224 519 224 c 0x96
 484 224 459 235 351 235 c 0x8e
 242 235 215 224 179 224 c 0x96
 148 224 133 239 133 264 c 0
EndSplineSet
Validated: 5
EndChar

StartChar: sterling
Encoding: 163 163 106
Width: 667
VWidth: 1250
Flags: W
HStem: -12 112<471.472 554.687> 279 80<34.7746 106.314 289.951 460.418> 290 58<140 416.366> 548 72<328.378 443.46>
VStem: 104 181<314.572 487.889> 563 83<108.3 186.467>
LayerCount: 2
Back
SplineSet
31.25 361.25 m 0x20
 31.25 386.25 46.25 401.25 77.5 401.25 c 0x20
 113.380859375 401.25 189.4765625 390 298.75 390 c 0x10
 406.427734375 390 544.642578125 401.25 580 401.25 c 0
 611.25 401.25 626.25 386.25 626.25 361.25 c 0
 626.25 336.25 611.25 321.25 580 321.25 c 0x20
 544.642578125 321.25 406.427734375 332.5 298.75 332.5 c 0x10
 189.4765625 332.5 113.380859375 321.25 77.5 321.25 c 0
 46.25 321.25 31.25 336.25 31.25 361.25 c 0x20
833.75 483.75 m 0
 833.75 443.75 806.25 402.5 760 402.5 c 0
 601.25 402.5 632.5 580 507.5 580 c 16
 442.5 580 401.25 543.75 401.25 461.25 c 0
 401.25 340 396.25 273.75 396.25 247.5 c 0
 396.25 230 405 215 422.5 215 c 0
 453.75 215 467.5 235 531.25 235 c 0
 633.75 235 651.25 127.5 700 127.5 c 0
 723.935546875 127.5 730.407226562 147.5 730.407226562 172.5 c 0
 730.407226562 197.5 740.05078125 220 772.5 220 c 0
 816.25 220 833.75 188.75 833.75 145 c 0
 833.75 66.25 767.5 -17.5 650 -17.5 c 0
 473.75 -17.5 435 90 391.25 90 c 0
 347.5 90 308.75 -21.25 208.75 -21.25 c 0
 155 -21.25 121.25 13.75 121.25 51.25 c 0
 121.25 155 276.25 178.75 276.25 203.75 c 0
 276.25 232.5 135 281.25 135 437.5 c 0
 135 556.25 267.5 663.75 517.5 663.75 c 0
 767.5 663.75 833.75 556.25 833.75 483.75 c 0
EndSplineSet
Fore
SplineSet
31 319 m 4xdc
 31 344 47 359 78 359 c 4xdc
 114 359 140 348 249 348 c 4xbc
 357 348 383 359 418 359 c 4
 449 359 464 344 464 319 c 4
 464 294 449 279 418 279 c 4xdc
 383 279 357 290 249 290 c 4xbc
 140 290 114 279 78 279 c 4
 47 279 31 294 31 319 c 4xdc
621 462 m 4
 621 424 596 398 556 398 c 4
 445 398 509 548 385 548 c 4
 320 548 285 494 285 402 c 4
 285 293 298 235 308 204 c 4
 314 185 322 174 340 174 c 4
 354 174 361 180 386 180 c 4
 465 180 451 100 516 100 c 4
 552 100 563 130 563 155 c 4
 563 180 577 195 599 195 c 4
 633 195 646 164 646 120 c 4
 646 58 590 -12 485 -12 c 4
 353 -12 336 79 292 79 c 4
 248 79 221 -12 121 -12 c 4
 79 -12 48 14 48 55 c 4
 48 159 189 144 189 169 c 4
 189 198 104 237 104 389 c 4
 104 512 190 620 395 620 c 4
 543 620 621 538 621 462 c 4
EndSplineSet
Validated: 5
EndChar

StartChar: cent
Encoding: 162 162 107
Width: 496
VWidth: 1250
Flags: W
HStem: -145 21G<287.5 312.5> -12 68<275 325> 426 64<269 319>
VStem: 20 178<119.081 345.604> 260 80<-142.367 -48.7169 8 46 437 474 525.811 622.905> 265 57<490.137 593.296> 271 58<-110.344 -12.8434>
AnchorPoint: "Anchor-0" 290 479 basechar 0
AnchorPoint: "Anchor-2" 288 0 basechar 0
LayerCount: 2
Fore
SplineSet
300 -145 m 4xf8
 275 -145 260 -134 260 -111 c 4xf8
 260 -97 271 -84 271 -47 c 4xf2
 271 -8 260 8 260 23 c 4
 260 46 275 56 300 56 c 4
 325 56 340 46 340 23 c 4xf8
 340 8 329 -8 329 -47 c 4xf2
 329 -84 340 -97 340 -111 c 4
 340 -134 325 -145 300 -145 c 4xf8
294 426 m 0
 269 426 254 437 254 460 c 0
 254 474 265 487 265 524 c 0
 265 563 254 579 254 594 c 0
 254 617 269 628 294 628 c 0
 319 628 334 617 334 594 c 0
 334 579 322 563 322 524 c 0xf4
 322 487 334 474 334 460 c 0
 334 437 319 426 294 426 c 0
304 58 m 0
 382 58 364 147 442 147 c 0
 466 147 482 128 482 102 c 0
 482 45 389 -12 286 -12 c 0
 117 -12 20 71 20 232 c 0
 20 407 146 490 284 490 c 0
 391 490 469 445 469 384 c 0
 469 357 444 334 416 334 c 0
 352 334 356 425 292 425 c 0
 234 425 198 352 198 229 c 0
 198 114 233 58 304 58 c 0
EndSplineSet
Validated: 5
EndChar

StartChar: uni00AD
Encoding: 173 173 108
Width: 411
VWidth: 1250
Flags: W
HStem: 194 131<110.593 299.977>
LayerCount: 2
Fore
SplineSet
260 194 m 6
 128 194 l 6
 120 194 102 172 70 172 c 4
 38 172 36 205 49 222 c 6
 106 298 l 6
 121 318 131 325 151 325 c 6
 291 325 l 6
 302 325 309 347 341 347 c 4
 373 347 375 314 362 297 c 6
 305 222 l 6
 290 202 280 194 260 194 c 6
EndSplineSet
Validated: 33
EndChar

StartChar: uni2011
Encoding: 8209 8209 109
Width: 411
VWidth: 1250
Flags: W
HStem: 194 131<110.593 299.977>
LayerCount: 2
Fore
SplineSet
260 194 m 6
 128 194 l 6
 120 194 102 172 70 172 c 4
 38 172 36 205 49 222 c 6
 106 298 l 6
 121 318 131 325 151 325 c 6
 291 325 l 6
 302 325 309 347 341 347 c 4
 373 347 375 314 362 297 c 6
 305 222 l 6
 290 202 280 194 260 194 c 6
EndSplineSet
Validated: 33
EndChar

StartChar: endash
Encoding: 8211 8211 110
Width: 675
VWidth: 1250
Flags: W
HStem: 220 80<35.7746 317.484 349.166 636.418> 231 58<100.569 547.175>
LayerCount: 2
Fore
SplineSet
32 260 m 0x80
 32 285 48 300 79 300 c 0x80
 108 300 163 289 325 289 c 4x40
 502 289 568 300 594 300 c 0
 625 300 640 285 640 260 c 0
 640 235 625 220 594 220 c 0x80
 568 220 502 231 325 231 c 4x40
 163 231 108 220 79 220 c 0
 48 220 32 235 32 260 c 0x80
EndSplineSet
Validated: 1
EndChar

StartChar: emdash
Encoding: 8212 8212 111
Width: 962
VWidth: 1250
Flags: W
HStem: 220 80<35.7746 324.341 642.789 924.225> 231 58<243.497 679.968>
LayerCount: 2
Fore
SplineSet
32 260 m 0x80
 32 285 48 300 79 300 c 0x80
 115 300 203 289 462 289 c 4x40
 770 289 846 300 881 300 c 0
 912 300 928 285 928 260 c 0
 928 235 912 220 881 220 c 0x80
 846 220 770 231 462 231 c 4x40
 203 231 115 220 79 220 c 0
 48 220 32 235 32 260 c 0x80
EndSplineSet
Validated: 1
EndChar

StartChar: perthousand
Encoding: 8240 8240 112
Width: 1070
VWidth: 1250
Flags: W
HStem: -5 51<505.976 564.024 843.184 901.024> 255 52<505.632 564.368 842.852 901.368> 307 52<148.976 206.816> 568 52<148.632 207.148>
VStem: 22 115<380.599 547.112> 218 115<379.847 547.844> 379 115<68.3022 235.4> 576 115<68.3022 235.4> 717 115<68.3022 235.4> 913 115<68.3022 235.4>
LayerCount: 2
Fore
SplineSet
872 255 m 0xdfc0
 839 255 832 216 832 153 c 0
 832 88 839 46 872 46 c 0
 905 46 913 88 913 153 c 4
 913 216 905 255 872 255 c 0xdfc0
872 307 m 0
 961 307 1028 244 1028 153 c 0
 1028 59 961 -5 872 -5 c 0
 783 -5 717 59 717 153 c 0
 717 244 783 307 872 307 c 0
535 255 m 0
 502 255 494 216 494 153 c 0
 494 88 502 46 535 46 c 0
 568 46 576 88 576 153 c 0
 576 216 568 255 535 255 c 0
535 307 m 0
 624 307 691 244 691 153 c 0
 691 59 624 -5 535 -5 c 0
 446 -5 379 59 379 153 c 0
 379 244 446 307 535 307 c 0
178 568 m 0
 145 568 137 528 137 465 c 0
 137 400 145 359 178 359 c 0xbfc0
 211 359 218 400 218 465 c 0
 218 528 211 568 178 568 c 0
178 620 m 0
 267 620 333 556 333 465 c 0
 333 371 267 307 178 307 c 0
 89 307 22 371 22 465 c 0
 22 556 89 620 178 620 c 0
161 0 m 0
 136 0 128 20 128 39 c 0
 128 94 234 202 335 324 c 0
 434 444 456 484 500 557 c 0
 517 585 527 603 549 603 c 0
 573 603 580 583 580 570 c 0
 580 525 504 449 412 325 c 0
 251 109 226 75 211 46 c 0
 197 18 186 0 161 0 c 0
EndSplineSet
Validated: 1
EndChar

StartChar: guillemotleft
Encoding: 171 171 113
Width: 547
VWidth: 1250
Flags: W
VStem: 35 150<209.271 290.016> 260 150<208.756 290.016>
LayerCount: 2
Fore
SplineSet
260 256 m 0
 260 290 279 305 310 328 c 0
 403 398 436 420 485 420 c 0
 501 420 513 412 513 394 c 0
 513 377 502 358 441 300 c 0
 419 279 410 258 410 246 c 0
 410 235 414 216 440 194 c 0
 495 146 513 135 513 105 c 0
 513 92 505 83 489 83 c 0
 449 83 402 104 312 182 c 0
 285 205 260 222 260 256 c 0
35 256 m 0
 35 290 54 305 85 328 c 0
 178 398 211 420 260 420 c 0
 276 420 288 412 288 394 c 0
 288 377 277 358 216 300 c 0
 194 279 185 258 185 246 c 0
 185 235 189 216 215 194 c 0
 270 146 288 135 288 105 c 0
 288 92 280 83 264 83 c 0
 224 83 178 104 88 182 c 0
 61 205 35 222 35 256 c 0
EndSplineSet
Validated: 1
EndChar

StartChar: guillemotright
Encoding: 187 187 114
Width: 547
VWidth: 1250
Flags: W
VStem: 136 150<209.271 288.987> 361 150<209.271 288.987>
LayerCount: 2
Fore
SplineSet
286 256 m 0
 286 222 260 205 233 182 c 0
 143 104 97 83 57 83 c 0
 41 83 33 92 33 105 c 0
 33 135 51 146 106 194 c 0
 132 216 136 235 136 246 c 0
 136 258 126 279 104 300 c 0
 43 358 33 377 33 394 c 0
 33 412 45 420 61 420 c 0
 110 420 143 398 236 328 c 0
 267 305 286 290 286 256 c 0
511 256 m 0
 511 222 485 205 458 182 c 0
 368 104 322 83 282 83 c 0
 266 83 258 92 258 105 c 0
 258 135 276 146 331 194 c 0
 357 216 361 235 361 246 c 0
 361 258 351 279 329 300 c 0
 268 358 258 377 258 394 c 0
 258 412 270 420 286 420 c 0
 335 420 368 398 461 328 c 0
 492 305 511 290 511 256 c 0
EndSplineSet
Validated: 1
EndChar

StartChar: guilsinglleft
Encoding: 8249 8249 115
Width: 321
VWidth: 1250
Flags: W
VStem: 35 150<209.271 290.016>
LayerCount: 2
Fore
SplineSet
35 256 m 0
 35 290 54 305 85 328 c 0
 178 398 211 420 260 420 c 0
 276 420 288 412 288 394 c 0
 288 377 277 358 216 300 c 0
 194 279 185 258 185 246 c 0
 185 235 189 216 215 194 c 0
 270 146 288 135 288 105 c 0
 288 92 280 83 264 83 c 0
 224 83 178 104 88 182 c 0
 61 205 35 222 35 256 c 0
EndSplineSet
Validated: 1
EndChar

StartChar: guilsinglright
Encoding: 8250 8250 116
Width: 321
VWidth: 1250
Flags: W
VStem: 136 150<209.271 288.987>
LayerCount: 2
Fore
SplineSet
286 256 m 4
 286 222 260 205 233 182 c 4
 143 104 97 83 57 83 c 4
 41 83 33 92 33 105 c 4
 33 135 51 146 106 194 c 4
 132 216 136 235 136 246 c 4
 136 258 126 279 104 300 c 4
 43 358 33 377 33 394 c 4
 33 412 45 420 61 420 c 4
 110 420 143 398 236 328 c 4
 267 305 286 290 286 256 c 4
EndSplineSet
Validated: 1
EndChar

StartChar: section
Encoding: 167 167 117
Width: 428
VWidth: 1250
Flags: W
HStem: -64 69<174.013 287.408> 622 66<138.718 233.131>
VStem: 22 120<227.062 343.989 511.539 610.13> 292.56 118<17.9549 129 287.821 425>
LayerCount: 2
Fore
SplineSet
288.559570312 290 m 0
 288.559570312 328 208.959960938 361 181 361 c 0
 161.280273438 361 142 353 142 333 c 0
 142 300 212.599609375 259 252 259 c 0
 268.799804688 259 288.559570312 273 288.559570312 290 c 0
19 49 m 0
 19 75 32 98 67 98 c 0
 137.51953125 98 146.16 5 241.12 5 c 0
 272.8 5 292.56 22 292.56 42 c 0
 292.56 112 22 156 22 281 c 0
 22 361 105 385 105 406 c 0
 105 422 22 466 22 542 c 0
 22 624 105 688 208 688 c 0
 315.56 688 368.559570312 634 368.559570312 596 c 0
 368.559570312 572 351.559570312 550 323.559570312 550 c 0
 265.51953125 550 239.6 622 179.2 622 c 0
 153.28 622 137 610 137 595 c 4
 137 520 410.56 496 410.56 354 c 0
 410.56 278 338.56 247 338.56 229 c 0
 338.56 210 410.56 167 410.56 91 c 0
 410.56 -5 318.56 -64 208 -64 c 0
 106 -64 19 -6 19 49 c 0
EndSplineSet
EndChar

StartChar: degree
Encoding: 176 176 118
Width: 332
VWidth: 1250
Flags: W
HStem: 436 66<110.285 209.715> 642 64<110.285 209.715>
VStem: 25 67<520.691 623.834> 228 67<520.691 623.834>
LayerCount: 2
Fore
SplineSet
92 572 m 4
 92 533 121 502 160 502 c 4
 199 502 228 533 228 572 c 4
 228 611 199 642 160 642 c 4
 121 642 92 611 92 572 c 4
25 571 m 4
 25 646 85 706 160 706 c 4
 235 706 295 646 295 571 c 4
 295 496 235 436 160 436 c 4
 85 436 25 496 25 571 c 4
EndSplineSet
Validated: 1
EndChar

StartChar: macron
Encoding: 175 175 119
Width: 428
VWidth: 1250
Flags: W
HStem: 649 80<32.5818 206.571 213.348 395.225> 660 58<76.9068 350.359>
LayerCount: 2
Fore
SplineSet
29 689 m 4x80
 29 714 44 729 75 729 c 4x80
 116 729 136 718 210 718 c 4x40
 282 718 317 729 352 729 c 4
 383 729 399 714 399 689 c 4
 399 664 383 649 352 649 c 4x80
 317 649 282 660 210 660 c 4x40
 136 660 116 649 75 649 c 4
 44 649 29 664 29 689 c 4x80
EndSplineSet
Validated: 1
EndChar

StartChar: brokenbar
Encoding: 166 166 120
Width: 183
VWidth: 1250
Flags: W
VStem: 52 80<-86.4182 115.592 123.716 307.418 375.775 590.268 598.392 770.418> 63 58<-42.3144 263.545 420.825 726.684>
LayerCount: 2
Fore
SplineSet
92 -90 m 0x80
 67 -90 52 -75 52 -44 c 0x80
 52 -8 63 25 63 120 c 0x40
 63 200 52 234 52 265 c 0
 52 296 67 311 92 311 c 0
 117 311 132 296 132 265 c 0x80
 132 234 121 200 121 120 c 0x40
 121 25 132 -8 132 -44 c 0
 132 -75 117 -90 92 -90 c 0x80
92 372 m 0
 67 372 52 388 52 419 c 0x80
 52 458 63 493 63 595 c 4x40
 63 668 52 700 52 728 c 0
 52 759 67 774 92 774 c 0
 117 774 132 759 132 728 c 0x80
 132 700 121 668 121 595 c 4x40
 121 493 132 458 132 419 c 0
 132 388 117 372 92 372 c 0
EndSplineSet
Validated: 1
EndChar

StartChar: plusminus
Encoding: 177 177 121
Width: 500
VWidth: 1250
Flags: W
HStem: 95 80<35.7746 170.138 329.815 461.418> 106 58<80.6805 213.002 283.461 417.366> 295 80<35.7746 177.677 317.325 461.418> 305 60<80.3544 212.037 283.75 417.597>
VStem: 209 80<404.088 535.225> 219 60<169.67 300.938 366.6 490.605>
LayerCount: 2
Fore
SplineSet
32 335 m 0x24
 32 360 48 375 79 375 c 0x24
 108 375 130 365 182 365 c 0
 210 365 219 376 219 400 c 0x14
 219 449 209 462 209 492 c 0
 209 523 224 539 249 539 c 0
 274 539 289 523 289 492 c 0x18
 289 462 278 447 278 402 c 0
 278 378 282 364 312 364 c 0
 363 364 389 375 419 375 c 0
 450 375 465 360 465 335 c 0
 465 310 450 295 419 295 c 0
 389 295 365 306 315 306 c 0
 284 306 279 285 279 231 c 4
 279 182 283 164 328 164 c 0x64
 367 164 388 175 419 175 c 0
 450 175 465 160 465 135 c 0
 465 110 450 95 419 95 c 0x84
 384 95 358 106 250 106 c 0x44
 141 106 115 95 79 95 c 0
 48 95 32 110 32 135 c 0
 32 160 48 175 79 175 c 0
 110 175 132 165 172 165 c 0
 211 165 219 183 219 234 c 4
 219 284 208 305 180 305 c 0x94
 130 305 108 295 79 295 c 0
 48 295 32 310 32 335 c 0x24
EndSplineSet
Validated: 1
EndChar

StartChar: mu
Encoding: 181 181 122
Width: 627
VWidth: 1250
Flags: W
HStem: -0 67<548 618.13> 40 36<347.583 371.786> 423 68<12.5588 78 330.733 397>
VStem: 34 122<-105.268 15.3535> 78 150<116.494 408> 397 151<97.6583 422.996>
LayerCount: 2
Back
SplineSet
78.248046875 345.854492188 m 0x2a
 78.248046875 380.854492188 95 396.25 110 396.25 c 0
 158.75 396.25 146.25 205 146.25 122.5 c 0x2a
 146.25 40 162.5 0 162.5 -66.25 c 0
 162.5 -98.75 141.25 -125 96.25 -125 c 0
 53.75 -125 33.75 -80 33.75 -27.5 c 0x32
 33.75 100 78.248046875 164.604492188 78.248046875 345.854492188 c 0x2a
228.248046875 455.854492188 m 2xb8
 228.248046875 205.854492188 l 2
 228.75 105 278.248046875 75.8544921875 323.248046875 75.8544921875 c 0x78
 368.248046875 75.8544921875 396.998046875 110.854492188 396.998046875 158.354492188 c 2
 396.998046875 408.354492188 l 2
 396.998046875 417.104492188 396.681640625 423.306640625 390.748046875 423.306640625 c 0
 383.248046875 423.306640625 379.249023438 419.015625 365.698242188 419.015625 c 0
 341.192382812 419.015625 328.403320312 433.485351562 328.403320312 453.534179688 c 0
 328.403320312 473.583984375 339.20703125 490.854492188 381.21484375 490.854492188 c 0
 414.134765625 490.854492188 414.23046875 486.342773438 449.125976562 486.342773438 c 0
 480.739257812 486.342773438 489.673828125 490.854492188 519.498046875 490.854492188 c 0
 541.755859375 490.854492188 548.248046875 477.802734375 548.248046875 455.854492188 c 2
 548.248046875 82.3134765625 l 2
 548.248046875 69.8134765625 552.81640625 67.15234375 558.75 67.15234375 c 0
 566.25 67.15234375 570.249023438 71.443359375 583.799804688 71.443359375 c 0
 608.305664062 71.443359375 621.094726562 56.9736328125 621.094726562 36.9248046875 c 0
 621.094726562 16.875 610.255859375 -0.3955078125 568.248046875 -0.3955078125 c 0
 526.239257812 -0.3955078125 520.748046875 2.2080078125 490.748046875 2.2080078125 c 0
 461.998046875 2.2080078125 449.498046875 -0.3955078125 421.998046875 -0.3955078125 c 0xb8
 401.998046875 -0.3955078125 395.61328125 12.1044921875 395.61328125 20.8544921875 c 0
 395.61328125 30.8544921875 390.748046875 39.6044921875 376.998046875 39.6044921875 c 4x78
 349.498046875 39.6044921875 343.248046875 -11.6455078125 246.998046875 -11.6455078125 c 0
 150.748046875 -11.6455078125 78.75 68.75 78.248046875 180.854492188 c 2
 78.248046875 408.354492188 l 2
 78.248046875 417.5 77.931640625 423.306640625 71.998046875 423.306640625 c 0
 64.498046875 423.306640625 60.4990234375 419.015625 46.9482421875 419.015625 c 0
 22.4423828125 419.015625 9.6533203125 433.485351562 9.6533203125 453.534179688 c 0
 9.6533203125 473.583984375 20.45703125 490.854492188 62.46484375 490.854492188 c 0
 95.384765625 490.854492188 95.48046875 486.342773438 130.375976562 486.342773438 c 0
 161.990234375 486.342773438 170.923828125 490.854492188 200.748046875 490.854492188 c 0
 223.006835938 490.854492188 228.75 477.5 228.248046875 455.854492188 c 2xb8
EndSplineSet
Fore
SplineSet
228 456 m 2x6c
 228 206 l 2
 229 105 278 76 323 76 c 0x6c
 368 76 397 110 397 158 c 2
 397 408 l 2
 397 417 397 423 391 423 c 0
 383 423 380 419 366 419 c 0
 341 419 328 434 328 454 c 0
 328 474 339 491 381 491 c 0
 414 491 414 486 449 486 c 0
 481 486 489 491 519 491 c 0
 541 491 548 478 548 456 c 2
 548 82 l 2
 548 70 553 67 559 67 c 0
 567 67 570 71 584 71 c 0
 609 71 621 57 621 37 c 0
 621 17 610 0 568 -0 c 0
 526 0 521 2 491 2 c 0
 462 2 450 0 422 -0 c 0xac
 402 0 396 12 396 21 c 0
 396 31 389 40 377 40 c 0
 349 40 343 -12 247 -12 c 0
 193 -12 178 20 169 20 c 0
 160 20 156 12 156 2 c 0
 156 -20 162 -49 162 -66 c 0
 162 -98 141 -125 96 -125 c 0
 54 -125 34 -80 34 -28 c 0x74
 34 100 78 120 78 245 c 2
 78 408 l 2
 78 408 78 423 72 423 c 0
 64 423 61 419 47 419 c 0
 22 419 10 434 10 454 c 0
 10 474 20 491 62 491 c 0
 95 491 95 486 130 486 c 0
 162 486 171 491 201 491 c 0
 223 491 229 478 228 456 c 2x6c
EndSplineSet
Validated: 33
EndChar

StartChar: copyright
Encoding: 169 169 123
Width: 817
VWidth: 1250
Flags: W
HStem: -18 77<301.725 519.778> 139.8 42<406.181 492.318> 438.6 12.6G<555 569.4> 545.4 44.4<403.536 495.453> 673 77<301.495 533.09>
VStem: 29 81<252.178 484.341> 206.4 126.6<286.547 445.523> 708 81<250.624 489.616>
LayerCount: 2
Fore
SplineSet
110 368 m 4
 110 173 257 59 411 59 c 4
 565 59 708 181 708 366 c 4
 708 551 584 673 420 673 c 4
 256 673 110 563 110 368 c 4
29 369 m 4
 29 613 217 750 422 750 c 4
 627 750 789 597 789 366 c 4
 789 135 603 -18 411 -18 c 4
 219 -18 29 125 29 369 c 4
EndSplineSet
Refer: 20 67 N 0.6 0 0 0.6 195 147 2
Validated: 1
EndChar

StartChar: registered
Encoding: 174 174 124
Width: 817
VWidth: 1250
Flags: W
HStem: -18 77<301.725 519.778> 154 51.6<529.959 593.554> 157 40.2<208.922 250.797 359.109 400.665> 372.4 30<363.281 427.663> 553.6 40.8<221.501 251.589> 562.6 31.8<361.379 435.289> 673 77<301.495 533.09>
VStem: 29 81<252.178 484.341> 251.6 107.4<197.866 370.306 406.831 553.514> 450.8 112.8<211.454 340.685> 464.6 118.2<435.055 536.526> 593.6 49.2<206.531 237.256> 708 81<250.624 489.616>
LayerCount: 2
Fore
SplineSet
110 368 m 0x9398
 110 173 257 59 411 59 c 0
 565 59 708 181 708 366 c 0
 708 551 584 673 420 673 c 0
 256 673 110 563 110 368 c 0x9398
29 369 m 0
 29 613 217 750 422 750 c 0
 627 750 789 597 789 366 c 0
 789 135 603 -18 411 -18 c 0
 219 -18 29 125 29 369 c 0
EndSplineSet
Refer: 35 82 N 0.6 0 0 0.6 200 157 2
Validated: 1
EndChar

StartChar: circumflex
Encoding: 710 710 125
Width: 341
VWidth: 1250
Flags: W
HStem: 618 120<128.496 213.504>
VStem: 21 300<570 621.328>
LayerCount: 2
Fore
SplineSet
171 738 m 4
 186 738 204 728 225 705 c 6
 301 620 l 6
 315 604 321 590 321 579 c 4
 321 570 316 560 302 560 c 4
 266 560 195 618 171 618 c 4
 147 618 76 560 40 560 c 4
 26 560 21 570 21 579 c 4
 21 590 27 604 41 620 c 6
 117 705 l 6
 138 728 156 738 171 738 c 4
EndSplineSet
Validated: 1
EndChar

StartChar: caron
Encoding: 711 711 126
Width: 341
VWidth: 1250
Flags: W
HStem: 551 120<128.496 213.504> 709 20G<33 58 284 309>
VStem: 21 300<667.672 719>
LayerCount: 2
Fore
SplineSet
171 551 m 4
 156 551 138 561 117 584 c 6
 41 669 l 6
 27 685 21 699 21 710 c 4
 21 719 26 729 40 729 c 4
 76 729 147 671 171 671 c 4
 195 671 266 729 302 729 c 4
 316 729 321 719 321 710 c 4
 321 699 315 685 301 669 c 6
 225 584 l 6
 204 561 186 551 171 551 c 4
EndSplineSet
Validated: 1
EndChar

StartChar: hungarumlaut
Encoding: 733 733 127
Width: 513
VWidth: 1250
Flags: W
HStem: 539 59<176.27 262.271 401.27 487.271> 718 20G<75.5 118.5 300.5 343.5>
VStem: 36 129<607.618 717.405> 261 129<607.618 717.405>
LayerCount: 2
Fore
SplineSet
490 573 m 4
 490 547 464 539 414 539 c 4
 322 539 261 589 261 658 c 4
 261 707 280 738 321 738 c 4
 366 738 382 711 390 643 c 4
 394 608 419 598 448 598 c 4
 472 598 490 594 490 573 c 4
265 573 m 0
 265 547 239 539 189 539 c 0
 97 539 36 589 36 658 c 0
 36 707 55 738 96 738 c 0
 141 738 157 711 165 643 c 0
 169 608 193 598 222 598 c 0
 246 598 265 594 265 573 c 0
EndSplineSet
Validated: 1
EndChar

StartChar: dotaccent
Encoding: 729 729 128
Width: 241
VWidth: 1250
Flags: W
HStem: 570 167<85.6345 157.35>
VStem: 26 189<623.9 683.1>
LayerCount: 2
Fore
SplineSet
26 628 m 4
 26 685 97 737 153 737 c 4
 193 737 215 711 215 679 c 4
 215 622 147 570 91 570 c 4
 42 570 26 596 26 628 c 4
EndSplineSet
Validated: 1
EndChar

StartChar: tilde
Encoding: 732 732 129
Width: 395
VWidth: 1250
Flags: W
HStem: 591 95<223.675 320.086> 639 99<75.1748 172.639>
LayerCount: 2
Fore
SplineSet
280 686 m 0x80
 308 686 321 711 342 711 c 0
 362 711 369 697 369 685 c 0
 369 647 319 591 247 591 c 4x80
 187 591 162 639 123 639 c 4
 92 639 76 609 53 609 c 4
 33 609 26 623 26 635 c 4
 26 678 73 738 143 738 c 0x40
 212 738 225 686 280 686 c 0x80
EndSplineSet
Validated: 1
EndChar

StartChar: ring
Encoding: 730 730 130
Width: 312
VWidth: 1250
Flags: W
HStem: 508 66<106.343 193.657> 674 64<106.343 193.657>
VStem: 25 73<582.892 665.424> 202 73<582.892 665.424>
LayerCount: 2
Fore
SplineSet
98 624 m 0
 98 596.142857143 117.290322581 574 150 574 c 4
 182.709677419 574 202 596.142857143 202 624 c 0
 202 651.857142857 182.709677419 674 150 674 c 4
 117.290322581 674 98 651.857142857 98 624 c 0
25 623 m 0
 25 686.888888889 80.5555555556 738 150 738 c 4
 219.444444444 738 275 686.888888889 275 623 c 0
 275 559.111111111 219.444444444 508 150 508 c 4
 80.5555555556 508 25 559.111111111 25 623 c 0
EndSplineSet
EndChar

StartChar: breve
Encoding: 728 728 131
Width: 366
VWidth: 1250
Flags: W
HStem: 557 112<110.529 257.291> 709 20G<37 59 308 330>
VStem: 24 320<638.028 723>
LayerCount: 2
Fore
SplineSet
184 669 m 0
 259 669 293 729 323 729 c 0
 337 729 344 723 344 707 c 0
 344 651 289 557 184 557 c 0
 79 557 24 651 24 707 c 0
 24 723 30 729 44 729 c 0
 74 729 109 669 184 669 c 0
EndSplineSet
Validated: 1
EndChar

StartChar: ogonek
Encoding: 731 731 132
Width: 302
VWidth: 1250
Flags: W
HStem: -189 72<145.025 241.007>
VStem: 26 112<-110.905 -15.7737>
LayerCount: 2
Fore
SplineSet
226 58 m 4
 226 14 138 5 138 -71 c 0
 138 -95 152 -117 184 -117 c 0
 219 -117 233 -92 258 -92 c 0
 270 -92 279 -102 279 -116 c 0
 279 -147 229 -189 166 -189 c 0
 80 -189 26 -145 26 -83 c 0
 26 19 147 75 200 75 c 0
 217 75 226 67 226 58 c 4
EndSplineSet
Validated: 1
EndChar

StartChar: cedilla
Encoding: 184 184 133
Width: 302
VWidth: 1250
Flags: W
HStem: -189 72<59.4238 161.865> -41.543 121.543<103.826 156.804> -41.543 46.543<127 163>
VStem: 71 86<-36.5 25.3273> 166 108<-111.016 -45.8321>
LayerCount: 2
Fore
SplineSet
180 7 m 4xb8
 234 7 274 -28 274 -90 c 4
 274 -156 220 -189 134 -189 c 4
 71 -189 21 -147 21 -116 c 4
 21 -102 31 -92 43 -92 c 4
 68 -92 81 -117 116 -117 c 4
 148 -117 166 -102 166 -80 c 4
 166 -58 149.471679688 -41.54296875 127 -41.54296875 c 4
 107 -41.54296875 92.8095703125 -47 84 -47 c 4
 75 -47 71 -40 71 -33 c 4
 71 -22.2294921875 84.7737671195 24.120800836 95 43 c 4
 108 67 118 80 139 80 c 4xd8
 160 80 168 66 168 54 c 4
 168 36 157 20 157 12 c 4
 157 7.6117185044 159.095703125 5 163 5 c 4
 167 5 170.971481966 7 180 7 c 4xb8
EndSplineSet
Validated: 1
EndChar

StartChar: periodcentered
Encoding: 183 183 134
Width: 255
VWidth: 1250
Flags: W
HStem: 288 190<69.162 186.07>
VStem: 32 190<323.93 440.838>
LayerCount: 2
Fore
SplineSet
32 382 m 4
 32 434 76 478 128 478 c 4
 180 478 222 434 222 382 c 4
 222 330 180 288 128 288 c 4
 76 288 32 330 32 382 c 4
EndSplineSet
Validated: 1
EndChar

StartChar: paragraph
Encoding: 182 182 135
Width: 755
VWidth: 1250
Flags: W
HStem: -12 70<377.343 542.888> 667.729 70<377.343 541>
VStem: 19 211<236.567 487.593> 402 84<-185.575 -16.7168 490.087 779.575> 413 62<100.17 553.964> 542 84<-185.575 -3.56009 490.087 779.575> 553 62<108.377 553.964>
LayerCount: 2
Fore
SplineSet
584 -190 m 4xe4
 559 -190 542 -175 542 -144 c 4xe4
 542 -55 553 96 553 328 c 4xe2
 553 532 542 659 542 738 c 4
 542 769 559 784 584 784 c 4
 609 784 626 769 626 738 c 4xe4
 626 659 615 532 615 328 c 4xe2
 615 96 626 -55 626 -144 c 4
 626 -175 609 -190 584 -190 c 4xe4
444 -190 m 4
 419 -190 402 -175 402 -144 c 4xf0
 402 -55 413 96 413 328 c 4xe8
 413 532 402 659 402 738 c 4
 402 769 419 784 444 784 c 4
 469 784 486 769 486 738 c 4xf0
 486 659 475 532 475 328 c 4xe8
 475 96 486 -55 486 -144 c 4xf0
 486 -175 469 -190 444 -190 c 4
19 362 m 0
 19 636 263 737.729492188 465 737.729492188 c 4
 605 737.729492188 722 663.729492188 722 607.729492188 c 4
 722 581.729492188 706 562.729492188 682 562.729492188 c 4
 615 562.729492188 597 667.729492188 482 667.729492188 c 4
 364 667.729492188 230 600 230 362 c 0
 230 124 364 58 482 58 c 4
 597 58 615 163 682 163 c 4
 706 163 722 144 722 118 c 4
 722 62 605 -12 465 -12 c 4
 263 -12 19 88 19 362 c 0
EndSplineSet
EndChar

StartChar: logicalnot
Encoding: 172 172 136
Width: 428
VWidth: 1250
Flags: W
HStem: 224 80<32.5818 206.571> 235 58<76.9068 333.765>
VStem: 330 80<103.582 207.294> 335 64<147.623 228.25>
LayerCount: 2
Fore
SplineSet
29 264 m 0x90
 29 289 44 304 75 304 c 0x90
 116 304 136 293 210 293 c 0x50
 282 293 317 304 352 304 c 0
 383 304 399 289 399 264 c 0x90
 399 192 410 181 410 146 c 0
 410 115 395 100 370 100 c 0
 345 100 330 115 330 146 c 0xa0
 330 174 335 193 335 208 c 4
 335 226 321 235 210 235 c 0x50
 136 235 116 224 75 224 c 0
 44 224 29 239 29 264 c 0x90
EndSplineSet
Validated: 1
EndChar

StartChar: dotlessi
Encoding: 305 305 137
Width: 320
VWidth: 1250
Flags: W
HStem: 0 67<13.8699 84 236 306.267> 411 68<11.7781 84>
VStem: 84 152<68.016 410.998>
AnchorPoint: "Anchor-3" 234 0 basechar 0
AnchorPoint: "Anchor-2" 158 0 basechar 0
AnchorPoint: "Anchor-0" 139 479 basechar 0
LayerCount: 2
Fore
SplineSet
84 396 m 2
 84 408 78 411 72 411 c 0
 64 411 60 407 46 407 c 0
 21 407 8 422 8 442 c 0
 8 462 26 479 60 479 c 0
 91 479 104 476 134 476 c 0
 163 476 174 479 200 479 c 0
 224 479 236 467 236 435 c 2
 236 82 l 2
 236 73 240 68 246 68 c 0
 254 68 257 72 271 72 c 0
 296 72 309 57 309 37 c 0
 309 17 298 0 256 0 c 0
 214 0 203 5 158 5 c 0
 113 5 106 0 64 0 c 0
 22 0 11 17 11 37 c 0
 11 57 23 72 48 72 c 0
 62 72 66 67 74 67 c 0
 80 67 84 71 84 82 c 2
 84 396 l 2
EndSplineSet
Validated: 1
EndChar

StartChar: uni0237
Encoding: 567 567 138
Width: 306
VWidth: 1250
Flags: W
HStem: -175 89<-49.0239 51.3801> 411 68<0.199017 70 222 291.801>
VStem: 70 152<-10.8906 410.996>
AnchorPoint: "Anchor-2" 0 -162 basechar 0
AnchorPoint: "Anchor-0" 144 479 basechar 0
LayerCount: 2
Fore
SplineSet
222 396 m 2
 222 85 l 2
 222 -46 101 -175 -5 -175 c 0
 -44 -175 -80 -155 -80 -114 c 0
 -80 -92 -64 -70 -35 -70 c 0
 -6 -70 -3 -86 21 -86 c 0
 42 -86 70 -62 70 24 c 2
 70 396 l 2
 70 407 66 411 60 411 c 0
 52 411 48 407 34 407 c 0
 9 407 -3 421 -3 441 c 0
 -3 461 8 479 50 479 c 0
 92 479 99 474 144 474 c 0
 189 474 200 479 242 479 c 0
 284 479 295 461 295 441 c 0
 295 421 283 407 258 407 c 0
 244 407 240 411 232 411 c 0
 226 411 222 405 222 396 c 2
EndSplineSet
Validated: 1
EndChar

StartChar: uni0308
Encoding: 776 776 139
Width: 463
VWidth: 1250
Flags: W
HStem: 570 167<85.6345 157.35 306.325 378.697>
AnchorPoint: "Anchor-0" 204 516 mark 0
LayerCount: 2
Fore
SplineSet
248 628 m 4
 248 685 319 738 375 738 c 4
 415 738 437 712 437 680 c 4
 437 623 369 570 313 570 c 4
 264 570 248 596 248 628 c 4
26 628 m 4
 26 685 97 737 153 737 c 4
 193 737 215 711 215 679 c 4
 215 622 147 570 91 570 c 4
 42 570 26 596 26 628 c 4
EndSplineSet
Validated: 1
EndChar

StartChar: acutecomb
Encoding: 769 769 148
Width: 288
VWidth: 1250
Flags: W
HStem: 539 59<33.8213 120.724> 718 20G<177.5 220.5>
VStem: 131 129<607.618 717.405>
AnchorPoint: "Anchor-0" 141 495 mark 0
LayerCount: 2
Fore
SplineSet
31 573 m 0
 31 594 50 598 74 598 c 0
 103 598 127 608 131 643 c 0
 139 711 155 738 200 738 c 0
 241 738 260 707 260 658 c 0
 260 589 200 539 108 539 c 0
 58 539 31 547 31 573 c 0
EndSplineSet
Validated: 1
EndChar

StartChar: quoteright
Encoding: 8217 8217 159
Width: 255
VWidth: 1250
Flags: W
HStem: 729 20G<102 154>
VStem: 80 142<483.5 680>
LayerCount: 2
Fore
SplineSet
32 654 m 4
 32 706 76 749 128 749 c 4
 180 749 222 706 222 654 c 4
 222 500 67 370 16 370 c 4
 2 370 -5 378 -5 389 c 4
 -5 425 80 467 80 536 c 4
 80 575 32 586 32 654 c 4
EndSplineSet
Validated: 1
EndChar

StartChar: quotedblright
Encoding: 8221 8221 160
Width: 492
VWidth: 1250
Flags: W
HStem: 729 20G<102 154 339 391>
VStem: 80 142<483.5 680> 318 142<483.5 680>
LayerCount: 2
Fore
SplineSet
270 654 m 0
 270 706 313 749 365 749 c 0
 417 749 460 706 460 654 c 0
 460 500 305 370 254 370 c 0
 240 370 232 378 232 389 c 0
 232 425 318 467 318 536 c 0
 318 575 270 586 270 654 c 0
32 654 m 0
 32 706 76 749 128 749 c 0
 180 749 222 706 222 654 c 0
 222 500 67 370 16 370 c 0
 2 370 -5 378 -5 389 c 0
 -5 425 80 467 80 536 c 0
 80 575 32 586 32 654 c 0
EndSplineSet
Validated: 1
EndChar

StartChar: quoteleft
Encoding: 8216 8216 161
Width: 255
VWidth: 1250
Flags: W
HStem: 729 20G<213.5 246>
VStem: 32 143<439 635.5>
LayerCount: 2
Fore
SplineSet
222 465 m 4
 222 413 180 370 128 370 c 4
 76 370 32 413 32 465 c 4
 32 619 188 749 239 749 c 4
 253 749 260 741 260 730 c 4
 260 694 175 652 175 583 c 4
 175 544 222 533 222 465 c 4
EndSplineSet
Validated: 1
EndChar

StartChar: quotedblleft
Encoding: 8220 8220 162
Width: 492
VWidth: 1250
Flags: W
HStem: 729 20G<213.5 246 450.5 483>
VStem: 32 143<439 635.5> 270 142<439 635.5>
LayerCount: 2
Fore
SplineSet
460 465 m 4
 460 413 417 370 365 370 c 4
 313 370 270 413 270 465 c 4
 270 619 425 749 476 749 c 4
 490 749 498 741 498 730 c 4
 498 694 412 652 412 583 c 4
 412 544 460 533 460 465 c 4
222 465 m 0
 222 413 180 370 128 370 c 0
 76 370 32 413 32 465 c 0
 32 619 188 749 239 749 c 0
 253 749 260 741 260 730 c 0
 260 694 175 652 175 583 c 0
 175 544 222 533 222 465 c 0
EndSplineSet
Validated: 1
EndChar

StartChar: quotedblbase
Encoding: 8222 8222 163
Width: 492
VWidth: 1250
Flags: W
VStem: 80 142<-88 108> 318 142<-88 108>
LayerCount: 2
Fore
SplineSet
270 82 m 0
 270 134 313 178 365 178 c 0
 417 178 460 134 460 82 c 0
 460 -72 305 -201 254 -201 c 0
 240 -201 232 -193 232 -182 c 0
 232 -146 318 -104 318 -35 c 0
 318 4 270 14 270 82 c 0
32 82 m 0
 32 134 76 178 128 178 c 0
 180 178 222 134 222 82 c 0
 222 -72 67 -201 16 -201 c 0
 2 -201 -5 -193 -5 -182 c 0
 -5 -146 80 -104 80 -35 c 0
 80 4 32 14 32 82 c 0
EndSplineSet
Validated: 1
EndChar

StartChar: gravecomb
Encoding: 768 768 164
Width: 288
VWidth: 1250
Flags: W
HStem: 539 59<176.27 262.271> 718 20G<75.5 118.5>
VStem: 36 129<607.618 717.405>
AnchorPoint: "Anchor-0" 146 495 mark 0
LayerCount: 2
Fore
SplineSet
265 573 m 4
 265 547 239 539 189 539 c 4
 97 539 36 589 36 658 c 4
 36 707 55 738 96 738 c 4
 141 738 157 711 165 643 c 4
 169 608 193 598 222 598 c 4
 246 598 265 594 265 573 c 4
EndSplineSet
Validated: 1
EndChar

StartChar: uni0302
Encoding: 770 770 177
Width: 341
VWidth: 1250
Flags: W
HStem: 618 120<128.496 213.504>
VStem: 21 300<570 621.328>
AnchorPoint: "Anchor-0" 171 519 mark 0
LayerCount: 2
Fore
SplineSet
171 738 m 0
 186 738 204 728 225 705 c 2
 301 620 l 2
 315 604 321 590 321 579 c 0
 321 570 316 560 302 560 c 0
 266 560 195 618 171 618 c 0
 147 618 76 560 40 560 c 0
 26 560 21 570 21 579 c 0
 21 590 27 604 41 620 c 2
 117 705 l 2
 138 728 156 738 171 738 c 0
EndSplineSet
Validated: 1
EndChar

StartChar: tildecomb
Encoding: 771 771 190
Width: 395
VWidth: 1250
Flags: W
HStem: 592 94<223.675 320.086> 640 98<75.1748 172.639>
AnchorPoint: "Anchor-0" 189 539 mark 0
LayerCount: 2
Fore
SplineSet
280 686 m 0x80
 308 686 321 711 342 711 c 0
 362 711 369 697 369 685 c 0
 369 647 319 592 247 592 c 0x80
 187 592 162 640 123 640 c 0
 92 640 76 610 53 610 c 0
 33 610 26 625 26 637 c 0
 26 680 73 738 143 738 c 0x40
 212 738 225 686 280 686 c 0x80
EndSplineSet
Validated: 1
EndChar

StartChar: uni030A
Encoding: 778 778 197
Width: 312
VWidth: 1250
Flags: W
HStem: 508 66<112.343 199.657> 674 64<112.343 199.657>
VStem: 31 73<582.892 665.424> 208 73<582.892 665.424>
AnchorPoint: "Anchor-0" 157 418 mark 0
LayerCount: 2
Fore
SplineSet
104 624 m 0
 104 596.142578125 123.290039062 574 156 574 c 0
 188.709960938 574 208 596.142578125 208 624 c 0
 208 651.857421875 188.709960938 674 156 674 c 0
 123.290039062 674 104 651.857421875 104 624 c 0
31 623 m 0
 31 686.888671875 86.5556640625 738 156 738 c 0
 225.444335938 738 281 686.888671875 281 623 c 0
 281 559.111328125 225.444335938 508 156 508 c 0
 86.5556640625 508 31 559.111328125 31 623 c 0
EndSplineSet
EndChar

StartChar: minus
Encoding: 8722 8722 200
Width: 500
VWidth: 1250
Flags: W
HStem: 282 80<35.7746 244.951 255.003 461.418> 294 57<80.6805 417.366>
LayerCount: 2
Back
SplineSet
32.5 322.5 m 4
 32.5 347.5 47.5 362.5 78.75 362.5 c 4
 106.25 362.5 126.25 351.25 210 351.25 c 4
 293.75 351.25 313.75 362.5 341.25 362.5 c 4
 372.5 362.5 387.5 347.5 387.5 322.5 c 4
 387.5 297.5 372.5 282.5 341.25 282.5 c 4
 313.75 282.5 293.75 293.75 210 293.75 c 4
 126.25 293.75 106.25 282.5 78.75 282.5 c 4
 47.5 282.5 32.5 297.5 32.5 322.5 c 4
EndSplineSet
Fore
SplineSet
32 322 m 4x80
 32 347 48 362 79 362 c 4x80
 115 362 141 351 250 351 c 4x40
 358 351 384 362 419 362 c 4
 450 362 465 347 465 322 c 4
 465 297 450 282 419 282 c 4x80
 384 282 358 294 250 294 c 4x40
 141 294 115 282 79 282 c 4
 48 282 32 297 32 322 c 4x80
EndSplineSet
Validated: 1
EndChar

StartChar: fraction
Encoding: 8260 8260 201
Width: 587
VWidth: 1250
Flags: W
LayerCount: 2
Fore
SplineSet
56 -60 m 0
 31 -60 22 -40 22 -21 c 0
 22 34 179 202 280 324 c 0
 379 444 451 544 495 617 c 0
 512 645 522 663 544 663 c 0
 568 663 575 643 575 630 c 0
 575 585 450 449 358 325 c 0
 197 109 132 50 106 -14 c 0
 94.2175347297 -43.0029914346 81 -60 56 -60 c 0
EndSplineSet
EndChar

StartChar: Euro
Encoding: 8364 8364 202
Width: 701
VWidth: 1250
Flags: W
HStem: -5 64<363.881 512.606> 199 80<29.5818 115.492 296.609 455.225> 210 58<135 410.366> 324 80<29.5818 113.502 294.084 480.418> 335 57<135 436.366> 556 64<359.998 494.429>
VStem: 112 178<233.999 377.765>
LayerCount: 2
Fore
SplineSet
26 364 m 0x96
 26 389 41 404 72 404 c 0x96
 108 404 135 392 244 392 c 0x8e
 377 392 403 404 438 404 c 0
 469 404 484 389 484 364 c 0
 484 339 469 324 438 324 c 0x96
 403 324 377 335 244 335 c 0x8e
 135 335 108 324 72 324 c 0
 41 324 26 339 26 364 c 0x96
26 239 m 0
 26 264 41 279 72 279 c 0xc6
 108 279 135 268 244 268 c 0xa6
 352 268 377 279 412 279 c 0
 443 279 459 264 459 239 c 0
 459 214 443 199 412 199 c 0xc6
 377 199 352 210 244 210 c 0xa6
 135 210 108 199 72 199 c 0xc6
 41 199 26 214 26 239 c 0
423 556 m 0
 340 556 290 470 290 311 c 0
 290 148 340 59 423 59 c 0
 569 59 552 164 618 164 c 0
 649 164 664 144 664 115 c 0
 664 52 572 -5 423 -5 c 0
 246 -5 112 124 112 311 c 0
 112 494 246 620 423 620 c 0
 585 620 664 544 664 484 c 0
 664 453 648 424 612 424 c 0
 507 424 561 556 423 556 c 0
EndSplineSet
Validated: 5
EndChar

StartChar: Thorn
Encoding: 222 222 203
Width: 661
VWidth: 1250
Flags: W
HStem: 0 67<14.8699 86 265 334.441> 216 55<272.924 389.897> 538 53<269.642 394.967> 661 68<14.8699 86 262 332.13>
VStem: 86 176<68.0771 215.571 281.074 529.592 586.004 660.997> 436 184<317.64 495.46>
LayerCount: 2
Fore
SplineSet
262 472 m 2
 262 349 l 2
 262 297 273 271 323 271 c 0
 383 271 436 309 436 404 c 0
 436 512 387 538 326 538 c 0
 265 538 262 510 262 472 c 2
262 609 m 2
 262 592 273 586 284 586 c 0
 301 586 318 591 349 591 c 0
 519 591 620 538 620 405 c 0
 620 246 495 212 379 212 c 0
 335 212 312 216 291 216 c 0
 272 216 265 209 265 190 c 2
 265 81 l 2
 265 73 269 68 275 68 c 0
 283 68 286 72 300 72 c 0
 325 72 337 57 337 37 c 0
 337 17 327 0 285 0 c 0
 243 0 225 5 174 5 c 0
 123 5 107 0 65 0 c 0
 23 0 12 17 12 37 c 0
 12 57 24 72 49 72 c 0
 63 72 67 67 75 67 c 0
 81 67 86 72 86 83 c 0
 86 108 86 646 86 646 c 0
 86 658 80 661 74 661 c 0
 66 661 63 657 49 657 c 0
 24 657 12 672 12 692 c 0
 12 712 23 729 65 729 c 0
 107 729 123 724 174 724 c 0
 225 724 240 729 282 729 c 0
 324 729 335 712 335 692 c 0
 335 672 323 657 298 657 c 0
 284 657 280 661 272 661 c 0
 266 661 262 657 262 645 c 2
 262 609 l 2
EndSplineSet
Validated: 1
EndChar

StartChar: thorn
Encoding: 254 254 204
Width: 630
VWidth: 1250
Flags: W
HStem: -145 67<8.8699 79 239 304.441> 18 40<256.543 319.951> 412 36<257.97 283.11> 682 67<6.77808 79>
VStem: 79 156<-76.8854 17.9934 77.7013 393.362 448.008 681.997> 422 179<128.067 350.291>
LayerCount: 2
Fore
SplineSet
422 231 m 0
 422 337 389 412 316 412 c 0
 249 412 235 374 235 320 c 2
 235 172 l 2
 235 85 255 58 317 58 c 0
 388 58 422 157 422 231 c 0
79 666 m 2
 79 678 73 682 67 682 c 0
 59 682 55 677 41 677 c 0
 16 677 3 692 3 712 c 0
 3 732 21 749 55 749 c 0
 86 749 101 746 131 746 c 0
 160 746 173 749 199 749 c 0
 223 749 235 737 235 705 c 2
 235 469 l 2
 235 459 235 448 250 448 c 0
 279 448 281 490 382 490 c 0
 537 490 601 383 601 235 c 0
 601 87 511 -5 360 -5 c 0
 294 -5 269 18 254 18 c 0
 239 18 239 9 239 -11 c 2
 239 -62 l 2
 239 -71 239 -77 245 -77 c 0
 253 -77 256 -73 270 -73 c 0
 295 -73 307 -88 307 -108 c 0
 307 -128 297 -145 255 -145 c 0
 213 -145 202 -140 157 -140 c 0
 112 -140 101 -145 59 -145 c 0
 17 -145 6 -128 6 -108 c 0
 6 -88 18 -73 43 -73 c 0
 57 -73 61 -78 69 -78 c 0
 75 -78 79 -73 79 -60 c 2
 79 666 l 2
EndSplineSet
Validated: 1
EndChar

StartChar: ae
Encoding: 230 230 205
Width: 826
VWidth: 1250
Flags: W
HStem: -5 74<197.484 286.871 547.3 686.179> 280 64<532.07 674.993> 289 60<195.067 281.743> 289 43<200.088 286.375> 432 58<190.451 279.56 557.247 651.895>
VStem: 6 166<93.3367 259.184> 298 212<111.105 270.089> 675 133<306.5 396.899>
AnchorPoint: "Anchor-0" 418 479 basechar 0
LayerCount: 2
Fore
SplineSet
118 368 m 0x9f
 92 368 78 389 78 409 c 0
 78 467 168 490 238 490 c 0
 377 490 394 425 418 425 c 0
 448 425 458 490 602 490 c 0
 721 490 808 414 808 318 c 0
 808 295 787 280 755 280 c 2
 568 280 l 2xcf
 528 280 510 259 510 212 c 0
 510 114 549 64 616 64 c 0
 719 64 689 150 767 150 c 0
 791 150 808 132 808 106 c 0
 808 49 727 -5 599 -5 c 0
 463 -5 433 65 404 65 c 0
 375 65 339 -5 219 -5 c 0
 113 -5 6 26 6 175 c 0
 6 310 138 349 198 349 c 0xaf
 243 349 259 332 278 332 c 0
 288 332 294 342 294 361 c 0
 294 389 281 432 239 432 c 0
 184 432 177 368 118 368 c 0x9f
241 289 m 0xaf
 186 289 172 231 172 179 c 0
 172 127 189 69 239 69 c 0
 280 69 298 96 298 126 c 2
 298 218 l 2
 298 257 286 289 241 289 c 0xaf
604 426 m 0
 561 426 531 397 531 366 c 0
 531 352 542 344 559 344 c 2
 644 344 l 2xcf
 666 344 675 350 675 366 c 0
 675 399 648 426 604 426 c 0
EndSplineSet
Validated: 1
EndChar

StartChar: AE
Encoding: 198 198 206
Width: 1045
VWidth: 1250
Flags: W
HStem: 0 68<54.6505 117.394 219.007 279.343 466.648 501 687.701 845.383> 214 84<354.007 500.075> 384 66<685.674 797.438> 661 67<370.786 428.997 683.789 822.876> 729 20G<867 906>
VStem: 501 179<74.2305 213.939 299.14 378.938 451.122 536.995>
AnchorPoint: "Anchor-0" 604 729 basechar 0
LayerCount: 2
Fore
SplineSet
469 298 m 2
 489 298 501 309 501 328 c 2
 501 522 l 2
 501 530 498 537 489 537 c 0
 455 537 354 350 354 320 c 0
 354 308 363 298 379 298 c 2
 469 298 l 2
421 661 m 0
 389 661 387 651 370 651 c 0
 355 651 340 660 340 686 c 0
 340 715 360 728 391 728 c 2
 768 729 l 2
 838 729 850 749 884 749 c 0
 928 749 924 696 952 648 c 0
 968 620 975 603 975 584 c 0
 975 565 960 548 935 548 c 0
 891 548 874 580 841 621 c 0
 810 660 785 664 736 664 c 0
 687 664 682 650 682 618 c 2
 682 478 l 2
 682 459 696 450 710 450 c 2
 751 450 l 2
 802 450 791 491 842 491 c 0
 876 491 883 440 911 392 c 0
 927 364 934 348 934 329 c 0
 934 310 919 292 894 292 c 0
 859 292 845 313 812 354 c 0
 791 380 769 384 734 384 c 0
 699 384 680 376 680 328 c 2
 680 128 l 2
 680 90 695 64 739 64 c 0
 818 64 847 87 875 114 c 0
 927 165 932 208 990 208 c 0
 1012 208 1028 188 1028 162 c 0
 1028 136 1008 122 988 78 c 0
 968 34 971 -28 915 -28 c 0
 864 -28 868 0 804 0 c 2
 580 0 l 2
 546 0 523 0 481 0 c 0
 439 0 428 17 428 37 c 0
 428 57 441 72 466 72 c 0
 480 72 483 67 491 67 c 0
 497 67 501 71 501 82 c 2
 501 184 l 2
 501 205 488 215 469 215 c 2
 338 214 l 2
 297 214 282 204 261 166 c 2
 226 102 l 2
 219 89 219 85 219 79 c 0
 219 73 228 68 240 68 c 0
 251 68 266 72 280 72 c 0
 305 72 317 57 317 37 c 0
 317 17 307 0 265 0 c 0
 223 0 191 5 176 5 c 0
 162 5 112 0 70 0 c 0
 28 0 17 17 17 37 c 0
 17 57 29 72 54 72 c 0
 68 72 74 67 88 67 c 0
 100 67 111 76 129 108 c 2
 420 638 l 2
 423 643 429 650 429 655 c 0
 429 659 425 661 421 661 c 0
EndSplineSet
Validated: 1
EndChar

StartChar: Oslash
Encoding: 216 216 207
Width: 826
VWidth: 1250
Flags: W
HStem: -12 75<337.913 482.087> 662 76<334.137 485.863>
VStem: 29 203<230.667 498.772> 588 203<230.667 498.772>
AnchorPoint: "Anchor-0" 410 729 basechar 0
AnchorPoint: "Anchor-2" 410 0 basechar 0
AnchorPoint: "Anchor-3" 481 0 basechar 0
LayerCount: 2
Fore
SplineSet
132 -78 m 0
 107 -78 97 -66 97 -48 c 0
 97 30 246 145 397 368 c 0
 534 570 614 661 657 735 c 0
 675 766 686 779 708 779 c 0
 732 779 738 761 738 740 c 0
 738 664 581 578 454 368 c 0
 315 137 234 32 186 -39 c 0
 169 -65 157 -78 132 -78 c 0
EndSplineSet
Refer: 32 79 N 1 0 0 1 0 0 2
Validated: 5
EndChar

StartChar: oslash
Encoding: 248 248 208
Width: 570
VWidth: 1250
Flags: W
HStem: -12 64<232.824 331.176> 426 64<232.824 331.176>
VStem: 21 165<134.324 342.105> 378 165<134.324 342.105>
AnchorPoint: "Anchor-0" 282 479 basechar 0
AnchorPoint: "Anchor-2" 281 0 basechar 0
AnchorPoint: "Anchor-3" 332 0 basechar 0
LayerCount: 2
Fore
SplineSet
282 -12 m 1028
79 -61 m 0
 54 -61 45 -41 45 -22 c 0
 45 33 142 103 239 229 c 0
 354 379 417 448 448 493 c 0
 467 520 479 534 501 534 c 0
 525 534 532 514 532 501 c 0
 532 456 431 356 316 230 c 0
 158 56 144 14 129 -15 c 0
 115 -43 104 -61 79 -61 c 0
EndSplineSet
Refer: 58 111 N 1 0 0 1 0 0 2
Validated: 5
EndChar

StartChar: uni0327
Encoding: 807 807 209
Width: 302
VWidth: 1250
Flags: W
HStem: -189 72<59.4238 161.865> -41.543 121.543<103.826 156.804> -41.543 46.543<127 163>
VStem: 71 86<-36.5 25.3273> 166 108<-111.016 -45.8321>
AnchorPoint: "Anchor-2" 134 41 mark 0
LayerCount: 2
Fore
SplineSet
180 7 m 4xb8
 234 7 274 -28 274 -90 c 4
 274 -156 220 -189 134 -189 c 4
 71 -189 21 -147 21 -116 c 4
 21 -102 31 -92 43 -92 c 4
 68 -92 81 -117 116 -117 c 4
 148 -117 166 -102 166 -80 c 4
 166 -58 149.471679688 -41.54296875 127 -41.54296875 c 4
 107 -41.54296875 92.8095703125 -47 84 -47 c 4
 75 -47 71 -40 71 -33 c 4
 71 -22.2294921875 84.7737671195 24.120800836 95 43 c 4
 108 67 118 80 139 80 c 4xd8
 160 80 168 66 168 54 c 4
 168 36 157 20 157 12 c 4
 157 7.6117185044 159.095703125 5 163 5 c 4
 167 5 170.971481966 7 180 7 c 4xb8
EndSplineSet
Validated: 1
EndChar

StartChar: ampersand.ss01
Encoding: 65541 -1 212
Width: 856
VWidth: 1250
Flags: W
HStem: -12 74<247.52 414.246 664.202 751.753> 38 150<494 575> 582 54<362.742 445.416> 701 48<244.352 485.11>
VStem: 61 94<499.443 607.971> 81 94<135.344 279.253> 240 115<487.146 573.359> 451 58<496.849 575.771> 675 61<286.403 516.899> 752 83<64.6231 135.5>
LayerCount: 2
Back
Fore
SplineSet
255 332 m 0xb7c0
 233 332 175 277 175 212 c 0
 175 122 245 62 329 62 c 0
 395 62 430 89 430 105 c 0
 430 117 393 160 348 218 c 0
 308 270 277 332 255 332 c 0xb7c0
396 478 m 0
 411 478 451 505 451 538 c 4
 451 564 433 582 405 582 c 0
 384 582 355 567 355 539 c 0
 355 501 381 478 396 478 c 0
256 442 m 0
 256 454 240 468 240 506 c 0
 240 582 299 636 388 636 c 0
 460 636 509 598 509 540 c 0
 509 452 416 442 416 411 c 0
 416 390 551 188 575 188 c 0x77c0
 599 188 675 272 675 404 c 0
 675 598 520 701 374 701 c 0
 213 701 155 633 155 579 c 0
 155 543 178 544 178 509 c 0
 178 480 151 461 122 461 c 16
 94 461 61 483 61 532 c 0
 61 611 148 749 376 749 c 0
 620 749 736 576 736 405 c 0
 736 220 615 147 615 135 c 0
 615 123 673 62 714 62 c 0
 738 62 752 73 752 85 c 0
 752 97 715 109 715 148 c 0
 715 174 733 195 769 195 c 0
 814 195 835 155 835 116 c 0
 835 50 764 -12 675 -12 c 0xbbc0
 575 -12 522 38 494 38 c 0x7bc0
 466 38 424 -12 335 -12 c 0
 197 -12 81 75 81 215 c 0
 81 380 256 422 256 442 c 0
EndSplineSet
EndChar

StartChar: multiply
Encoding: 215 215 213
Width: 500
VWidth: 1250
Flags: W
LayerCount: 2
Fore
SplineSet
96 170 m 0
 78 188 78 209 100 231 c 0
 120 251 144 260 181 297 c 0
 200 316 199 331 182 348 c 0
 139 391 121 393 100 414 c 0
 78 436 78 457 96 475 c 0
 114 493 135 493 157 471 c 0
 178 450 181 432 222 391 c 0
 239 374 252 367 273 388 c 0
 309 424 320 450 341 471 c 0
 363 493 384 493 402 475 c 0
 420 457 419 436 397 414 c 0
 376 393 351 384 316 349 c 0
 294 327 299 315 318 296 c 0
 358 256 376 252 397 231 c 0
 419 209 420 188 402 170 c 0
 384 152 363 152 341 174 c 0
 320 195 316 213 274 255 c 0
 258 271 240 272 221 253 c 0
 186 218 177 194 157 174 c 0
 135 152 114 152 96 170 c 0
EndSplineSet
Validated: 33
EndChar

StartChar: divide
Encoding: 247 247 214
Width: 500
VWidth: 1250
Flags: W
HStem: 79 190<189.765 310.235> 282 80<35.7746 244.951 255.003 461.418> 294 57<80.6805 417.366> 376 190<189.765 310.235>
VStem: 155 190<113.765 234.235 410.765 531.235>
LayerCount: 2
Fore
SplineSet
155 174 m 4x98
 155 226 198 269 250 269 c 4
 302 269 345 226 345 174 c 4
 345 122 302 79 250 79 c 4
 198 79 155 122 155 174 c 4x98
32 322 m 0
 32 347 48 362 79 362 c 0xd8
 115 362 141 351 250 351 c 0xb8
 358 351 384 362 419 362 c 0
 450 362 465 347 465 322 c 0
 465 297 450 282 419 282 c 0xd8
 384 282 358 294 250 294 c 0xb8
 141 294 115 282 79 282 c 0xd8
 48 282 32 297 32 322 c 0
155 471 m 0
 155 523 198 566 250 566 c 0
 302 566 345 523 345 471 c 0
 345 419 302 376 250 376 c 0
 198 376 155 419 155 471 c 0
EndSplineSet
Validated: 1
EndChar

StartChar: Eth
Encoding: 208 208 215
Width: 807
VWidth: 1250
Flags: W
HStem: 0 68<48.8336 97> 0 61<299.723 442.787> 320 80<9.58182 95.4916 280.318 435.225> 331 58<115 390.366> 661 68<46.8343 96.9607 293.947 446.893>
VStem: 97 181<82.3997 645.364> 570 205<239.297 502.275>
AnchorPoint: "Anchor-2" 368 0 basechar 0
AnchorPoint: "Anchor-0" 364 729 basechar 0
LayerCount: 2
Fore
SplineSet
6 360 m 0x2e
 6 385 21 400 52 400 c 0x2e
 88 400 115 389 224 389 c 0x1e
 332 389 357 400 392 400 c 0
 423 400 439 385 439 360 c 0
 439 335 423 320 392 320 c 0x2e
 357 320 332 331 224 331 c 0x1e
 115 331 88 320 52 320 c 0
 21 320 6 335 6 360 c 0x2e
72 0 m 2x8e
 34 0 12 12 12 41 c 0
 12 67 33 77 48 77 c 0
 66 77 70 68 82 68 c 0x8e
 92 68 97 75 97 90 c 2
 97 637 l 2
 97 652 91 661 81 661 c 0
 69 661 64 652 46 652 c 0
 31 652 11 662 11 688 c 0
 11 717 33 729 71 729 c 2
 409 729 l 2
 614 729 775 597 775 366 c 0
 775 135 590 0 398 0 c 2x4e
 72 0 l 2x8e
278 142 m 2
 278 71 330 61 374 61 c 0x4e
 462 61 570 154 570 377 c 0
 570 600 446 664 358 664 c 0
 314 664 278 645 278 590 c 2
 278 142 l 2
EndSplineSet
Validated: 5
EndChar

StartChar: eth
Encoding: 240 240 216
Width: 592
VWidth: 1250
Flags: W
HStem: -12 64<232.824 331.176> 426 64<232.401 332.349> 515 75<160.029 255.808> 635 83<456.281 545.723> 659 100<185.498 320.757>
VStem: 21 165<134.324 344.957> 378 165<177.953 366.835> 412 131<216 515.972>
AnchorPoint: "Anchor-2" 281 0 basechar 0
AnchorPoint: "Anchor-0" 282 479 basechar 0
LayerCount: 2
Back
SplineSet
394.40234375 455 m 0
 406.25 455 412.5 461.25 412.5 476.25 c 0
 412.5 507.5 378.75 658.75 238.75 658.75 c 0
 197.5 658.75 175 675 175 707.5 c 0
 175 747.729492188 215 758.958984375 255 758.958984375 c 0
 442.5 758.958984375 543.125 571.25 543.125 343.75 c 0
 543.125 87.5 430.625 -11.6455078125 281.875 -11.6455078125 c 0
 133.125 -11.6455078125 20.625 87.5 20.625 237.5 c 0
 20.625 387.5 133.125 490 263.75 490 c 0
 336.25 490 367.5 455 394.40234375 455 c 0
281.875 426 m 0
 222.375 426 186.125 360 186.125 237.5 c 0
 186.125 115 222.375 52.3544921875 281.875 52.3544921875 c 0
 341.375 52.3544921875 377.625 115 377.625 237.5 c 0
 377.625 360 341.375 426 281.875 426 c 0
EndSplineSet
Fore
SplineSet
155 552 m 0xf4
 155 570 167 579 196 590 c 0
 230 602 259 609 356 646 c 0
 440 678 476 718 511 718 c 0
 535 718 552 704 552 678 c 0
 552 657 540 646 511 635 c 0
 478 623 461 624 376 593 c 0
 277 557 234 515 198 515 c 0
 176 515 155 527 155 552 c 0xf4
282 426 m 0
 222 426 186 360 186 238 c 0
 186 116 222 52 282 52 c 0
 342 52 378 116 378 238 c 0xe6
 378 360 342 426 282 426 c 0
394 455 m 0
 406 455 412 461 412 476 c 0
 412 507 379 659 239 659 c 0
 198 659 175 676 175 708 c 0
 175 748 215 759 255 759 c 0xed
 443 759 543 572 543 344 c 0
 543 88 431 -12 282 -12 c 0
 133 -12 21 88 21 238 c 0
 21 388 133 490 264 490 c 0
 336 490 367 455 394 455 c 0
EndSplineSet
Validated: 5
EndChar

StartChar: uni0304
Encoding: 772 772 220
Width: 428
VWidth: 1250
Flags: W
HStem: 649 80<32.5818 206.571 213.348 395.225> 660 58<76.9068 350.359>
AnchorPoint: "Anchor-0" 211 609 mark 0
LayerCount: 2
Fore
SplineSet
29 689 m 0x80
 29 714 44 729 75 729 c 0x80
 116 729 136 718 210 718 c 0x40
 282 718 317 729 352 729 c 0
 383 729 399 714 399 689 c 0
 399 664 383 649 352 649 c 0x80
 317 649 282 660 210 660 c 0x40
 136 660 116 649 75 649 c 0
 44 649 29 664 29 689 c 0x80
EndSplineSet
Validated: 1
EndChar

StartChar: uni0306
Encoding: 774 774 221
Width: 366
VWidth: 1250
Flags: W
HStem: 557 112<110.529 257.291> 709 20G<37 59 308 330>
VStem: 24 320<638.028 723>
AnchorPoint: "Anchor-0" 182 517 mark 0
LayerCount: 2
Fore
SplineSet
184 669 m 0
 259 669 293 729 323 729 c 0
 337 729 344 723 344 707 c 0
 344 651 289 557 184 557 c 0
 79 557 24 651 24 707 c 0
 24 723 30 729 44 729 c 0
 74 729 109 669 184 669 c 0
EndSplineSet
Validated: 1
EndChar

StartChar: uni0307
Encoding: 775 775 222
Width: 241
VWidth: 1250
Flags: W
HStem: 570 167<85.6345 157.35>
VStem: 26 189<623.9 683.1>
AnchorPoint: "Anchor-0" 116 516 mark 0
LayerCount: 2
Fore
SplineSet
26 628 m 4
 26 685 97 737 153 737 c 4
 193 737 215 711 215 679 c 4
 215 622 147 570 91 570 c 4
 42 570 26 596 26 628 c 4
EndSplineSet
Validated: 1
EndChar

StartChar: uni030C
Encoding: 780 780 223
Width: 341
VWidth: 1250
Flags: W
HStem: 551 120<128.496 213.504> 709 20G<33 58 284 309>
VStem: 21 300<667.672 719>
AnchorPoint: "Anchor-0" 170 519 mark 0
LayerCount: 2
Fore
SplineSet
171 551 m 0
 156 551 138 561 117 584 c 2
 41 669 l 2
 27 685 21 699 21 710 c 0
 21 719 26 729 40 729 c 0
 76 729 147 671 171 671 c 0
 195 671 266 729 302 729 c 0
 316 729 321 719 321 710 c 0
 321 699 315 685 301 669 c 2
 225 584 l 2
 204 561 186 551 171 551 c 0
EndSplineSet
Validated: 1
EndChar

StartChar: uni030B
Encoding: 779 779 224
Width: 513
VWidth: 1250
Flags: W
HStem: 539 59<33.8213 120.724 258.729 344.73> 718 20G<177.5 220.5 402.5 445.5>
VStem: 131 129<607.618 717.405> 356 129<607.618 717.405>
AnchorPoint: "Anchor-0" 241 495 mark 0
LayerCount: 2
Fore
SplineSet
256 573 m 0
 256 594 275 598 299 598 c 0
 328 598 352 608 356 643 c 0
 364 711 380 738 425 738 c 0
 466 738 485 707 485 658 c 0
 485 589 424 539 332 539 c 0
 282 539 256 547 256 573 c 0
31 573 m 0
 31 594 50 598 74 598 c 0
 103 598 127 608 131 643 c 0
 139 711 155 738 200 738 c 0
 241 738 260 707 260 658 c 0
 260 589 200 539 108 539 c 0
 58 539 31 547 31 573 c 0
EndSplineSet
Validated: 1
EndChar

StartChar: uni030F
Encoding: 783 783 225
Width: 513
VWidth: 1250
Flags: W
HStem: 539 59<176.27 262.271 401.27 487.271> 718 20G<75.5 118.5 300.5 343.5>
VStem: 36 129<607.618 717.405> 261 129<607.618 717.405>
AnchorPoint: "Anchor-0" 304 495 mark 0
LayerCount: 2
Fore
SplineSet
490 573 m 0
 490 547 464 539 414 539 c 0
 322 539 261 589 261 658 c 0
 261 707 280 738 321 738 c 0
 366 738 382 711 390 643 c 0
 394 608 419 598 448 598 c 0
 472 598 490 594 490 573 c 0
265 573 m 0
 265 547 239 539 189 539 c 0
 97 539 36 589 36 658 c 0
 36 707 55 738 96 738 c 0
 141 738 157 711 165 643 c 0
 169 608 193 598 222 598 c 0
 246 598 265 594 265 573 c 0
EndSplineSet
Validated: 1
EndChar

StartChar: A.ss01
Encoding: 65542 -1 310
Width: 788
VWidth: 1250
Flags: W
HStem: 0 72<-12.1301 78.5006 170.007 266.267 450.877 524.996 708.488 791.13> 215 83<269.063 422.754> 646 83<196.503 283.997>
AnchorPoint: "Anchor-2" 358 0 basechar 0
AnchorPoint: "Anchor-0" 346 729 basechar 0
LayerCount: 2
Fore
SplineSet
170 79 m 0
 170 73 179 68 191 68 c 0
 202 68 217 72 231 72 c 0
 256 72 269 57 269 37 c 0
 269 17 258 0 216 0 c 0
 174 0 143 5 128 5 c 0
 114 5 80 0 38 0 c 0
 -4 0 -15 17 -15 37 c 0
 -15 57 -3 72 22 72 c 0
 36 72 41 67 55 67 c 0
 67 67 71 74 84 108 c 2
 261 559 l 2
 272 588 284 625 284 641 c 0
 284 649 280 652 272 652 c 0
 264 652 259 646 238 646 c 0
 213 646 191 661 191 685 c 0
 191 720 217 729 269 729 c 2
 384 729 l 2
 441 729 453 690 473 642 c 2
 701 110 l 2
 716 76 721 68 732 68 c 0
 740 68 743 72 757 72 c 0
 782 72 794 57 794 37 c 0
 794 17 783 0 741 0 c 0
 699 0 672 5 621 5 c 0
 570 5 544 0 502 0 c 0
 460 0 448 17 448 37 c 0
 448 57 460 72 485 72 c 0
 499 72 503 67 511 67 c 0
 519 67 525 72 525 81 c 0
 525 85 525 87 523 91 c 2
 492 162 l 2
 476 199 466 215 426 215 c 2
 264 215 l 2
 223 215 215 212 200 167 c 2
 178 102 l 2
 173 88 170 85 170 79 c 0
342 474 m 0
 314 474 268 367 268 329 c 0
 268 310 280 298 304 298 c 2
 391 298 l 2
 412 298 424 309 424 330 c 0
 424 360 370 474 342 474 c 0
EndSplineSet
Validated: 1
EndChar

StartChar: A.ss02
Encoding: 65543 -1 311
Width: 788
VWidth: 1250
Flags: W
HStem: 0 72<-12.1301 78.1669 170.007 266.267 450.877 524.996 708.488 791.13> 215 83<269.063 422.754> 474 255<332.186 405>
AnchorPoint: "Anchor-2" 358 0 basechar 0
AnchorPoint: "Anchor-0" 346 729 basechar 0
LayerCount: 2
Fore
SplineSet
384 729 m 0
 426 729 452 690 470 649 c 2
 701 110 l 2
 716 76 721 68 732 68 c 0
 740 68 743 72 757 72 c 0
 782 72 794 57 794 37 c 0
 794 17 783 0 741 0 c 0
 699 0 672 5 621 5 c 0
 570 5 544 0 502 0 c 0
 460 0 448 17 448 37 c 0
 448 57 460 72 485 72 c 0
 499 72 503 67 511 67 c 0
 519 67 525 72 525 81 c 0
 525 85 525 87 523 91 c 2
 492 162 l 2
 476 199 466 215 426 215 c 2
 264 215 l 2
 223 215 215 212 200 167 c 2
 178 102 l 2
 173 88 170 85 170 79 c 0
 170 73 179 68 191 68 c 0
 202 68 217 72 231 72 c 0
 256 72 269 57 269 37 c 0
 269 17 258 0 216 0 c 0
 174 0 143 5 128 5 c 0
 114 5 80 0 38 0 c 0
 -4 0 -15 17 -15 37 c 0
 -15 57 -3 72 22 72 c 0
 36 72 41 67 55 67 c 0
 67 67 70 74 84 108 c 2
 306 655 l 2
 320 690 330 729 384 729 c 0
342 474 m 0
 314 474 268 367 268 329 c 0
 268 310 280 298 304 298 c 2
 391 298 l 2
 412 298 424 309 424 330 c 0
 424 360 370 474 342 474 c 0
EndSplineSet
Validated: 1
EndChar

StartChar: G.ss01
Encoding: 65544 -1 312
Width: 765
VWidth: 1250
Flags: W
HStem: -12 70<333.327 467.821 668.948 732.816> 335 72<420.87 513.662 668.375 749.13> 488 21G<600 624> 664 74<347.56 500.754>
VStem: 19 211<221.114 497.538> 515 153<104.493 338.938> 569 79<496.334 597.472>
LayerCount: 2
Fore
SplineSet
569 548 m 0xfa
 543 636 490 664 429 664 c 0
 341 664 230 600 230 362 c 0
 230 124 331 58 399 58 c 0
 463 58 515 104 515 175 c 2
 515 325 l 2
 515 337 505 339 499 339 c 0
 491 339 469 335 455 335 c 0
 430 335 418 350 418 370 c 0
 418 390 429 407 471 407 c 0
 513 407 539 396 590 396 c 0
 641 396 657 407 699 407 c 0
 741 407 752 390 752 370 c 0
 752 350 740 335 715 335 c 0
 701 335 685 340 677 340 c 0
 671 340 668 337 668 325 c 2
 668 102 l 2xfc
 668 71 670 52 702 52 c 0
 722 52 738 47 738 28 c 0
 738 0 711 -12 670 -12 c 0
 558 -12 549 45 529 45 c 0
 505 45 493 -12 355 -12 c 0
 203 -12 19 100 19 362 c 0
 19 649 247 738 411 738 c 0
 473 738 506 710 520 710 c 0
 536 710 541 729 565 729 c 0
 589 729 601 698 614 658 c 0
 628 616 648 564 648 525 c 0
 648 506 636 488 612 488 c 0
 588 488 582 505 569 548 c 0xfa
EndSplineSet
Validated: 1
EndChar

StartChar: K.ss01
Encoding: 65545 -1 313
Width: 767
VWidth: 1250
Flags: W
HStem: 0 72<10.733 61 71 81 260 270 280 329.441 415.733 466 476 484.998 665.312 686 697 747.13> 411 45<285 350> 661 68<10.733 61 71 81 260 269 279 329.13 427.87 478 494 508.997 595.188 625 642 692.13>
AnchorPoint: "Anchor-2" 370 0 basechar 0
AnchorPoint: "Anchor-0" 370 729 basechar 0
LayerCount: 2
Fore
SplineSet
600 645 m 6
 606 651 613 661 625 661 c 4
 639 661 644 657 658 657 c 4
 683 657 695 672 695 692 c 4
 695 712 684 729 642 729 c 4
 600 729 580 727 566 727 c 4
 551 727 520 729 478 729 c 4
 436 729 425 712 425 692 c 4
 425 672 437 657 462 657 c 4
 476 657 486 661 494 661 c 4
 505 661 509 659 509 654 c 4
 509 651 507 648 504 645 c 6
 322 475 l 2
 311 466 300 456 285 456 c 0
 273 456 260 463 260 484 c 2
 260 646 l 2
 260 658 263 661 269 661 c 0
 277 661 281 657 295 657 c 0
 320 657 332 672 332 692 c 0
 332 712 321 729 279 729 c 0
 237 729 221 724 170 724 c 0
 119 724 103 729 61 729 c 0
 19 729 8 712 8 692 c 0
 8 672 21 657 46 657 c 0
 60 657 63 661 71 661 c 0
 77 661 81 658 81 646 c 2
 81 82 l 2
 81 71 77 67 71 67 c 0
 63 67 60 72 46 72 c 0
 21 72 8 57 8 37 c 0
 8 17 19 0 61 0 c 0
 103 0 119 5 170 5 c 0
 221 5 238 0 280 0 c 0
 322 0 332 17 332 37 c 0
 332 57 320 72 295 72 c 0
 281 72 278 68 270 68 c 0
 264 68 260 74 260 82 c 2
 260 338 l 2
 260 349 269 360 285 371 c 2
 330 401 l 2
 340 408 346 411 350 411 c 0
 366 411 373 397 384 367 c 2
 482 82 l 2
 484 79 485 76 485 74 c 0
 485 70 482 67 476 67 c 0
 468 67 465 72 451 72 c 0
 426 72 413 57 413 37 c 0
 413 17 424 0 466 0 c 0
 508 0 532 5 583 5 c 0
 634 5 655 0 697 0 c 0
 739 0 750 17 750 37 c 0
 750 57 738 72 713 72 c 0
 699 72 695 68 686 68 c 0
 680 68 675 71 670 82 c 2
 520 462 l 2
 511 486 502 514 502 524 c 0
 502 536 506 550 523 567 c 2
 600 645 l 6
EndSplineSet
Validated: 9
EndChar

StartChar: M.ss01
Encoding: 65546 -1 314
Width: 1007
VWidth: 1250
Flags: W
HStem: 0 72<10.733 81 164 233.13 670.733 741 920 989.441> 661 68<10.733 81 920 989.13>
VStem: 81 83<68.016 504.993> 741 179<68.016 509.993>
AnchorPoint: "Anchor-2" 458 0 basechar 0
AnchorPoint: "Anchor-0" 508 729 basechar 0
LayerCount: 2
Fore
SplineSet
140 728 m 0
 162 728 237 729 259 729 c 0
 283 729 296 719 314 683 c 2
 460 395 l 2
 474 368 491 360 505 360 c 0
 519 360 537 368 551 396 c 2
 703 697 l 2
 714 718 725 728 750 728 c 0
 775 728 833 728 864 728 c 0
 893 728 897 729 939 729 c 0
 981 729 992 712 992 692 c 0
 992 672 980 657 955 657 c 0
 941 657 937 661 929 661 c 0
 923 661 920 658 920 646 c 2
 920 83 l 2
 920 74 924 68 930 68 c 0
 938 68 941 72 955 72 c 0
 980 72 992 57 992 37 c 0
 992 17 982 0 940 0 c 0
 898 0 881 5 830 5 c 0
 779 5 763 0 721 0 c 0
 679 0 668 17 668 37 c 0
 668 57 681 72 706 72 c 0
 720 72 723 67 731 67 c 0
 737 67 741 71 741 82 c 2
 741 480 l 2
 741 500 733 510 721 510 c 0
 709 510 698 502 692 489 c 2
 494 30 l 2
 484 7 470 0 458 0 c 0
 446 0 432 5 421 30 c 2
 236 451 l 2
 220 488 203 505 185 505 c 0
 173 505 164 495 164 479 c 2
 164 82 l 2
 164 74 168 68 174 68 c 0
 182 68 185 72 199 72 c 0
 224 72 236 57 236 37 c 0
 236 17 225 0 183 0 c 0
 141 0 139 2 124 2 c 0
 110 2 103 0 61 0 c 0
 19 0 8 17 8 37 c 0
 8 57 21 72 46 72 c 0
 60 72 63 67 71 67 c 0
 77 67 81 71 81 82 c 2
 81 646 l 2
 81 658 77 661 71 661 c 0
 63 661 60 657 46 657 c 0
 21 657 8 672 8 692 c 0
 8 712 19 729 61 729 c 0
 103 729 114 728 140 728 c 0
EndSplineSet
Validated: 1
EndChar

StartChar: N.ss01
Encoding: 65547 -1 315
Width: 855
VWidth: 1250
Flags: W
HStem: 0 68<82.1779 164.671 206.351 286.91 734.049 803.734> 661 68<92.835 143.542 562.87 651 734 817.441>
VStem: 144 82<68.0781 419.995> 651 83<341.013 660.996>
LayerCount: 2
Fore
SplineSet
734 75 m 2
 735 68 739 63 744 63 c 0
 752 63 755 67 769 67 c 0
 794 67 806 53 806 33 c 0
 806 13 795 -5 753 -5 c 0
 737 -5 728 0 698 0 c 0
 680 0 667 6 651 22 c 2
 299 376 l 2
 279 396 266 420 248 420 c 0
 230 420 226 413 226 365 c 2
 226 81 l 2
 226 72 234 68 240 68 c 0
 248 68 256 72 270 72 c 0
 295 72 307 57 307 37 c 0
 307 17 297 0 255 0 c 0
 213 0 201 2 186 2 c 0
 172 2 157 0 115 0 c 0
 73 0 62 17 62 37 c 0
 62 57 74 72 99 72 c 0
 113 72 122 67 130 67 c 0
 136 67 144 73 144 82 c 2
 144 624 l 2
 144 648 142 661 128 661 c 0
 116 661 110 652 92 652 c 0
 77 652 58 662 58 688 c 0
 58 717 87 729 118 729 c 0
 144 729 175 729 204 729 c 0
 240 729 254 710 282 682 c 2
 572 390 l 2
 612 350 618 341 632 341 c 0
 646 341 651 359 651 395 c 2
 651 646 l 2
 651 655 647 661 629 661 c 0
 621 661 611 657 597 657 c 0
 572 657 560 672 560 692 c 0
 560 712 571 729 613 729 c 0
 655 729 676 727 691 727 c 0
 705 727 726 729 768 729 c 0
 810 729 820 712 820 692 c 0
 820 672 808 657 783 657 c 0
 769 657 764 661 750 661 c 0
 738 661 734 658 734 648 c 2
 734 75 l 2
EndSplineSet
Validated: 1
EndChar

StartChar: Q.ss01
Encoding: 65548 -1 316
Width: 826
VWidth: 1250
Flags: W
HStem: -145 85<772.674 942.009> -12 75<337.913 446.454> 662 76<334.137 485.863>
VStem: 29 203<230.667 498.772> 588 203<230.667 498.772>
AnchorPoint: "Anchor-0" 410 729 basechar 0
AnchorPoint: "Anchor-2" 410 0 basechar 0
LayerCount: 2
Back
Fore
SplineSet
652 101 m 25
 652 101 706 -60 862 -60 c 0
 937 -60 946 -20 1000 -20 c 0
 1030 -20 1048 -35 1048 -61 c 0
 1048 -110 972 -145 851 -145 c 0
 597 -145 451 24 451 24 c 25
 652 101 l 25
410 63 m 4
 498 63 588 142 588 365 c 4
 588 588 498 662 410 662 c 4
 322 662 232 588 232 365 c 4
 232 142 322 63 410 63 c 4
410 -12 m 4
 218 -12 29 121 29 365 c 4
 29 609 205 738 410 738 c 4
 615 738 791 609 791 365 c 4
 791 121 602 -12 410 -12 c 4
EndSplineSet
Validated: 5
EndChar

StartChar: R.ss01
Encoding: 65549 -1 317
Width: 753
VWidth: 1250
Flags: W
HStem: -5 86<559.842 668.869> 0 67<14.8699 84.6618 265.181 334.441> 359 50<272.135 350.765> 661 68<35.8343 85.9825> 676 53<268.965 392.148>
VStem: 86 179<68.1094 355.51 416.385 660.857> 441 197<462.495 632.543> 669 81<82.5516 134.38>
AnchorPoint: "Anchor-2" 395 0 basechar 0
AnchorPoint: "Anchor-0" 320 729 basechar 0
LayerCount: 2
Fore
SplineSet
262 611 m 2x2f
 262 486 l 2
 262 434 273 409 323 409 c 0
 383 409 441 453 441 548 c 0
 441 643 387 676 326 676 c 0
 265 676 262 649 262 611 c 2x2f
60 729 m 2x77
 376 729 l 2
 551 729 638 665 638 544 c 0
 638 398 527 396 527 355 c 0
 527 333 536 325 576 210 c 0
 611 108 630 81 649 81 c 0
 664 81 669 92 669 105 c 0
 669 128 684 142 705 142 c 0
 726 142 750 124 750 88 c 0
 750 50 718 -5 614 -5 c 0
 498 -5 448 54 392 236 c 0
 366 321 353 359 312 359 c 0
 276 359 265 346 265 318 c 2
 265 81 l 2xaf
 265 73 269 68 275 68 c 0
 283 68 286 72 300 72 c 0
 325 72 337 57 337 37 c 0
 337 17 327 0 285 0 c 0
 243 0 225 5 174 5 c 0
 123 5 107 0 65 0 c 0
 23 0 12 17 12 37 c 0
 12 57 24 72 49 72 c 0
 63 72 67 67 75 67 c 0
 81 67 86 73 86 84 c 2
 86 638 l 2
 86 654 80 661 70 661 c 0
 58 661 53 652 35 652 c 0
 20 652 0 662 0 688 c 0
 0 717 22 729 60 729 c 2x77
EndSplineSet
Validated: 1
EndChar

StartChar: uni0311
Encoding: 785 785 367
Width: 366
VWidth: 1250
Flags: W
HStem: 625 113<110.529 257.291>
VStem: 24 320<572 656.972>
AnchorPoint: "Anchor-0" 182 530 mark 0
LayerCount: 2
Fore
SplineSet
184 625 m 0
 109 625 74 566 44 566 c 0
 30 566 24 572 24 588 c 0
 24 644 79 738 184 738 c 0
 289 738 344 644 344 588 c 0
 344 572 337 566 323 566 c 0
 293 566 259 625 184 625 c 0
EndSplineSet
Validated: 1
EndChar

StartChar: Z.ss01
Encoding: 65550 -1 380
Width: 625
VWidth: 1250
Flags: W
HStem: 0 70<251.014 295 356 411.858> 660 69<242.563 298 334 371.99>
VStem: 17 234<19.5 96> 61 157<567.732 635.459> 372 213<634.498 706> 435 165<95.3438 162.425>
AnchorPoint: "Anchor-2" 308 0 basechar 0
AnchorPoint: "Anchor-0" 370 729 basechar 0
LayerCount: 2
Fore
SplineSet
356 70 m 2xe4
 295 70 l 2
 270 70 251 74 251 92 c 0xe4
 251 100 255 110 264 125 c 2
 532 580 l 2
 571 645 585 673 585 695 c 0
 585 717 571 729 535 729 c 2
 238 729 l 6
 113 729 61 648 61 582 c 4
 61 543 88 526 122 526 c 4
 164 526 196 557 218 602 c 4
 236 639 257 660 298 660 c 6
 334 660 l 2
 359 660 372 656 372 643 c 0xd8
 372 636 368 627 361 615 c 2
 31 70 l 2
 21 53 17 42 17 28 c 0
 17 11 28 0 48 0 c 2
 424 0 l 2
 549 0 600 80 600 146 c 0
 600 185 572 209 530 209 c 0
 488 209 457 172 435 127 c 0
 417 90 397 70 356 70 c 2xe4
EndSplineSet
Validated: 9
EndChar

StartChar: a.ss01
Encoding: 65551 -1 381
Width: 528
VWidth: 1250
Flags: W
HStem: 0 71<442.005 489.303> 31 31<264.386 281.032> 289 60<167.168 281.743> 289 43<200.088 286.375> 432 58<190.451 277.167>
VStem: 6 166<87.5478 259.284> 298 156<89.5034 403.217> 298 144<73.2677 278.507>
AnchorPoint: "Anchor-2" 250 0 basechar 0
AnchorPoint: "Anchor-0" 250 479 basechar 0
LayerCount: 2
Fore
SplineSet
241 289 m 0x6e
 186 289 172 227 172 175 c 0
 172 123 189 62 239 62 c 0
 280 62 298 90 298 120 c 2
 298 218 l 2
 298 257 286 289 241 289 c 0x6e
118 368 m 0
 92 368 78 389 78 409 c 0
 78 467 168 490 238 490 c 0
 403 490 454 408 454 308 c 0x1e
 454 219 442 119 442 88 c 0
 442 77 449 71 458 71 c 4
 469 71 475 78 490 78 c 0
 510 78 519 62 519 44 c 0
 519 24 503 0 455 0 c 2
 364 0 l 2x9d
 333 0 328 31 300 31 c 0
 272 31 244 -12 169 -12 c 0
 113 -12 6 26 6 175 c 0
 6 310 138 349 198 349 c 0x6d
 243 349 259 332 278 332 c 0x1d
 288 332 294 342 294 361 c 0
 294 389 281 432 239 432 c 0
 184 432 177 368 118 368 c 0
EndSplineSet
Validated: 1
EndChar

StartChar: a.ss02
Encoding: 65552 -1 382
Width: 516
VWidth: 1250
Flags: W
HStem: -12 112<425.004 486.456> 31 31<264.386 281.032> 289 60<167.168 281.743> 289 43<200.088 286.375> 432 58<190.451 277.167>
VStem: 6 166<87.5478 259.284> 298 156<153.11 403.217> 298 127<100.872 220.287>
AnchorPoint: "Anchor-0" 250 479 basechar 0
AnchorPoint: "Anchor-2" 250 0 basechar 0
LayerCount: 2
Fore
SplineSet
118 368 m 0x1d
 92 368 78 389 78 409 c 0
 78 467 168 490 238 490 c 0
 403 490 454 408 454 308 c 0x1e
 454 208 425 140 425 115 c 0
 425 107 430 100 440 100 c 0
 449 100 452 105 469 105 c 0
 485 105 510 90 510 54 c 4
 510 18 469 -12 421 -12 c 0x9d
 352 -12 328 31 300 31 c 0x4d
 272 31 244 -12 169 -12 c 0
 113 -12 6 26 6 175 c 0
 6 310 138 349 198 349 c 0xad
 243 349 259 332 278 332 c 0
 288 332 294 342 294 361 c 0
 294 389 281 432 239 432 c 0
 184 432 177 368 118 368 c 0x1d
241 289 m 0x6e
 186 289 172 227 172 175 c 0
 172 123 189 62 239 62 c 0
 280 62 298 90 298 120 c 2x6d
 298 218 l 2
 298 257 286 289 241 289 c 0x6e
EndSplineSet
Validated: 1
EndChar

StartChar: g.ss01
Encoding: 65553 -1 383
Width: 538
VWidth: 1250
Flags: W
HStem: -175 49<226.023 340.148> -12 37<233.307 285.781> 435 61<225.367 314.802> 514 112<371.946 478.405>
VStem: 18 167<194.961 375.4> 160 55<-113.66 -38.7247> 172 37<50 92> 295 67<469.397 505.12> 354 141<-109.116 -19.105> 355 161<202.567 389.167>
AnchorPoint: "Anchor-0" 232 591 basechar 0
AnchorPoint: "Anchor-2" 268 -162 basechar 0
LayerCount: 2
Fore
SplineSet
362 472 m 0xf1
 351 443 286 458 295 492 c 0
 320 588 376 626 438 626 c 0
 482 626 520 606 520 560 c 0
 520 528 491 506 456 506 c 0
 428 506 412 514 402 514 c 0
 387 514 374 503 362 472 c 0xf1
EndSplineSet
Refer: 74 -1 N 1 0 0 1 0 0 2
Validated: 37
EndChar

StartChar: k.ss01
Encoding: 65554 -1 384
Width: 633
VWidth: 1250
Flags: W
HStem: 0 67<18.8699 89 241 293.164 335.358 381.999 537.188 614.441> 270 41<256.489 290.375> 411 68<320.176 374.999 457.906 562.801> 681 68<18.8697 89>
VStem: 89 152<68.0156 253.656 311.009 680.997>
AnchorPoint: "Anchor-0" 142 749 basechar 0
AnchorPoint: "Anchor-2" 314 0 basechar 0
LayerCount: 2
Fore
SplineSet
426 349 m 0
 426 341 434 323 450 286 c 2
 540 81 l 2
 545 70 548 68 554 68 c 0
 563 68 566 72 580 72 c 0
 605 72 617 57 617 37 c 0
 617 17 607 0 565 0 c 0
 523 0 507 5 475 5 c 0
 445 5 431 0 389 0 c 0
 347 0 330 15 330 46 c 0
 330 58 339 69 355 69 c 0
 362 69 366 67 374 67 c 0
 380 67 382 70 382 74 c 0
 382 76 381 80 380 82 c 2
 308 253 l 2
 303 264 299 270 294 270 c 0
 288 270 281 265 278 263 c 2
 257 250 l 2
 246 243 241 236 241 221 c 2
 241 82 l 2
 241 73 243 68 249 68 c 0
 257 68 257 72 271 72 c 0
 287 72 296 57 296 37 c 0
 296 17 285 0 243 0 c 0
 201 0 214 5 169 5 c 0
 124 5 111 0 69 0 c 0
 27 0 16 17 16 37 c 0
 16 57 28 72 53 72 c 0
 67 72 71 67 79 67 c 0
 85 67 89 73 89 78 c 2
 89 666 l 2
 89 677 85 681 78 681 c 0
 67 681 64 677 53 677 c 0
 30 677 16 691 16 712 c 0
 16 737 33 749 69 749 c 0
 108 749 113 746 152 746 c 0
 171 746 180 749 199 749 c 0
 226 749 241 733 241 705 c 2
 241 334 l 2
 241 323 244 311 254 311 c 0
 264 311 271 315 279 322 c 2
 370 395 l 2
 373 397 375 401 375 404 c 0
 375 409 373 411 369 411 c 0
 365 411 357 407 346 407 c 0
 330 407 317 421 317 441 c 0
 317 461 328 479 370 479 c 0
 412 479 427 477 442 477 c 0
 456 477 471 479 513 479 c 0
 555 479 566 461 566 441 c 0
 566 421 554 407 529 407 c 0
 515 407 510 411 496 411 c 0
 484 411 478 408 470 400 c 10
 452 384 l 2
 438 371 426 359 426 349 c 0
EndSplineSet
Validated: 1
EndChar

StartChar: t.ss01
Encoding: 65555 -1 385
Width: 366
VWidth: 1250
Flags: W
HStem: 0 75<247 308.304> 402 77<272.469 342.975> 408 64<248.405 308.252> 410 69<16.889 93.5513>
VStem: 88 159<77.7844 407.779> 132 110<533.592 697.553> 141 88<490.867 633.845>
AnchorPoint: "Anchor-0" 189 706 basechar 0
AnchorPoint: "Anchor-2" 205 0 basechar 0
LayerCount: 2
Fore
SplineSet
88 102 m 0xa8
 88 163 94 350 94 384 c 0
 94 404 86 410 78 410 c 0
 71 410 64 407 53 407 c 0
 31 407 14 417 14 442 c 0
 14 470 35 479 65 479 c 0
 123 479 141 502 141 532 c 0x92
 141 566 132 597 132 636 c 0
 132 680 152 711 189 711 c 0
 228 711 242 675 242 636 c 0x94
 242 590 229 545 229 506 c 0
 229 486 242 472 266 472 c 0xa2
 280 472 293 479 309 479 c 0
 331 479 346 465 346 440 c 0
 346 415 330 402 309 402 c 0xc2
 293 402 282 408 272 408 c 0
 254 408 247 398 247 368 c 2
 247 90 l 2
 247 82 250 75 265 75 c 0
 274 75 280 79 294 79 c 0
 313 79 322 65 322 50 c 4
 322 20 290 0 211 0 c 0
 126 0 88 22 88 102 c 0xa8
EndSplineSet
Validated: 1
EndChar

StartChar: z.ss01
Encoding: 65556 -1 386
Width: 507
VWidth: 1250
Flags: W
HStem: 0 62<233.012 343.426> 416 63<174.338 274.991>
VStem: 275 197<391.138 457> 357 132<75.4342 142.871>
AnchorPoint: "Anchor-2" 199 0 basechar 0
AnchorPoint: "Anchor-0" 281 479 basechar 0
LayerCount: 2
Fore
SplineSet
332 0 m 2xd0
 48 0 l 2
 28 0 13 10 13 28 c 0
 13 40 18 53 31 70 c 2
 266 379 l 2
 272 387 275 394 275 399 c 0
 275 410 263 416 246 416 c 2
 218 416 l 2
 190 416 176 404 158 372 c 0
 133 327 113 300 79 300 c 0
 41 300 26 324 26 355 c 0
 26 431 100 479 182 479 c 2
 424 479 l 2
 458 479 472 468 472 446 c 0xe0
 472 424 455 394 408 331 c 2
 251 118 l 2
 238 101 233 88 233 80 c 0
 233 66 249 62 270 62 c 2
 298 62 l 2
 326 62 341 73 357 106 c 0
 379 151 402 179 436 179 c 0
 474 179 489 155 489 124 c 0
 489 48 414 0 332 0 c 2xd0
EndSplineSet
Validated: 1
EndChar

StartChar: uni0328
Encoding: 808 808 387
Width: 302
VWidth: 1250
Flags: W
HStem: -189 72<145.025 241.007>
VStem: 26 112<-110.905 -15.7737>
AnchorPoint: "Anchor-3" 138 12 mark 0
LayerCount: 2
Fore
SplineSet
226 58 m 0
 226 14 138 5 138 -71 c 0
 138 -95 152 -117 184 -117 c 0
 219 -117 233 -92 258 -92 c 0
 270 -92 279 -102 279 -116 c 0
 279 -147 229 -189 166 -189 c 0
 80 -189 26 -145 26 -83 c 0
 26 19 147 75 200 75 c 0
 217 75 226 67 226 58 c 0
EndSplineSet
Validated: 1
EndChar

StartChar: uni0326
Encoding: 806 806 388
Width: 255
VWidth: 1250
Flags: W
HStem: -209 247<97.6044 135.656>
VStem: 96 126<-148 -32>
AnchorPoint: "Anchor-2" 130 91 mark 0
LayerCount: 2
Fore
SplineSet
32 -48 m 4
 32 -6 76 38 128 38 c 4
 180 38 222 -6 222 -58 c 4
 222 -153 135 -209 40 -209 c 4
 26 -209 19 -201 19 -190 c 4
 19 -160 96 -161 96 -135 c 4
 96 -114 32 -117 32 -48 c 4
EndSplineSet
Validated: 1
EndChar

StartChar: uni0312
Encoding: 786 786 420
Width: 255
VWidth: 1250
Flags: W
HStem: 483 246<115.344 154.289>
VStem: 29 126<552 668>
AnchorPoint: "Anchor-0" 121 429 mark 0
LayerCount: 2
Fore
SplineSet
219 568 m 4
 219 526 176 483 124 483 c 4
 72 483 29 526 29 578 c 4
 29 673 116 729 211 729 c 4
 225 729 232 721 232 710 c 4
 232 680 155 681 155 655 c 4
 155 634 219 637 219 568 c 4
EndSplineSet
Validated: 1
EndChar

StartChar: dcaron
Encoding: 271 271 423
Width: 768
VWidth: 1250
Flags: W
HStem: 0 68<541 619.441> 31 29<310 382> 424 66<244.353 359.919> 681 68<310.733 384>
VStem: 21 179<131.915 358.262> 384 157<81.0857 398.938 471.006 680.998>
AnchorPoint: "Anchor-2" 256 0 basechar 0
AnchorPoint: "Anchor-0" 442 749 basechar 0
LayerCount: 2
Fore
SplineSet
625 673 m 0x3c
 630.198242188 723.990234375 642 758 683 758 c 0
 728 758 743 725 743 690 c 0
 743 559 654 508 603 508 c 0
 589 508 577 517 577 528 c 0
 577 564 614.139648438 566.47265625 625 673 c 0x3c
EndSplineSet
Refer: 47 100 N 1 0 0 1 0 0 2
Validated: 1
EndChar

StartChar: Dcroat
Encoding: 272 272 424
Width: 807
VWidth: 1250
Flags: W
HStem: 0 68<48.8336 97> 0 61<299.723 442.787> 320 80<9.58182 95.4916 280.318 435.225> 331 58<115 390.366> 661 68<46.8343 96.9607 293.947 446.893>
VStem: 97 181<82.3997 645.364> 570 205<239.297 502.275>
AnchorPoint: "Anchor-2" 368 0 basechar 0
AnchorPoint: "Anchor-0" 364 729 basechar 0
LayerCount: 2
Fore
SplineSet
6 360 m 0x2e
 6 385 21 400 52 400 c 0x2e
 88 400 115 389 224 389 c 0x1e
 332 389 357 400 392 400 c 0
 423 400 439 385 439 360 c 0
 439 335 423 320 392 320 c 0x2e
 357 320 332 331 224 331 c 0x1e
 115 331 88 320 52 320 c 0
 21 320 6 335 6 360 c 0x2e
72 0 m 2x8e
 34 0 12 12 12 41 c 0
 12 67 33 77 48 77 c 0
 66 77 70 68 82 68 c 0x8e
 92 68 97 75 97 90 c 2
 97 637 l 2
 97 652 91 661 81 661 c 0
 69 661 64 652 46 652 c 0
 31 652 11 662 11 688 c 0
 11 717 33 729 71 729 c 2
 409 729 l 2
 614 729 775 597 775 366 c 0
 775 135 590 0 398 0 c 2x4e
 72 0 l 2x8e
278 142 m 2
 278 71 330 61 374 61 c 0x4e
 462 61 570 154 570 377 c 0
 570 600 446 664 358 664 c 0
 314 664 278 645 278 590 c 2
 278 142 l 2
EndSplineSet
Validated: 5
EndChar

StartChar: dcroat
Encoding: 273 273 425
Width: 636
VWidth: 1250
Flags: W
HStem: 0 68<541 619.441> 31 29<310 382> 424 66<244.353 359.919> 531 80<267.582 452.105 459.831 617.418> 542 58<311.68 573.384> 681 68<310.733 384>
VStem: 21 179<131.915 358.262> 384 157<81.0857 398.938 471.006 680.998>
AnchorPoint: "Anchor-2" 256 0 basechar 0
AnchorPoint: "Anchor-0" 442 749 basechar 0
LayerCount: 2
Fore
SplineSet
264 571 m 4x37
 264 596 279 611 310 611 c 4x37
 346 611 372 600 456 600 c 4x2f
 539 600 540 611 575 611 c 4
 606 611 621 596 621 571 c 4
 621 546 606 531 575 531 c 4x37
 540 531 539 542 456 542 c 4x2f
 372 542 346 531 310 531 c 4
 279 531 264 546 264 571 c 4x37
EndSplineSet
Refer: 47 100 N 1 0 0 1 0 0 2
Validated: 5
EndChar

StartChar: kgreenlandic
Encoding: 312 312 426
Width: 633
VWidth: 1250
Flags: W
HStem: 0 67<18.8699 89 241 293.164 335.358 381.999 536.625 614.441> 261 50<241.373 287.438> 388 102<437.91 541.625> 411 68<19.199 89 241 310.937>
VStem: 89 152<68.0156 260.965 311.016 410.996>
LayerCount: 2
Fore
SplineSet
241 396 m 6xd8
 241 334 l 2
 241 333 244 311 254 311 c 0
 264 311 268 315 279 325 c 2
 414 449 l 2
 447 479 474 490 512 490 c 0
 566 490 590 458 590 418 c 0
 590 381 567 359 529 359 c 0
 493 359 475 388 439 388 c 0xe8
 416 388 404 370 404 355 c 0
 404 336 413 316 432 281 c 2
 540 81 l 2
 545 72 548 68 554 68 c 0
 563 68 566 72 580 72 c 0
 605 72 617 57 617 37 c 0
 617 17 607 0 565 0 c 0
 523 0 507 5 475 5 c 0
 445 5 431 0 389 0 c 0
 347 0 330 15 330 46 c 0
 330 58 339 69 355 69 c 0
 362 69 366 67 374 67 c 0
 380 67 382 70 382 74 c 0
 382 76 381 80 380 82 c 2
 288 242 l 2
 281 255 275 261 264 261 c 0
 249 261 241 249 241 234 c 2
 241 82 l 2
 241 73 243 68 249 68 c 0
 257 68 257 72 271 72 c 0
 287 72 296 57 296 37 c 0
 296 17 285 0 243 0 c 0
 201 0 214 5 169 5 c 0
 124 5 111 0 69 0 c 0
 27 0 16 17 16 37 c 0
 16 57 28 72 53 72 c 0
 67 72 71 67 79 67 c 0
 85 67 89 73 89 78 c 2
 89 396 l 2
 89 407 85 411 79 411 c 0
 71 411 67 407 53 407 c 0
 28 407 16 421 16 441 c 0
 16 461 27 479 69 479 c 0
 111 479 118 474 163 474 c 0
 208 474 219 479 261 479 c 0
 303 479 314 461 314 441 c 0
 314 421 301 407 276 407 c 0
 262 407 259 411 251 411 c 0
 245 411 241 405 241 396 c 6xd8
EndSplineSet
Validated: 1
EndChar

StartChar: Lcaron
Encoding: 317 317 427
Width: 625
VWidth: 1250
Flags: W
HStem: 661 68<10.733 81 260 329.13> 718 20G<483 535>
VStem: 81 179<74.2305 660.998> 432 159<537.009 710.5>
LayerCount: 2
Fore
SplineSet
432 644 m 0x70
 432 696 457 738 509 738 c 0
 561 738 591 696 591 644 c 0
 591 490 472 408 421 408 c 0
 407 408 395 417 395 428 c 0
 395 464 432 480 432 644 c 0x70
EndSplineSet
Refer: 29 76 S 1 0 0 1 0 0 2
Validated: 1
EndChar

StartChar: lcaron
Encoding: 318 318 428
Width: 517
VWidth: 1250
Flags: W
HStem: 0 67<13.8699 84 246 316.267> 682 67<11.7781 84> 718 20G<380 432>
VStem: 84 162<68.016 681.997> 330 159<537.009 708.887>
LayerCount: 2
Fore
SplineSet
330 644 m 0xb8
 330 696 354 738 406 738 c 0
 458 738 489 696 489 644 c 0
 489 490 370 408 319 408 c 0
 305 408 292 417 292 428 c 0
 292 464 330 480 330 644 c 0xb8
EndSplineSet
Refer: 55 108 N 1 0 0 1 0 0 2
Validated: 1
EndChar

StartChar: Ldot
Encoding: 319 319 429
Width: 625
VWidth: 1250
Flags: W
HStem: 331 190<407.358 527.828> 661 68<10.733 81 260 329.13>
VStem: 81 179<74.2305 660.998> 372 190<367.546 484.454>
LayerCount: 2
Fore
SplineSet
372 426 m 4
 372 478 416 521 468 521 c 4
 520 521 562 478 562 426 c 4
 562 374 520 331 468 331 c 4
 416 331 372 374 372 426 c 4
EndSplineSet
Refer: 29 76 N 1 0 0 1 0 0 2
Validated: 1
EndChar

StartChar: ldot
Encoding: 320 320 430
Width: 516
VWidth: 1250
Flags: W
HStem: 0 67<13.8699 84 246 316.267> 294 190<329.765 450.235> 682 67<11.7781 84>
VStem: 84 162<68.016 681.997> 295 190<328.765 449.235>
LayerCount: 2
Fore
SplineSet
295 389 m 0
 295 441 338 484 390 484 c 0
 442 484 485 441 485 389 c 0
 485 337 442 294 390 294 c 0
 338 294 295 337 295 389 c 0
EndSplineSet
Refer: 55 108 N 1 0 0 1 0 0 2
Validated: 1
EndChar

StartChar: uni0259
Encoding: 601 601 440
Width: 521
VWidth: 1250
Flags: W
HStem: -12 64<165.752 272.735> 135 63<149.026 291.93> 425 65<155.567 264.238>
VStem: 16 133<81.495 172.5> 314 181<210.263 343.479>
AnchorPoint: "Anchor-0" 226 479 basechar 0
AnchorPoint: "Anchor-2" 231 0 basechar 0
LayerCount: 2
Fore
SplineSet
208 425 m 0
 132 425 132 334 68 334 c 0
 40 334 15 357 15 384 c 0
 15 445 118 490 225 490 c 0
 386 490 495 388 495 238 c 0
 495 101 374 -12 221 -12 c 0
 102 -12 16 65 16 161 c 0
 16 184 37 198 69 198 c 2
 256 198 l 2
 296 198 314 219 314 266 c 0
 314 364 275 425 208 425 c 0
220 52 m 0
 263 52 292 81 292 112 c 0
 292 126 282 135 265 135 c 2
 180 135 l 2
 158 135 149 128 149 112 c 0
 149 79 176 52 220 52 c 0
EndSplineSet
Validated: 1
EndChar

StartChar: uni018F
Encoding: 399 399 441
Width: 744
VWidth: 1250
Flags: W
HStem: -12 73<241.441 398.772> 220 78<171.162 463.054> 486 21G<53 77> 664 74<193.934 367.312>
VStem: 20 151<158.97 270.5> 484 211<311.98 497.538>
AnchorPoint: "Anchor-2" 287 0 basechar 0
AnchorPoint: "Anchor-0" 272 729 basechar 0
LayerCount: 2
Fore
SplineSet
171 195 m 0
 171 154 212 61 316 61 c 0
 420 61 465 135 465 190 c 0
 465 210 458 220 434 220 c 2
 205 220 l 2
 185 220 171 216 171 195 c 0
304 738 m 0
 468 738 695 649 695 362 c 0
 695 88 499 -12 309 -12 c 0
 94 -12 20 162 20 258 c 0
 20 283 35 298 66 298 c 2
 353 298 l 2
 458 298 484 305 484 362 c 0
 484 600 374 664 286 664 c 0
 225 664 135 634 109 546 c 0
 96 503 89 486 65 486 c 0
 41 486 30 505 30 524 c 0
 30 563 50 616 64 658 c 0
 77 698 88 729 112 729 c 0
 136 729 142 710 158 710 c 0
 172 710 242 738 304 738 c 0
EndSplineSet
Validated: 1
EndChar

StartChar: eng
Encoding: 331 331 444
Width: 595
VWidth: 1250
Flags: W
HStem: -178 89<277.543 378.396> 0 67<8.8699 79 230 283.164> 402 42<250.125 286.409> 411 68<9.19902 79>
VStem: 79 151<68.125 383.201> 399 150<-13.8906 366.801>
AnchorPoint: "Anchor-0" 294 479 basechar 0
AnchorPoint: "Anchor-2" 314 0 basechar 0
LayerCount: 2
Fore
SplineSet
399 21 m 2xec
 399 279 l 2
 399 380 349 402 304 402 c 0xec
 259 402 230 374 230 326 c 2
 230 82 l 2
 230 73 230 68 236 68 c 0
 244 68 247 72 261 72 c 0
 277 72 286 57 286 37 c 0
 286 17 275 0 233 0 c 0
 191 0 204 5 159 5 c 0
 114 5 101 0 59 0 c 0
 17 0 6 17 6 37 c 0
 6 57 18 72 43 72 c 0
 57 72 61 67 69 67 c 0
 75 67 79 73 79 85 c 2
 79 396 l 2
 79 409 74 411 68 411 c 0
 60 411 57 407 43 407 c 0
 18 407 6 421 6 441 c 0
 6 461 17 479 59 479 c 0
 101 479 106 476 136 476 c 0
 165 476 177 479 205 479 c 0xdc
 225 479 231 471 231 462 c 0
 231 452 235 444 250 444 c 0
 278 444 284 490 380 490 c 0
 476 490 549 416 549 304 c 2
 549 82 l 2
 549 -49 427 -178 321 -178 c 0
 282 -178 246 -157 246 -116 c 0
 246 -94 262 -72 291 -72 c 0
 320 -72 324 -89 348 -89 c 0
 369 -89 399 -65 399 21 c 2xec
EndSplineSet
Validated: 1
EndChar

StartChar: Lslash
Encoding: 321 321 445
Width: 657
VWidth: 1250
Flags: W
HStem: 279 80<14.425 114.111> 398 80<337.086 438.008> 661 68<42.733 113 292 361.13>
VStem: 113 179<74.2305 660.998>
AnchorPoint: "Anchor-2" 328 0 basechar 0
AnchorPoint: "Anchor-0" 202 729 basechar 0
LayerCount: 2
Fore
SplineSet
10 319 m 4
 10 344 25 350 56 359 c 4
 91 369 125 374 228 410 c 4
 336 448 361 478 396 478 c 4
 427 478 442 463 442 438 c 4
 442 413 427 403 396 398 c 4
 361 392 336 390 228 352 c 4
 125 316 92 279 56 279 c 4
 25 279 10 294 10 319 c 4
EndSplineSet
Refer: 29 76 N 1 0 0 1 32 0 2
Validated: 5
EndChar

StartChar: lslash
Encoding: 322 322 446
Width: 372
VWidth: 1250
Flags: W
HStem: 0 67<38.8699 109 271 341.267> 291 80<26.657 114.597> 385 80<258.266 351.008> 682 67<36.7781 109>
VStem: 22 333<331 425> 109 162<68.016 681.997>
AnchorPoint: "Anchor-2" 189 0 basechar 0
AnchorPoint: "Anchor-0" 164 749 basechar 0
LayerCount: 2
Fore
SplineSet
22 331 m 4xf8
 22 356 38 362 69 371 c 4
 93 378 117 383 190 410 c 4
 266 441 284 465 309 465 c 4
 340 465 355 450 355 425 c 4
 355 400 340 390 309 385 c 4
 284 380 266 379 190 352 c 4
 117 322 94 291 69 291 c 4
 38 291 22 306 22 331 c 4xf8
EndSplineSet
Refer: 55 108 N 1 0 0 1 25 0 2
Validated: 5
EndChar

StartChar: OE
Encoding: 338 338 447
Width: 1150
VWidth: 1250
Flags: W
HStem: -12 75<338.892 482.7> 0 64<795.542 943.809> 384 66<790.527 902.776> 662 76<335.912 483.292> 664 65<790.423 924.806> 729 20G<972 1011>
VStem: 29 203<222.387 510.52> 588 197<142 376 459 588> 608 71<121 609>
LayerCount: 2
Fore
SplineSet
604 688 m 2x6a80
 604 717 624 729 655 729 c 2x6680
 872 729 l 2x2a80
 942 729 955 749 989 749 c 0x2680
 1033 749 1030 696 1058 648 c 0
 1074 620 1080 603 1080 584 c 0
 1080 565 1065 548 1040 548 c 0
 996 548 979 580 946 621 c 0
 915 660 890 664 841 664 c 0
 792 664 788 650 788 618 c 2
 788 478 l 2
 788 459 801 450 815 450 c 2
 856 450 l 2
 907 450 897 491 948 491 c 0
 982 491 988 440 1016 392 c 0
 1032 364 1039 348 1039 329 c 0
 1039 310 1024 292 999 292 c 0
 964 292 951 313 918 354 c 0
 897 380 874 384 839 384 c 0
 804 384 785 376 785 328 c 2
 785 128 l 2x2b
 785 90 800 64 844 64 c 0
 923 64 952 87 980 114 c 0
 1032 165 1037 208 1095 208 c 0
 1117 208 1132 188 1132 162 c 0
 1132 136 1112 122 1092 78 c 0
 1072 34 1076 -28 1020 -28 c 0
 969 -28 973 0 909 0 c 2
 661 0 l 2
 619 0 608 17 608 37 c 2
 604 688 l 2x6a80
410 63 m 0xb3
 498 63 588 142 588 365 c 0
 588 588 498 662 410 662 c 0
 322 662 232 588 232 365 c 0
 232 142 322 63 410 63 c 0xb3
376 -12 m 4
 184 -12 29 121 29 365 c 0
 29 609 171 738 376 738 c 4
 581 738 679 609 679 365 c 0xb280
 679 121 568 -12 376 -12 c 4
EndSplineSet
Validated: 5
EndChar

StartChar: oe
Encoding: 339 339 448
Width: 871
VWidth: 1250
Flags: W
HStem: -12 64<233.421 333.039 600.117 709.857> 280 64<569.387 711.993> 426 64<233.421 331.214 587.472 696.368>
VStem: 21 165<124.975 351.534> 378 170<108.665 270.828> 712 133<306.5 396.899>
LayerCount: 2
Fore
SplineSet
282 426 m 0
 222 426 186 360 186 238 c 0
 186 116 222 52 282 52 c 0
 342 52 378 116 378 238 c 0
 378 360 342 426 282 426 c 0
641 426 m 0
 598 426 569 397 569 366 c 0
 569 352 579 344 596 344 c 2
 681 344 l 2
 703 344 712 350 712 366 c 0
 712 399 685 426 641 426 c 0
654 58 m 0
 757 58 726 150 804 150 c 0
 828 150 845 132 845 106 c 0
 845 49 764 -12 649 -12 c 0
 504 -12 491 56 454 56 c 0
 417 56 401 -12 263 -12 c 0
 114 -12 21 88 21 238 c 0
 21 388 114 490 263 490 c 0
 403 490 418 417 456 417 c 4
 493 417 511 490 652 490 c 0
 758 490 845 414 845 318 c 0
 845 295 824 280 792 280 c 2
 605 280 l 2
 565 280 548 259 548 212 c 0
 548 114 587 58 654 58 c 0
EndSplineSet
Validated: 1
EndChar

